<?xml version="1.0" encoding="utf-8" standalone="no"?>
<!DOCTYPE svg PUBLIC "-//W3C//DTD SVG 1.1//EN"
  "http://www.w3.org/Graphics/SVG/1.1/DTD/svg11.dtd">
<!-- Created with matplotlib (https://matplotlib.org/) -->
<svg height="335.40375pt" version="1.1" viewBox="0 0 959.13 335.40375" width="959.13pt" xmlns="http://www.w3.org/2000/svg" xmlns:xlink="http://www.w3.org/1999/xlink">
 <defs>
  <style type="text/css">
*{stroke-linecap:butt;stroke-linejoin:round;white-space:pre;}
  </style>
 </defs>
 <g id="figure_1">
  <g id="patch_1">
   <path d="M 0 335.40375 
L 959.13 335.40375 
L 959.13 0 
L 0 0 
z
" style="fill:#ffffff;"/>
  </g>
  <g id="axes_1">
   <g id="patch_2">
    <path d="M 59.13 285.07875 
L 464.948182 285.07875 
L 464.948182 13.27875 
L 59.13 13.27875 
z
" style="fill:#ffffff;"/>
   </g>
   <g id="patch_3">
    <path clip-path="url(#p983db0219b)" d="M 59.180796 285.07875 
L 67.657865 285.07875 
L 67.657865 62.978277 
L 59.180796 62.978277 
z
" style="fill:#d3d3d3;"/>
   </g>
   <g id="patch_4">
    <path clip-path="url(#p983db0219b)" d="M 67.657865 285.07875 
L 76.134935 285.07875 
L 76.134935 88.121726 
L 67.657865 88.121726 
z
" style="fill:#d3d3d3;"/>
   </g>
   <g id="patch_5">
    <path clip-path="url(#p983db0219b)" d="M 76.134935 285.07875 
L 84.612004 285.07875 
L 84.612004 90.217014 
L 76.134935 90.217014 
z
" style="fill:#d3d3d3;"/>
   </g>
   <g id="patch_6">
    <path clip-path="url(#p983db0219b)" d="M 84.612004 285.07875 
L 93.089073 285.07875 
L 93.089073 98.598164 
L 84.612004 98.598164 
z
" style="fill:#d3d3d3;"/>
   </g>
   <g id="patch_7">
    <path clip-path="url(#p983db0219b)" d="M 93.089073 285.07875 
L 101.566143 285.07875 
L 101.566143 125.836901 
L 93.089073 125.836901 
z
" style="fill:#d3d3d3;"/>
   </g>
   <g id="patch_8">
    <path clip-path="url(#p983db0219b)" d="M 101.566143 285.07875 
L 110.043212 285.07875 
L 110.043212 197.076676 
L 101.566143 197.076676 
z
" style="fill:#d3d3d3;"/>
   </g>
   <g id="patch_9">
    <path clip-path="url(#p983db0219b)" d="M 110.043212 285.07875 
L 118.520281 285.07875 
L 118.520281 199.171963 
L 110.043212 199.171963 
z
" style="fill:#d3d3d3;"/>
   </g>
   <g id="patch_10">
    <path clip-path="url(#p983db0219b)" d="M 118.520281 285.07875 
L 126.997351 285.07875 
L 126.997351 213.838976 
L 118.520281 213.838976 
z
" style="fill:#d3d3d3;"/>
   </g>
   <g id="patch_11">
    <path clip-path="url(#p983db0219b)" d="M 126.997351 285.07875 
L 135.47442 285.07875 
L 135.47442 228.505988 
L 126.997351 228.505988 
z
" style="fill:#d3d3d3;"/>
   </g>
   <g id="patch_12">
    <path clip-path="url(#p983db0219b)" d="M 135.47442 285.07875 
L 143.951489 285.07875 
L 143.951489 222.220125 
L 135.47442 222.220125 
z
" style="fill:#d3d3d3;"/>
   </g>
   <g id="patch_13">
    <path clip-path="url(#p983db0219b)" d="M 143.951489 285.07875 
L 152.428559 285.07875 
L 152.428559 262.030588 
L 143.951489 262.030588 
z
" style="fill:#d3d3d3;"/>
   </g>
   <g id="patch_14">
    <path clip-path="url(#p983db0219b)" d="M 152.428559 285.07875 
L 160.905628 285.07875 
L 160.905628 253.649438 
L 152.428559 253.649438 
z
" style="fill:#d3d3d3;"/>
   </g>
   <g id="patch_15">
    <path clip-path="url(#p983db0219b)" d="M 160.905628 285.07875 
L 169.382697 285.07875 
L 169.382697 270.411738 
L 160.905628 270.411738 
z
" style="fill:#d3d3d3;"/>
   </g>
   <g id="patch_16">
    <path clip-path="url(#p983db0219b)" d="M 169.382697 285.07875 
L 177.859766 285.07875 
L 177.859766 264.125875 
L 169.382697 264.125875 
z
" style="fill:#d3d3d3;"/>
   </g>
   <g id="patch_17">
    <path clip-path="url(#p983db0219b)" d="M 177.859766 285.07875 
L 186.336836 285.07875 
L 186.336836 282.983463 
L 177.859766 282.983463 
z
" style="fill:#d3d3d3;"/>
   </g>
   <g id="patch_18">
    <path clip-path="url(#p983db0219b)" d="M 186.336836 285.07875 
L 194.813905 285.07875 
L 194.813905 280.888175 
L 186.336836 280.888175 
z
" style="fill:#d3d3d3;"/>
   </g>
   <g id="patch_19">
    <path clip-path="url(#p983db0219b)" d="M 194.813905 285.07875 
L 203.290974 285.07875 
L 203.290974 274.602313 
L 194.813905 274.602313 
z
" style="fill:#d3d3d3;"/>
   </g>
   <g id="patch_20">
    <path clip-path="url(#p983db0219b)" d="M 203.290974 285.07875 
L 211.768044 285.07875 
L 211.768044 280.888175 
L 203.290974 280.888175 
z
" style="fill:#d3d3d3;"/>
   </g>
   <g id="patch_21">
    <path clip-path="url(#p983db0219b)" d="M 211.768044 285.07875 
L 220.245113 285.07875 
L 220.245113 282.983463 
L 211.768044 282.983463 
z
" style="fill:#d3d3d3;"/>
   </g>
   <g id="patch_22">
    <path clip-path="url(#p983db0219b)" d="M 220.245113 285.07875 
L 228.722182 285.07875 
L 228.722182 280.888175 
L 220.245113 280.888175 
z
" style="fill:#d3d3d3;"/>
   </g>
   <g id="patch_23">
    <path clip-path="url(#p983db0219b)" d="M 228.722182 285.07875 
L 237.199252 285.07875 
L 237.199252 280.888175 
L 228.722182 280.888175 
z
" style="fill:#d3d3d3;"/>
   </g>
   <g id="matplotlib.axis_1">
    <g id="xtick_1">
     <g id="line2d_1">
      <defs>
       <path d="M 0 0 
L 0 3.5 
" id="m78cfbbfd22" style="stroke:#000000;stroke-width:0.8;"/>
      </defs>
      <g>
       <use style="stroke:#000000;stroke-width:0.8;" x="59.13" xlink:href="#m78cfbbfd22" y="285.07875"/>
      </g>
     </g>
     <g id="text_1">
      <!-- 0.0 -->
      <defs>
       <path d="M 31.78125 66.40625 
Q 24.171875 66.40625 20.328125 58.90625 
Q 16.5 51.421875 16.5 36.375 
Q 16.5 21.390625 20.328125 13.890625 
Q 24.171875 6.390625 31.78125 6.390625 
Q 39.453125 6.390625 43.28125 13.890625 
Q 47.125 21.390625 47.125 36.375 
Q 47.125 51.421875 43.28125 58.90625 
Q 39.453125 66.40625 31.78125 66.40625 
z
M 31.78125 74.21875 
Q 44.046875 74.21875 50.515625 64.515625 
Q 56.984375 54.828125 56.984375 36.375 
Q 56.984375 17.96875 50.515625 8.265625 
Q 44.046875 -1.421875 31.78125 -1.421875 
Q 19.53125 -1.421875 13.0625 8.265625 
Q 6.59375 17.96875 6.59375 36.375 
Q 6.59375 54.828125 13.0625 64.515625 
Q 19.53125 74.21875 31.78125 74.21875 
z
" id="DejaVuSans-48"/>
       <path d="M 10.6875 12.40625 
L 21 12.40625 
L 21 0 
L 10.6875 0 
z
" id="DejaVuSans-46"/>
      </defs>
      <g transform="translate(46.4075 304.23625)scale(0.16 -0.16)">
       <use xlink:href="#DejaVuSans-48"/>
       <use x="63.623047" xlink:href="#DejaVuSans-46"/>
       <use x="95.410156" xlink:href="#DejaVuSans-48"/>
      </g>
     </g>
    </g>
    <g id="xtick_2">
     <g id="line2d_2">
      <g>
       <use style="stroke:#000000;stroke-width:0.8;" x="126.766364" xlink:href="#m78cfbbfd22" y="285.07875"/>
      </g>
     </g>
     <g id="text_2">
      <!-- 0.5 -->
      <defs>
       <path d="M 10.796875 72.90625 
L 49.515625 72.90625 
L 49.515625 64.59375 
L 19.828125 64.59375 
L 19.828125 46.734375 
Q 21.96875 47.46875 24.109375 47.828125 
Q 26.265625 48.1875 28.421875 48.1875 
Q 40.625 48.1875 47.75 41.5 
Q 54.890625 34.8125 54.890625 23.390625 
Q 54.890625 11.625 47.5625 5.09375 
Q 40.234375 -1.421875 26.90625 -1.421875 
Q 22.3125 -1.421875 17.546875 -0.640625 
Q 12.796875 0.140625 7.71875 1.703125 
L 7.71875 11.625 
Q 12.109375 9.234375 16.796875 8.0625 
Q 21.484375 6.890625 26.703125 6.890625 
Q 35.15625 6.890625 40.078125 11.328125 
Q 45.015625 15.765625 45.015625 23.390625 
Q 45.015625 31 40.078125 35.4375 
Q 35.15625 39.890625 26.703125 39.890625 
Q 22.75 39.890625 18.8125 39.015625 
Q 14.890625 38.140625 10.796875 36.28125 
z
" id="DejaVuSans-53"/>
      </defs>
      <g transform="translate(114.043864 304.23625)scale(0.16 -0.16)">
       <use xlink:href="#DejaVuSans-48"/>
       <use x="63.623047" xlink:href="#DejaVuSans-46"/>
       <use x="95.410156" xlink:href="#DejaVuSans-53"/>
      </g>
     </g>
    </g>
    <g id="xtick_3">
     <g id="line2d_3">
      <g>
       <use style="stroke:#000000;stroke-width:0.8;" x="194.402727" xlink:href="#m78cfbbfd22" y="285.07875"/>
      </g>
     </g>
     <g id="text_3">
      <!-- 1.0 -->
      <defs>
       <path d="M 12.40625 8.296875 
L 28.515625 8.296875 
L 28.515625 63.921875 
L 10.984375 60.40625 
L 10.984375 69.390625 
L 28.421875 72.90625 
L 38.28125 72.90625 
L 38.28125 8.296875 
L 54.390625 8.296875 
L 54.390625 0 
L 12.40625 0 
z
" id="DejaVuSans-49"/>
      </defs>
      <g transform="translate(181.680227 304.23625)scale(0.16 -0.16)">
       <use xlink:href="#DejaVuSans-49"/>
       <use x="63.623047" xlink:href="#DejaVuSans-46"/>
       <use x="95.410156" xlink:href="#DejaVuSans-48"/>
      </g>
     </g>
    </g>
    <g id="xtick_4">
     <g id="line2d_4">
      <g>
       <use style="stroke:#000000;stroke-width:0.8;" x="262.039091" xlink:href="#m78cfbbfd22" y="285.07875"/>
      </g>
     </g>
     <g id="text_4">
      <!-- 1.5 -->
      <g transform="translate(249.316591 304.23625)scale(0.16 -0.16)">
       <use xlink:href="#DejaVuSans-49"/>
       <use x="63.623047" xlink:href="#DejaVuSans-46"/>
       <use x="95.410156" xlink:href="#DejaVuSans-53"/>
      </g>
     </g>
    </g>
    <g id="xtick_5">
     <g id="line2d_5">
      <g>
       <use style="stroke:#000000;stroke-width:0.8;" x="329.675455" xlink:href="#m78cfbbfd22" y="285.07875"/>
      </g>
     </g>
     <g id="text_5">
      <!-- 2.0 -->
      <defs>
       <path d="M 19.1875 8.296875 
L 53.609375 8.296875 
L 53.609375 0 
L 7.328125 0 
L 7.328125 8.296875 
Q 12.9375 14.109375 22.625 23.890625 
Q 32.328125 33.6875 34.8125 36.53125 
Q 39.546875 41.84375 41.421875 45.53125 
Q 43.3125 49.21875 43.3125 52.78125 
Q 43.3125 58.59375 39.234375 62.25 
Q 35.15625 65.921875 28.609375 65.921875 
Q 23.96875 65.921875 18.8125 64.3125 
Q 13.671875 62.703125 7.8125 59.421875 
L 7.8125 69.390625 
Q 13.765625 71.78125 18.9375 73 
Q 24.125 74.21875 28.421875 74.21875 
Q 39.75 74.21875 46.484375 68.546875 
Q 53.21875 62.890625 53.21875 53.421875 
Q 53.21875 48.921875 51.53125 44.890625 
Q 49.859375 40.875 45.40625 35.40625 
Q 44.1875 33.984375 37.640625 27.21875 
Q 31.109375 20.453125 19.1875 8.296875 
z
" id="DejaVuSans-50"/>
      </defs>
      <g transform="translate(316.952955 304.23625)scale(0.16 -0.16)">
       <use xlink:href="#DejaVuSans-50"/>
       <use x="63.623047" xlink:href="#DejaVuSans-46"/>
       <use x="95.410156" xlink:href="#DejaVuSans-48"/>
      </g>
     </g>
    </g>
    <g id="xtick_6">
     <g id="line2d_6">
      <g>
       <use style="stroke:#000000;stroke-width:0.8;" x="397.311818" xlink:href="#m78cfbbfd22" y="285.07875"/>
      </g>
     </g>
     <g id="text_6">
      <!-- 2.5 -->
      <g transform="translate(384.589318 304.23625)scale(0.16 -0.16)">
       <use xlink:href="#DejaVuSans-50"/>
       <use x="63.623047" xlink:href="#DejaVuSans-46"/>
       <use x="95.410156" xlink:href="#DejaVuSans-53"/>
      </g>
     </g>
    </g>
    <g id="xtick_7">
     <g id="line2d_7">
      <g>
       <use style="stroke:#000000;stroke-width:0.8;" x="464.948182" xlink:href="#m78cfbbfd22" y="285.07875"/>
      </g>
     </g>
     <g id="text_7">
      <!-- 3.0 -->
      <defs>
       <path d="M 40.578125 39.3125 
Q 47.65625 37.796875 51.625 33 
Q 55.609375 28.21875 55.609375 21.1875 
Q 55.609375 10.40625 48.1875 4.484375 
Q 40.765625 -1.421875 27.09375 -1.421875 
Q 22.515625 -1.421875 17.65625 -0.515625 
Q 12.796875 0.390625 7.625 2.203125 
L 7.625 11.71875 
Q 11.71875 9.328125 16.59375 8.109375 
Q 21.484375 6.890625 26.8125 6.890625 
Q 36.078125 6.890625 40.9375 10.546875 
Q 45.796875 14.203125 45.796875 21.1875 
Q 45.796875 27.640625 41.28125 31.265625 
Q 36.765625 34.90625 28.71875 34.90625 
L 20.21875 34.90625 
L 20.21875 43.015625 
L 29.109375 43.015625 
Q 36.375 43.015625 40.234375 45.921875 
Q 44.09375 48.828125 44.09375 54.296875 
Q 44.09375 59.90625 40.109375 62.90625 
Q 36.140625 65.921875 28.71875 65.921875 
Q 24.65625 65.921875 20.015625 65.03125 
Q 15.375 64.15625 9.8125 62.3125 
L 9.8125 71.09375 
Q 15.4375 72.65625 20.34375 73.4375 
Q 25.25 74.21875 29.59375 74.21875 
Q 40.828125 74.21875 47.359375 69.109375 
Q 53.90625 64.015625 53.90625 55.328125 
Q 53.90625 49.265625 50.4375 45.09375 
Q 46.96875 40.921875 40.578125 39.3125 
z
" id="DejaVuSans-51"/>
      </defs>
      <g transform="translate(452.225682 304.23625)scale(0.16 -0.16)">
       <use xlink:href="#DejaVuSans-51"/>
       <use x="63.623047" xlink:href="#DejaVuSans-46"/>
       <use x="95.410156" xlink:href="#DejaVuSans-48"/>
      </g>
     </g>
    </g>
    <g id="text_8">
     <!-- AE$_{[O_2]}$ (% air) -->
     <defs>
      <path d="M 34.1875 63.1875 
L 20.796875 26.90625 
L 47.609375 26.90625 
z
M 28.609375 72.90625 
L 39.796875 72.90625 
L 67.578125 0 
L 57.328125 0 
L 50.6875 18.703125 
L 17.828125 18.703125 
L 11.1875 0 
L 0.78125 0 
z
" id="DejaVuSans-65"/>
      <path d="M 9.8125 72.90625 
L 55.90625 72.90625 
L 55.90625 64.59375 
L 19.671875 64.59375 
L 19.671875 43.015625 
L 54.390625 43.015625 
L 54.390625 34.71875 
L 19.671875 34.71875 
L 19.671875 8.296875 
L 56.78125 8.296875 
L 56.78125 0 
L 9.8125 0 
z
" id="DejaVuSans-69"/>
      <path d="M 8.59375 75.984375 
L 29.296875 75.984375 
L 29.296875 69 
L 17.578125 69 
L 17.578125 -6.203125 
L 29.296875 -6.203125 
L 29.296875 -13.1875 
L 8.59375 -13.1875 
z
" id="DejaVuSans-91"/>
      <path d="M 45.609375 66.21875 
Q 37.5 66.21875 31.296875 62.28125 
Q 25.09375 58.34375 20.515625 50.296875 
Q 17.578125 45.171875 16.03125 39.40625 
Q 14.5 33.640625 14.5 27.78125 
Q 14.5 17.625 19.359375 12.109375 
Q 24.21875 6.59375 33.109375 6.59375 
Q 41.109375 6.59375 47.375 10.5625 
Q 53.65625 14.546875 58.109375 22.40625 
Q 61.078125 27.6875 62.640625 33.46875 
Q 64.203125 39.265625 64.203125 45.015625 
Q 64.203125 55.125 59.3125 60.671875 
Q 54.4375 66.21875 45.609375 66.21875 
z
M 32.8125 -1.421875 
Q 19.390625 -1.421875 11.6875 6.53125 
Q 4 14.5 4 28.328125 
Q 4 36.234375 7 44.484375 
Q 10.015625 52.734375 15.28125 59.1875 
Q 21.484375 66.75 29.09375 70.484375 
Q 36.71875 74.21875 45.90625 74.21875 
Q 59.28125 74.21875 66.984375 66.328125 
Q 74.703125 58.453125 74.703125 44.828125 
Q 74.703125 36.421875 71.765625 28.3125 
Q 68.84375 20.21875 63.375 13.625 
Q 57.125 6 49.578125 2.28125 
Q 42.046875 -1.421875 32.8125 -1.421875 
z
" id="DejaVuSans-Oblique-79"/>
      <path d="M 30.421875 75.984375 
L 30.421875 -13.1875 
L 9.71875 -13.1875 
L 9.71875 -6.203125 
L 21.390625 -6.203125 
L 21.390625 69 
L 9.71875 69 
L 9.71875 75.984375 
z
" id="DejaVuSans-93"/>
      <path id="DejaVuSans-32"/>
      <path d="M 31 75.875 
Q 24.46875 64.65625 21.28125 53.65625 
Q 18.109375 42.671875 18.109375 31.390625 
Q 18.109375 20.125 21.3125 9.0625 
Q 24.515625 -2 31 -13.1875 
L 23.1875 -13.1875 
Q 15.875 -1.703125 12.234375 9.375 
Q 8.59375 20.453125 8.59375 31.390625 
Q 8.59375 42.28125 12.203125 53.3125 
Q 15.828125 64.359375 23.1875 75.875 
z
" id="DejaVuSans-40"/>
      <path d="M 72.703125 32.078125 
Q 68.453125 32.078125 66.03125 28.46875 
Q 63.625 24.859375 63.625 18.40625 
Q 63.625 12.0625 66.03125 8.421875 
Q 68.453125 4.78125 72.703125 4.78125 
Q 76.859375 4.78125 79.265625 8.421875 
Q 81.6875 12.0625 81.6875 18.40625 
Q 81.6875 24.8125 79.265625 28.4375 
Q 76.859375 32.078125 72.703125 32.078125 
z
M 72.703125 38.28125 
Q 80.421875 38.28125 84.953125 32.90625 
Q 89.5 27.546875 89.5 18.40625 
Q 89.5 9.28125 84.9375 3.921875 
Q 80.375 -1.421875 72.703125 -1.421875 
Q 64.890625 -1.421875 60.34375 3.921875 
Q 55.8125 9.28125 55.8125 18.40625 
Q 55.8125 27.59375 60.375 32.9375 
Q 64.9375 38.28125 72.703125 38.28125 
z
M 22.3125 68.015625 
Q 18.109375 68.015625 15.6875 64.375 
Q 13.28125 60.75 13.28125 54.390625 
Q 13.28125 47.953125 15.671875 44.328125 
Q 18.0625 40.71875 22.3125 40.71875 
Q 26.5625 40.71875 28.96875 44.328125 
Q 31.390625 47.953125 31.390625 54.390625 
Q 31.390625 60.6875 28.953125 64.34375 
Q 26.515625 68.015625 22.3125 68.015625 
z
M 66.40625 74.21875 
L 74.21875 74.21875 
L 28.609375 -1.421875 
L 20.796875 -1.421875 
z
M 22.3125 74.21875 
Q 30.03125 74.21875 34.609375 68.875 
Q 39.203125 63.53125 39.203125 54.390625 
Q 39.203125 45.171875 34.640625 39.84375 
Q 30.078125 34.515625 22.3125 34.515625 
Q 14.546875 34.515625 10.03125 39.859375 
Q 5.515625 45.21875 5.515625 54.390625 
Q 5.515625 63.484375 10.046875 68.84375 
Q 14.59375 74.21875 22.3125 74.21875 
z
" id="DejaVuSans-37"/>
      <path d="M 34.28125 27.484375 
Q 23.390625 27.484375 19.1875 25 
Q 14.984375 22.515625 14.984375 16.5 
Q 14.984375 11.71875 18.140625 8.90625 
Q 21.296875 6.109375 26.703125 6.109375 
Q 34.1875 6.109375 38.703125 11.40625 
Q 43.21875 16.703125 43.21875 25.484375 
L 43.21875 27.484375 
z
M 52.203125 31.203125 
L 52.203125 0 
L 43.21875 0 
L 43.21875 8.296875 
Q 40.140625 3.328125 35.546875 0.953125 
Q 30.953125 -1.421875 24.3125 -1.421875 
Q 15.921875 -1.421875 10.953125 3.296875 
Q 6 8.015625 6 15.921875 
Q 6 25.140625 12.171875 29.828125 
Q 18.359375 34.515625 30.609375 34.515625 
L 43.21875 34.515625 
L 43.21875 35.40625 
Q 43.21875 41.609375 39.140625 45 
Q 35.0625 48.390625 27.6875 48.390625 
Q 23 48.390625 18.546875 47.265625 
Q 14.109375 46.140625 10.015625 43.890625 
L 10.015625 52.203125 
Q 14.9375 54.109375 19.578125 55.046875 
Q 24.21875 56 28.609375 56 
Q 40.484375 56 46.34375 49.84375 
Q 52.203125 43.703125 52.203125 31.203125 
z
" id="DejaVuSans-97"/>
      <path d="M 9.421875 54.6875 
L 18.40625 54.6875 
L 18.40625 0 
L 9.421875 0 
z
M 9.421875 75.984375 
L 18.40625 75.984375 
L 18.40625 64.59375 
L 9.421875 64.59375 
z
" id="DejaVuSans-105"/>
      <path d="M 41.109375 46.296875 
Q 39.59375 47.171875 37.8125 47.578125 
Q 36.03125 48 33.890625 48 
Q 26.265625 48 22.1875 43.046875 
Q 18.109375 38.09375 18.109375 28.8125 
L 18.109375 0 
L 9.078125 0 
L 9.078125 54.6875 
L 18.109375 54.6875 
L 18.109375 46.1875 
Q 20.953125 51.171875 25.484375 53.578125 
Q 30.03125 56 36.53125 56 
Q 37.453125 56 38.578125 55.875 
Q 39.703125 55.765625 41.0625 55.515625 
z
" id="DejaVuSans-114"/>
      <path d="M 8.015625 75.875 
L 15.828125 75.875 
Q 23.140625 64.359375 26.78125 53.3125 
Q 30.421875 42.28125 30.421875 31.390625 
Q 30.421875 20.453125 26.78125 9.375 
Q 23.140625 -1.703125 15.828125 -13.1875 
L 8.015625 -13.1875 
Q 14.5 -2 17.703125 9.0625 
Q 20.90625 20.125 20.90625 31.390625 
Q 20.90625 42.671875 17.703125 53.65625 
Q 14.5 64.65625 8.015625 75.875 
z
" id="DejaVuSans-41"/>
     </defs>
     <g transform="translate(210.439091 323.72375)scale(0.16 -0.16)">
      <use transform="translate(0 0.015625)" xlink:href="#DejaVuSans-65"/>
      <use transform="translate(68.408203 0.015625)" xlink:href="#DejaVuSans-69"/>
      <use transform="translate(132.548828 -16.390625)scale(0.7)" xlink:href="#DejaVuSans-91"/>
      <use transform="translate(159.858398 -16.390625)scale(0.7)" xlink:href="#DejaVuSans-Oblique-79"/>
      <use transform="translate(214.956055 -27.875)scale(0.49)" xlink:href="#DejaVuSans-50"/>
      <use transform="translate(248.04541 -16.390625)scale(0.7)" xlink:href="#DejaVuSans-93"/>
      <use transform="translate(278.089355 0.015625)" xlink:href="#DejaVuSans-32"/>
      <use transform="translate(309.876465 0.015625)" xlink:href="#DejaVuSans-40"/>
      <use transform="translate(348.890137 0.015625)" xlink:href="#DejaVuSans-37"/>
      <use transform="translate(443.909668 0.015625)" xlink:href="#DejaVuSans-32"/>
      <use transform="translate(475.696777 0.015625)" xlink:href="#DejaVuSans-97"/>
      <use transform="translate(536.976074 0.015625)" xlink:href="#DejaVuSans-105"/>
      <use transform="translate(564.759277 0.015625)" xlink:href="#DejaVuSans-114"/>
      <use transform="translate(605.872559 0.015625)" xlink:href="#DejaVuSans-41"/>
     </g>
    </g>
   </g>
   <g id="matplotlib.axis_2">
    <g id="ytick_1">
     <g id="line2d_8">
      <defs>
       <path d="M 0 0 
L -3.5 0 
" id="m0fe4b66220" style="stroke:#000000;stroke-width:0.8;"/>
      </defs>
      <g>
       <use style="stroke:#000000;stroke-width:0.8;" x="59.13" xlink:href="#m0fe4b66220" y="285.07875"/>
      </g>
     </g>
     <g id="text_9">
      <!-- 0.0 -->
      <g transform="translate(26.685 291.1575)scale(0.16 -0.16)">
       <use xlink:href="#DejaVuSans-48"/>
       <use x="63.623047" xlink:href="#DejaVuSans-46"/>
       <use x="95.410156" xlink:href="#DejaVuSans-48"/>
      </g>
     </g>
    </g>
    <g id="ytick_2">
     <g id="line2d_9">
      <g>
       <use style="stroke:#000000;stroke-width:0.8;" x="59.13" xlink:href="#m0fe4b66220" y="239.77875"/>
      </g>
     </g>
     <g id="text_10">
      <!-- 0.5 -->
      <g transform="translate(26.685 245.8575)scale(0.16 -0.16)">
       <use xlink:href="#DejaVuSans-48"/>
       <use x="63.623047" xlink:href="#DejaVuSans-46"/>
       <use x="95.410156" xlink:href="#DejaVuSans-53"/>
      </g>
     </g>
    </g>
    <g id="ytick_3">
     <g id="line2d_10">
      <g>
       <use style="stroke:#000000;stroke-width:0.8;" x="59.13" xlink:href="#m0fe4b66220" y="194.47875"/>
      </g>
     </g>
     <g id="text_11">
      <!-- 1.0 -->
      <g transform="translate(26.685 200.5575)scale(0.16 -0.16)">
       <use xlink:href="#DejaVuSans-49"/>
       <use x="63.623047" xlink:href="#DejaVuSans-46"/>
       <use x="95.410156" xlink:href="#DejaVuSans-48"/>
      </g>
     </g>
    </g>
    <g id="ytick_4">
     <g id="line2d_11">
      <g>
       <use style="stroke:#000000;stroke-width:0.8;" x="59.13" xlink:href="#m0fe4b66220" y="149.17875"/>
      </g>
     </g>
     <g id="text_12">
      <!-- 1.5 -->
      <g transform="translate(26.685 155.2575)scale(0.16 -0.16)">
       <use xlink:href="#DejaVuSans-49"/>
       <use x="63.623047" xlink:href="#DejaVuSans-46"/>
       <use x="95.410156" xlink:href="#DejaVuSans-53"/>
      </g>
     </g>
    </g>
    <g id="ytick_5">
     <g id="line2d_12">
      <g>
       <use style="stroke:#000000;stroke-width:0.8;" x="59.13" xlink:href="#m0fe4b66220" y="103.87875"/>
      </g>
     </g>
     <g id="text_13">
      <!-- 2.0 -->
      <g transform="translate(26.685 109.9575)scale(0.16 -0.16)">
       <use xlink:href="#DejaVuSans-50"/>
       <use x="63.623047" xlink:href="#DejaVuSans-46"/>
       <use x="95.410156" xlink:href="#DejaVuSans-48"/>
      </g>
     </g>
    </g>
    <g id="ytick_6">
     <g id="line2d_13">
      <g>
       <use style="stroke:#000000;stroke-width:0.8;" x="59.13" xlink:href="#m0fe4b66220" y="58.57875"/>
      </g>
     </g>
     <g id="text_14">
      <!-- 2.5 -->
      <g transform="translate(26.685 64.6575)scale(0.16 -0.16)">
       <use xlink:href="#DejaVuSans-50"/>
       <use x="63.623047" xlink:href="#DejaVuSans-46"/>
       <use x="95.410156" xlink:href="#DejaVuSans-53"/>
      </g>
     </g>
    </g>
    <g id="ytick_7">
     <g id="line2d_14">
      <g>
       <use style="stroke:#000000;stroke-width:0.8;" x="59.13" xlink:href="#m0fe4b66220" y="13.27875"/>
      </g>
     </g>
     <g id="text_15">
      <!-- 3.0 -->
      <g transform="translate(26.685 19.3575)scale(0.16 -0.16)">
       <use xlink:href="#DejaVuSans-51"/>
       <use x="63.623047" xlink:href="#DejaVuSans-46"/>
       <use x="95.410156" xlink:href="#DejaVuSans-48"/>
      </g>
     </g>
    </g>
    <g id="text_16">
     <!-- Counts (normalized) -->
     <defs>
      <path d="M 64.40625 67.28125 
L 64.40625 56.890625 
Q 59.421875 61.53125 53.78125 63.8125 
Q 48.140625 66.109375 41.796875 66.109375 
Q 29.296875 66.109375 22.65625 58.46875 
Q 16.015625 50.828125 16.015625 36.375 
Q 16.015625 21.96875 22.65625 14.328125 
Q 29.296875 6.6875 41.796875 6.6875 
Q 48.140625 6.6875 53.78125 8.984375 
Q 59.421875 11.28125 64.40625 15.921875 
L 64.40625 5.609375 
Q 59.234375 2.09375 53.4375 0.328125 
Q 47.65625 -1.421875 41.21875 -1.421875 
Q 24.65625 -1.421875 15.125 8.703125 
Q 5.609375 18.84375 5.609375 36.375 
Q 5.609375 53.953125 15.125 64.078125 
Q 24.65625 74.21875 41.21875 74.21875 
Q 47.75 74.21875 53.53125 72.484375 
Q 59.328125 70.75 64.40625 67.28125 
z
" id="DejaVuSans-67"/>
      <path d="M 30.609375 48.390625 
Q 23.390625 48.390625 19.1875 42.75 
Q 14.984375 37.109375 14.984375 27.296875 
Q 14.984375 17.484375 19.15625 11.84375 
Q 23.34375 6.203125 30.609375 6.203125 
Q 37.796875 6.203125 41.984375 11.859375 
Q 46.1875 17.53125 46.1875 27.296875 
Q 46.1875 37.015625 41.984375 42.703125 
Q 37.796875 48.390625 30.609375 48.390625 
z
M 30.609375 56 
Q 42.328125 56 49.015625 48.375 
Q 55.71875 40.765625 55.71875 27.296875 
Q 55.71875 13.875 49.015625 6.21875 
Q 42.328125 -1.421875 30.609375 -1.421875 
Q 18.84375 -1.421875 12.171875 6.21875 
Q 5.515625 13.875 5.515625 27.296875 
Q 5.515625 40.765625 12.171875 48.375 
Q 18.84375 56 30.609375 56 
z
" id="DejaVuSans-111"/>
      <path d="M 8.5 21.578125 
L 8.5 54.6875 
L 17.484375 54.6875 
L 17.484375 21.921875 
Q 17.484375 14.15625 20.5 10.265625 
Q 23.53125 6.390625 29.59375 6.390625 
Q 36.859375 6.390625 41.078125 11.03125 
Q 45.3125 15.671875 45.3125 23.6875 
L 45.3125 54.6875 
L 54.296875 54.6875 
L 54.296875 0 
L 45.3125 0 
L 45.3125 8.40625 
Q 42.046875 3.421875 37.71875 1 
Q 33.40625 -1.421875 27.6875 -1.421875 
Q 18.265625 -1.421875 13.375 4.4375 
Q 8.5 10.296875 8.5 21.578125 
z
M 31.109375 56 
z
" id="DejaVuSans-117"/>
      <path d="M 54.890625 33.015625 
L 54.890625 0 
L 45.90625 0 
L 45.90625 32.71875 
Q 45.90625 40.484375 42.875 44.328125 
Q 39.84375 48.1875 33.796875 48.1875 
Q 26.515625 48.1875 22.3125 43.546875 
Q 18.109375 38.921875 18.109375 30.90625 
L 18.109375 0 
L 9.078125 0 
L 9.078125 54.6875 
L 18.109375 54.6875 
L 18.109375 46.1875 
Q 21.34375 51.125 25.703125 53.5625 
Q 30.078125 56 35.796875 56 
Q 45.21875 56 50.046875 50.171875 
Q 54.890625 44.34375 54.890625 33.015625 
z
" id="DejaVuSans-110"/>
      <path d="M 18.3125 70.21875 
L 18.3125 54.6875 
L 36.8125 54.6875 
L 36.8125 47.703125 
L 18.3125 47.703125 
L 18.3125 18.015625 
Q 18.3125 11.328125 20.140625 9.421875 
Q 21.96875 7.515625 27.59375 7.515625 
L 36.8125 7.515625 
L 36.8125 0 
L 27.59375 0 
Q 17.1875 0 13.234375 3.875 
Q 9.28125 7.765625 9.28125 18.015625 
L 9.28125 47.703125 
L 2.6875 47.703125 
L 2.6875 54.6875 
L 9.28125 54.6875 
L 9.28125 70.21875 
z
" id="DejaVuSans-116"/>
      <path d="M 44.28125 53.078125 
L 44.28125 44.578125 
Q 40.484375 46.53125 36.375 47.5 
Q 32.28125 48.484375 27.875 48.484375 
Q 21.1875 48.484375 17.84375 46.4375 
Q 14.5 44.390625 14.5 40.28125 
Q 14.5 37.15625 16.890625 35.375 
Q 19.28125 33.59375 26.515625 31.984375 
L 29.59375 31.296875 
Q 39.15625 29.25 43.1875 25.515625 
Q 47.21875 21.78125 47.21875 15.09375 
Q 47.21875 7.46875 41.1875 3.015625 
Q 35.15625 -1.421875 24.609375 -1.421875 
Q 20.21875 -1.421875 15.453125 -0.5625 
Q 10.6875 0.296875 5.421875 2 
L 5.421875 11.28125 
Q 10.40625 8.6875 15.234375 7.390625 
Q 20.0625 6.109375 24.8125 6.109375 
Q 31.15625 6.109375 34.5625 8.28125 
Q 37.984375 10.453125 37.984375 14.40625 
Q 37.984375 18.0625 35.515625 20.015625 
Q 33.0625 21.96875 24.703125 23.78125 
L 21.578125 24.515625 
Q 13.234375 26.265625 9.515625 29.90625 
Q 5.8125 33.546875 5.8125 39.890625 
Q 5.8125 47.609375 11.28125 51.796875 
Q 16.75 56 26.8125 56 
Q 31.78125 56 36.171875 55.265625 
Q 40.578125 54.546875 44.28125 53.078125 
z
" id="DejaVuSans-115"/>
      <path d="M 52 44.1875 
Q 55.375 50.25 60.0625 53.125 
Q 64.75 56 71.09375 56 
Q 79.640625 56 84.28125 50.015625 
Q 88.921875 44.046875 88.921875 33.015625 
L 88.921875 0 
L 79.890625 0 
L 79.890625 32.71875 
Q 79.890625 40.578125 77.09375 44.375 
Q 74.3125 48.1875 68.609375 48.1875 
Q 61.625 48.1875 57.5625 43.546875 
Q 53.515625 38.921875 53.515625 30.90625 
L 53.515625 0 
L 44.484375 0 
L 44.484375 32.71875 
Q 44.484375 40.625 41.703125 44.40625 
Q 38.921875 48.1875 33.109375 48.1875 
Q 26.21875 48.1875 22.15625 43.53125 
Q 18.109375 38.875 18.109375 30.90625 
L 18.109375 0 
L 9.078125 0 
L 9.078125 54.6875 
L 18.109375 54.6875 
L 18.109375 46.1875 
Q 21.1875 51.21875 25.484375 53.609375 
Q 29.78125 56 35.6875 56 
Q 41.65625 56 45.828125 52.96875 
Q 50 49.953125 52 44.1875 
z
" id="DejaVuSans-109"/>
      <path d="M 9.421875 75.984375 
L 18.40625 75.984375 
L 18.40625 0 
L 9.421875 0 
z
" id="DejaVuSans-108"/>
      <path d="M 5.515625 54.6875 
L 48.1875 54.6875 
L 48.1875 46.484375 
L 14.40625 7.171875 
L 48.1875 7.171875 
L 48.1875 0 
L 4.296875 0 
L 4.296875 8.203125 
L 38.09375 47.515625 
L 5.515625 47.515625 
z
" id="DejaVuSans-122"/>
      <path d="M 56.203125 29.59375 
L 56.203125 25.203125 
L 14.890625 25.203125 
Q 15.484375 15.921875 20.484375 11.0625 
Q 25.484375 6.203125 34.421875 6.203125 
Q 39.59375 6.203125 44.453125 7.46875 
Q 49.3125 8.734375 54.109375 11.28125 
L 54.109375 2.78125 
Q 49.265625 0.734375 44.1875 -0.34375 
Q 39.109375 -1.421875 33.890625 -1.421875 
Q 20.796875 -1.421875 13.15625 6.1875 
Q 5.515625 13.8125 5.515625 26.8125 
Q 5.515625 40.234375 12.765625 48.109375 
Q 20.015625 56 32.328125 56 
Q 43.359375 56 49.78125 48.890625 
Q 56.203125 41.796875 56.203125 29.59375 
z
M 47.21875 32.234375 
Q 47.125 39.59375 43.09375 43.984375 
Q 39.0625 48.390625 32.421875 48.390625 
Q 24.90625 48.390625 20.390625 44.140625 
Q 15.875 39.890625 15.1875 32.171875 
z
" id="DejaVuSans-101"/>
      <path d="M 45.40625 46.390625 
L 45.40625 75.984375 
L 54.390625 75.984375 
L 54.390625 0 
L 45.40625 0 
L 45.40625 8.203125 
Q 42.578125 3.328125 38.25 0.953125 
Q 33.9375 -1.421875 27.875 -1.421875 
Q 17.96875 -1.421875 11.734375 6.484375 
Q 5.515625 14.40625 5.515625 27.296875 
Q 5.515625 40.1875 11.734375 48.09375 
Q 17.96875 56 27.875 56 
Q 33.9375 56 38.25 53.625 
Q 42.578125 51.265625 45.40625 46.390625 
z
M 14.796875 27.296875 
Q 14.796875 17.390625 18.875 11.75 
Q 22.953125 6.109375 30.078125 6.109375 
Q 37.203125 6.109375 41.296875 11.75 
Q 45.40625 17.390625 45.40625 27.296875 
Q 45.40625 37.203125 41.296875 42.84375 
Q 37.203125 48.484375 30.078125 48.484375 
Q 22.953125 48.484375 18.875 42.84375 
Q 14.796875 37.203125 14.796875 27.296875 
z
" id="DejaVuSans-100"/>
     </defs>
     <g transform="translate(19.3575 230.48125)rotate(-90)scale(0.16 -0.16)">
      <use xlink:href="#DejaVuSans-67"/>
      <use x="69.824219" xlink:href="#DejaVuSans-111"/>
      <use x="131.005859" xlink:href="#DejaVuSans-117"/>
      <use x="194.384766" xlink:href="#DejaVuSans-110"/>
      <use x="257.763672" xlink:href="#DejaVuSans-116"/>
      <use x="296.972656" xlink:href="#DejaVuSans-115"/>
      <use x="349.072266" xlink:href="#DejaVuSans-32"/>
      <use x="380.859375" xlink:href="#DejaVuSans-40"/>
      <use x="419.873047" xlink:href="#DejaVuSans-110"/>
      <use x="483.251953" xlink:href="#DejaVuSans-111"/>
      <use x="544.433594" xlink:href="#DejaVuSans-114"/>
      <use x="585.53125" xlink:href="#DejaVuSans-109"/>
      <use x="682.943359" xlink:href="#DejaVuSans-97"/>
      <use x="744.222656" xlink:href="#DejaVuSans-108"/>
      <use x="772.005859" xlink:href="#DejaVuSans-105"/>
      <use x="799.789062" xlink:href="#DejaVuSans-122"/>
      <use x="852.279297" xlink:href="#DejaVuSans-101"/>
      <use x="913.802734" xlink:href="#DejaVuSans-100"/>
      <use x="977.279297" xlink:href="#DejaVuSans-41"/>
     </g>
    </g>
   </g>
   <g id="line2d_15">
    <path clip-path="url(#p983db0219b)" d="M 33.453152 284.761956 
L 35.771068 284.337304 
L 38.088985 283.45681 
L 40.406902 281.760241 
L 42.724818 278.723084 
L 45.042735 273.673165 
L 47.360652 265.877489 
L 49.678568 254.710037 
L 51.996485 239.874837 
L 54.314401 221.615464 
L 56.632318 200.817464 
L 58.950235 178.928243 
L 61.268151 157.683934 
L 63.586068 138.718752 
L 65.903984 123.193826 
L 68.221901 111.582186 
L 70.539818 103.680966 
L 72.857734 98.824922 
L 75.175651 96.197186 
L 77.493567 95.109901 
L 79.811484 95.16262 
L 82.129401 96.254216 
L 84.447317 98.487328 
L 86.765234 102.035071 
L 89.08315 107.031173 
L 91.401067 113.510811 
L 93.718984 121.394572 
L 96.0369 130.49175 
L 98.354817 140.505979 
L 100.672733 151.044335 
L 102.99065 161.643124 
L 105.308567 171.819466 
L 107.626483 181.141702 
L 109.9444 189.297347 
L 112.262317 196.135924 
L 114.580233 201.675719 
L 116.89815 206.078275 
L 119.216066 209.602452 
L 121.533983 212.549404 
L 123.8519 215.207016 
L 126.169816 217.802945 
L 128.487733 220.477867 
L 130.805649 223.28807 
L 133.123566 226.235237 
L 135.441483 229.306709 
L 137.759399 232.503037 
L 140.077316 235.838288 
L 142.395232 239.317279 
L 144.713149 242.909071 
L 147.031066 246.536457 
L 149.348982 250.087835 
L 151.666899 253.442336 
L 153.984815 256.49349 
L 156.302732 259.163296 
L 158.620649 261.409292 
L 160.938565 263.231597 
L 163.256482 264.681598 
L 165.574398 265.865025 
L 167.892315 266.928882 
L 170.210232 268.02837 
L 172.528148 269.282367 
L 174.846065 270.7352 
L 177.163981 272.34193 
L 179.481898 273.984228 
L 181.799815 275.510532 
L 184.117731 276.78462 
L 186.435648 277.725245 
L 188.753565 278.324942 
L 191.071481 278.644923 
L 193.389398 278.790845 
L 195.707314 278.87911 
L 198.025231 279.004725 
L 200.343148 279.21998 
L 202.661064 279.529025 
L 204.978981 279.897836 
L 207.296897 280.274056 
L 209.614814 280.608642 
L 211.932731 280.871989 
L 214.250647 281.060463 
L 216.568564 281.193212 
L 218.88648 281.302272 
L 221.204397 281.420585 
L 223.522314 281.572424 
L 225.84023 281.769125 
L 228.158147 282.010429 
L 230.476063 282.289217 
L 232.79398 282.596301 
L 235.111897 282.922781 
L 237.429813 283.259585 
L 239.74773 283.595796 
L 242.065646 283.917937 
L 244.383563 284.211366 
L 246.70148 284.463308 
L 249.019396 284.665926 
L 251.337313 284.817902 
L 253.65523 284.923931 
L 255.973146 284.992628 
L 258.291063 285.033926 
L 260.608979 285.056951 
L 262.926896 285.068854 
" style="fill:none;stroke:#000000;stroke-linecap:square;stroke-width:3;"/>
   </g>
   <g id="line2d_16">
    <path clip-path="url(#p983db0219b)" d="M 97.369775 285.07875 
L 97.369775 140.11875 
" style="fill:none;stroke:#000000;stroke-dasharray:7.4,3.2;stroke-dashoffset:0;stroke-width:2;"/>
   </g>
   <g id="patch_24">
    <path d="M 59.13 285.07875 
L 59.13 13.27875 
" style="fill:none;stroke:#000000;stroke-linecap:square;stroke-linejoin:miter;stroke-width:0.8;"/>
   </g>
   <g id="patch_25">
    <path d="M 464.948182 285.07875 
L 464.948182 13.27875 
" style="fill:none;stroke:#000000;stroke-linecap:square;stroke-linejoin:miter;stroke-width:0.8;"/>
   </g>
   <g id="patch_26">
    <path d="M 59.13 285.07875 
L 464.948182 285.07875 
" style="fill:none;stroke:#000000;stroke-linecap:square;stroke-linejoin:miter;stroke-width:0.8;"/>
   </g>
   <g id="patch_27">
    <path d="M 59.13 13.27875 
L 464.948182 13.27875 
" style="fill:none;stroke:#000000;stroke-linecap:square;stroke-linejoin:miter;stroke-width:0.8;"/>
   </g>
   <g id="legend_1">
    <g id="patch_28">
     <path d="M 271.828182 99.99375 
L 453.748182 99.99375 
Q 456.948182 99.99375 456.948182 96.79375 
L 456.948182 24.47875 
Q 456.948182 21.27875 453.748182 21.27875 
L 271.828182 21.27875 
Q 268.628182 21.27875 268.628182 24.47875 
L 268.628182 96.79375 
Q 268.628182 99.99375 271.828182 99.99375 
z
" style="fill:#ffffff;opacity:0.8;stroke:#cccccc;stroke-linejoin:miter;"/>
    </g>
    <g id="patch_29">
     <path d="M 275.028182 39.83875 
L 307.028182 39.83875 
L 307.028182 28.63875 
L 275.028182 28.63875 
z
" style="fill:#d3d3d3;stroke:#d3d3d3;stroke-linejoin:miter;"/>
    </g>
    <g id="text_17">
     <!-- AE$_{[O_2]}$ histogram -->
     <defs>
      <path d="M 54.890625 33.015625 
L 54.890625 0 
L 45.90625 0 
L 45.90625 32.71875 
Q 45.90625 40.484375 42.875 44.328125 
Q 39.84375 48.1875 33.796875 48.1875 
Q 26.515625 48.1875 22.3125 43.546875 
Q 18.109375 38.921875 18.109375 30.90625 
L 18.109375 0 
L 9.078125 0 
L 9.078125 75.984375 
L 18.109375 75.984375 
L 18.109375 46.1875 
Q 21.34375 51.125 25.703125 53.5625 
Q 30.078125 56 35.796875 56 
Q 45.21875 56 50.046875 50.171875 
Q 54.890625 44.34375 54.890625 33.015625 
z
" id="DejaVuSans-104"/>
      <path d="M 45.40625 27.984375 
Q 45.40625 37.75 41.375 43.109375 
Q 37.359375 48.484375 30.078125 48.484375 
Q 22.859375 48.484375 18.828125 43.109375 
Q 14.796875 37.75 14.796875 27.984375 
Q 14.796875 18.265625 18.828125 12.890625 
Q 22.859375 7.515625 30.078125 7.515625 
Q 37.359375 7.515625 41.375 12.890625 
Q 45.40625 18.265625 45.40625 27.984375 
z
M 54.390625 6.78125 
Q 54.390625 -7.171875 48.1875 -13.984375 
Q 42 -20.796875 29.203125 -20.796875 
Q 24.46875 -20.796875 20.265625 -20.09375 
Q 16.0625 -19.390625 12.109375 -17.921875 
L 12.109375 -9.1875 
Q 16.0625 -11.328125 19.921875 -12.34375 
Q 23.78125 -13.375 27.78125 -13.375 
Q 36.625 -13.375 41.015625 -8.765625 
Q 45.40625 -4.15625 45.40625 5.171875 
L 45.40625 9.625 
Q 42.625 4.78125 38.28125 2.390625 
Q 33.9375 0 27.875 0 
Q 17.828125 0 11.671875 7.65625 
Q 5.515625 15.328125 5.515625 27.984375 
Q 5.515625 40.671875 11.671875 48.328125 
Q 17.828125 56 27.875 56 
Q 33.9375 56 38.28125 53.609375 
Q 42.625 51.21875 45.40625 46.390625 
L 45.40625 54.6875 
L 54.390625 54.6875 
z
" id="DejaVuSans-103"/>
     </defs>
     <g transform="translate(319.828182 39.83875)scale(0.16 -0.16)">
      <use transform="translate(0 0.015625)" xlink:href="#DejaVuSans-65"/>
      <use transform="translate(68.408203 0.015625)" xlink:href="#DejaVuSans-69"/>
      <use transform="translate(132.548828 -16.390625)scale(0.7)" xlink:href="#DejaVuSans-91"/>
      <use transform="translate(159.858398 -16.390625)scale(0.7)" xlink:href="#DejaVuSans-Oblique-79"/>
      <use transform="translate(214.956055 -27.875)scale(0.49)" xlink:href="#DejaVuSans-50"/>
      <use transform="translate(248.04541 -16.390625)scale(0.7)" xlink:href="#DejaVuSans-93"/>
      <use transform="translate(278.089355 0.015625)" xlink:href="#DejaVuSans-32"/>
      <use transform="translate(309.876465 0.015625)" xlink:href="#DejaVuSans-104"/>
      <use transform="translate(373.255371 0.015625)" xlink:href="#DejaVuSans-105"/>
      <use transform="translate(401.038574 0.015625)" xlink:href="#DejaVuSans-115"/>
      <use transform="translate(453.138184 0.015625)" xlink:href="#DejaVuSans-116"/>
      <use transform="translate(492.347168 0.015625)" xlink:href="#DejaVuSans-111"/>
      <use transform="translate(553.528809 0.015625)" xlink:href="#DejaVuSans-103"/>
      <use transform="translate(617.005371 0.015625)" xlink:href="#DejaVuSans-114"/>
      <use transform="translate(658.118652 0.015625)" xlink:href="#DejaVuSans-97"/>
      <use transform="translate(719.397949 0.015625)" xlink:href="#DejaVuSans-109"/>
     </g>
    </g>
    <g id="line2d_17">
     <path d="M 275.028182 58.87625 
L 307.028182 58.87625 
" style="fill:none;stroke:#000000;stroke-dasharray:7.4,3.2;stroke-dashoffset:0;stroke-width:2;"/>
    </g>
    <g id="line2d_18"/>
    <g id="text_18">
     <!-- MAE$_{[O_2]}$ -->
     <defs>
      <path d="M 9.8125 72.90625 
L 24.515625 72.90625 
L 43.109375 23.296875 
L 61.8125 72.90625 
L 76.515625 72.90625 
L 76.515625 0 
L 66.890625 0 
L 66.890625 64.015625 
L 48.09375 14.015625 
L 38.1875 14.015625 
L 19.390625 64.015625 
L 19.390625 0 
L 9.8125 0 
z
" id="DejaVuSans-77"/>
     </defs>
     <g transform="translate(319.828182 64.47625)scale(0.16 -0.16)">
      <use transform="translate(0 0.09375)" xlink:href="#DejaVuSans-77"/>
      <use transform="translate(86.279297 0.09375)" xlink:href="#DejaVuSans-65"/>
      <use transform="translate(154.6875 0.09375)" xlink:href="#DejaVuSans-69"/>
      <use transform="translate(218.828125 -16.3125)scale(0.7)" xlink:href="#DejaVuSans-91"/>
      <use transform="translate(246.137695 -16.3125)scale(0.7)" xlink:href="#DejaVuSans-Oblique-79"/>
      <use transform="translate(301.235352 -27.796875)scale(0.49)" xlink:href="#DejaVuSans-50"/>
      <use transform="translate(334.324707 -16.3125)scale(0.7)" xlink:href="#DejaVuSans-93"/>
     </g>
    </g>
    <g id="line2d_19">
     <path d="M 275.028182 83.51375 
L 307.028182 83.51375 
" style="fill:none;stroke:#000000;stroke-linecap:square;stroke-width:2;"/>
    </g>
    <g id="line2d_20"/>
    <g id="text_19">
     <!-- AE$_{[O_2]}$ KDE -->
     <defs>
      <path d="M 9.8125 72.90625 
L 19.671875 72.90625 
L 19.671875 42.09375 
L 52.390625 72.90625 
L 65.09375 72.90625 
L 28.90625 38.921875 
L 67.671875 0 
L 54.6875 0 
L 19.671875 35.109375 
L 19.671875 0 
L 9.8125 0 
z
" id="DejaVuSans-75"/>
      <path d="M 19.671875 64.796875 
L 19.671875 8.109375 
L 31.59375 8.109375 
Q 46.6875 8.109375 53.6875 14.9375 
Q 60.6875 21.78125 60.6875 36.53125 
Q 60.6875 51.171875 53.6875 57.984375 
Q 46.6875 64.796875 31.59375 64.796875 
z
M 9.8125 72.90625 
L 30.078125 72.90625 
Q 51.265625 72.90625 61.171875 64.09375 
Q 71.09375 55.28125 71.09375 36.53125 
Q 71.09375 17.671875 61.125 8.828125 
Q 51.171875 0 30.078125 0 
L 9.8125 0 
z
" id="DejaVuSans-68"/>
     </defs>
     <g transform="translate(319.828182 89.11375)scale(0.16 -0.16)">
      <use transform="translate(0 0.09375)" xlink:href="#DejaVuSans-65"/>
      <use transform="translate(68.408203 0.09375)" xlink:href="#DejaVuSans-69"/>
      <use transform="translate(132.548828 -16.3125)scale(0.7)" xlink:href="#DejaVuSans-91"/>
      <use transform="translate(159.858398 -16.3125)scale(0.7)" xlink:href="#DejaVuSans-Oblique-79"/>
      <use transform="translate(214.956055 -27.796875)scale(0.49)" xlink:href="#DejaVuSans-50"/>
      <use transform="translate(248.04541 -16.3125)scale(0.7)" xlink:href="#DejaVuSans-93"/>
      <use transform="translate(278.089355 0.09375)" xlink:href="#DejaVuSans-32"/>
      <use transform="translate(309.876465 0.09375)" xlink:href="#DejaVuSans-75"/>
      <use transform="translate(375.452637 0.09375)" xlink:href="#DejaVuSans-68"/>
      <use transform="translate(452.45459 0.09375)" xlink:href="#DejaVuSans-69"/>
     </g>
    </g>
   </g>
  </g>
  <g id="axes_2">
   <g id="patch_30">
    <path d="M 546.111818 285.07875 
L 951.93 285.07875 
L 951.93 13.27875 
L 546.111818 13.27875 
z
" style="fill:#ffffff;"/>
   </g>
   <g id="patch_31">
    <path clip-path="url(#p77415ed088)" d="M 546.155008 285.07875 
L 559.896346 285.07875 
L 559.896346 62.107211 
L 546.155008 62.107211 
z
" style="fill:#d3d3d3;"/>
   </g>
   <g id="patch_32">
    <path clip-path="url(#p77415ed088)" d="M 559.896346 285.07875 
L 573.637684 285.07875 
L 573.637684 88.533468 
L 559.896346 88.533468 
z
" style="fill:#d3d3d3;"/>
   </g>
   <g id="patch_33">
    <path clip-path="url(#p77415ed088)" d="M 573.637684 285.07875 
L 587.379022 285.07875 
L 587.379022 113.308083 
L 573.637684 113.308083 
z
" style="fill:#d3d3d3;"/>
   </g>
   <g id="patch_34">
    <path clip-path="url(#p77415ed088)" d="M 587.379022 285.07875 
L 601.12036 285.07875 
L 601.12036 151.295827 
L 587.379022 151.295827 
z
" style="fill:#d3d3d3;"/>
   </g>
   <g id="patch_35">
    <path clip-path="url(#p77415ed088)" d="M 601.12036 285.07875 
L 614.861698 285.07875 
L 614.861698 195.890134 
L 601.12036 195.890134 
z
" style="fill:#d3d3d3;"/>
   </g>
   <g id="patch_36">
    <path clip-path="url(#p77415ed088)" d="M 614.861698 285.07875 
L 628.603036 285.07875 
L 628.603036 202.496699 
L 614.861698 202.496699 
z
" style="fill:#d3d3d3;"/>
   </g>
   <g id="patch_37">
    <path clip-path="url(#p77415ed088)" d="M 628.603036 285.07875 
L 642.344374 285.07875 
L 642.344374 230.574596 
L 628.603036 230.574596 
z
" style="fill:#d3d3d3;"/>
   </g>
   <g id="patch_38">
    <path clip-path="url(#p77415ed088)" d="M 642.344374 285.07875 
L 656.085712 285.07875 
L 656.085712 252.045929 
L 642.344374 252.045929 
z
" style="fill:#d3d3d3;"/>
   </g>
   <g id="patch_39">
    <path clip-path="url(#p77415ed088)" d="M 656.085712 285.07875 
L 669.82705 285.07875 
L 669.82705 257.000853 
L 656.085712 257.000853 
z
" style="fill:#d3d3d3;"/>
   </g>
   <g id="patch_40">
    <path clip-path="url(#p77415ed088)" d="M 669.82705 285.07875 
L 683.568388 285.07875 
L 683.568388 227.271314 
L 669.82705 227.271314 
z
" style="fill:#d3d3d3;"/>
   </g>
   <g id="patch_41">
    <path clip-path="url(#p77415ed088)" d="M 683.568388 285.07875 
L 697.309726 285.07875 
L 697.309726 243.787724 
L 683.568388 243.787724 
z
" style="fill:#d3d3d3;"/>
   </g>
   <g id="patch_42">
    <path clip-path="url(#p77415ed088)" d="M 697.309726 285.07875 
L 711.051064 285.07875 
L 711.051064 257.000853 
L 697.309726 257.000853 
z
" style="fill:#d3d3d3;"/>
   </g>
   <g id="patch_43">
    <path clip-path="url(#p77415ed088)" d="M 711.051064 285.07875 
L 724.792402 285.07875 
L 724.792402 275.168904 
L 711.051064 275.168904 
z
" style="fill:#d3d3d3;"/>
   </g>
   <g id="patch_44">
    <path clip-path="url(#p77415ed088)" d="M 724.792402 285.07875 
L 738.53374 285.07875 
L 738.53374 271.865622 
L 724.792402 271.865622 
z
" style="fill:#d3d3d3;"/>
   </g>
   <g id="patch_45">
    <path clip-path="url(#p77415ed088)" d="M 738.53374 285.07875 
L 752.275078 285.07875 
L 752.275078 280.123827 
L 738.53374 280.123827 
z
" style="fill:#d3d3d3;"/>
   </g>
   <g id="patch_46">
    <path clip-path="url(#p77415ed088)" d="M 752.275078 285.07875 
L 766.016416 285.07875 
L 766.016416 283.427109 
L 752.275078 283.427109 
z
" style="fill:#d3d3d3;"/>
   </g>
   <g id="patch_47">
    <path clip-path="url(#p77415ed088)" d="M 766.016416 285.07875 
L 779.757754 285.07875 
L 779.757754 281.775468 
L 766.016416 281.775468 
z
" style="fill:#d3d3d3;"/>
   </g>
   <g id="patch_48">
    <path clip-path="url(#p77415ed088)" d="M 779.757754 285.07875 
L 793.499092 285.07875 
L 793.499092 283.427109 
L 779.757754 283.427109 
z
" style="fill:#d3d3d3;"/>
   </g>
   <g id="patch_49">
    <path clip-path="url(#p77415ed088)" d="M 793.499092 285.07875 
L 807.24043 285.07875 
L 807.24043 281.775468 
L 793.499092 281.775468 
z
" style="fill:#d3d3d3;"/>
   </g>
   <g id="patch_50">
    <path clip-path="url(#p77415ed088)" d="M 807.24043 285.07875 
L 820.981768 285.07875 
L 820.981768 285.07875 
L 807.24043 285.07875 
z
" style="fill:#d3d3d3;"/>
   </g>
   <g id="patch_51">
    <path clip-path="url(#p77415ed088)" d="M 820.981768 285.07875 
L 834.723106 285.07875 
L 834.723106 280.123827 
L 820.981768 280.123827 
z
" style="fill:#d3d3d3;"/>
   </g>
   <g id="patch_52">
    <path clip-path="url(#p77415ed088)" d="M 834.723106 285.07875 
L 848.464444 285.07875 
L 848.464444 283.427109 
L 834.723106 283.427109 
z
" style="fill:#d3d3d3;"/>
   </g>
   <g id="patch_53">
    <path clip-path="url(#p77415ed088)" d="M 848.464444 285.07875 
L 862.205782 285.07875 
L 862.205782 283.427109 
L 848.464444 283.427109 
z
" style="fill:#d3d3d3;"/>
   </g>
   <g id="patch_54">
    <path clip-path="url(#p77415ed088)" d="M 862.205782 285.07875 
L 875.94712 285.07875 
L 875.94712 283.427109 
L 862.205782 283.427109 
z
" style="fill:#d3d3d3;"/>
   </g>
   <g id="patch_55">
    <path clip-path="url(#p77415ed088)" d="M 875.94712 285.07875 
L 889.688458 285.07875 
L 889.688458 283.427109 
L 875.94712 283.427109 
z
" style="fill:#d3d3d3;"/>
   </g>
   <g id="matplotlib.axis_3">
    <g id="xtick_8">
     <g id="line2d_21">
      <g>
       <use style="stroke:#000000;stroke-width:0.8;" x="546.111818" xlink:href="#m78cfbbfd22" y="285.07875"/>
      </g>
     </g>
     <g id="text_20">
      <!-- 0 -->
      <g transform="translate(541.021818 304.23625)scale(0.16 -0.16)">
       <use xlink:href="#DejaVuSans-48"/>
      </g>
     </g>
    </g>
    <g id="xtick_9">
     <g id="line2d_22">
      <g>
       <use style="stroke:#000000;stroke-width:0.8;" x="636.293636" xlink:href="#m78cfbbfd22" y="285.07875"/>
      </g>
     </g>
     <g id="text_21">
      <!-- 1 -->
      <g transform="translate(631.203636 304.23625)scale(0.16 -0.16)">
       <use xlink:href="#DejaVuSans-49"/>
      </g>
     </g>
    </g>
    <g id="xtick_10">
     <g id="line2d_23">
      <g>
       <use style="stroke:#000000;stroke-width:0.8;" x="726.475455" xlink:href="#m78cfbbfd22" y="285.07875"/>
      </g>
     </g>
     <g id="text_22">
      <!-- 2 -->
      <g transform="translate(721.385455 304.23625)scale(0.16 -0.16)">
       <use xlink:href="#DejaVuSans-50"/>
      </g>
     </g>
    </g>
    <g id="xtick_11">
     <g id="line2d_24">
      <g>
       <use style="stroke:#000000;stroke-width:0.8;" x="816.657273" xlink:href="#m78cfbbfd22" y="285.07875"/>
      </g>
     </g>
     <g id="text_23">
      <!-- 3 -->
      <g transform="translate(811.567273 304.23625)scale(0.16 -0.16)">
       <use xlink:href="#DejaVuSans-51"/>
      </g>
     </g>
    </g>
    <g id="xtick_12">
     <g id="line2d_25">
      <g>
       <use style="stroke:#000000;stroke-width:0.8;" x="906.839091" xlink:href="#m78cfbbfd22" y="285.07875"/>
      </g>
     </g>
     <g id="text_24">
      <!-- 4 -->
      <defs>
       <path d="M 37.796875 64.3125 
L 12.890625 25.390625 
L 37.796875 25.390625 
z
M 35.203125 72.90625 
L 47.609375 72.90625 
L 47.609375 25.390625 
L 58.015625 25.390625 
L 58.015625 17.1875 
L 47.609375 17.1875 
L 47.609375 0 
L 37.796875 0 
L 37.796875 17.1875 
L 4.890625 17.1875 
L 4.890625 26.703125 
z
" id="DejaVuSans-52"/>
      </defs>
      <g transform="translate(901.749091 304.23625)scale(0.16 -0.16)">
       <use xlink:href="#DejaVuSans-52"/>
      </g>
     </g>
    </g>
    <g id="text_25">
     <!-- $AE_T$ ($^\circ$C) -->
     <defs>
      <path d="M 36.8125 72.90625 
L 48 72.90625 
L 61.53125 0 
L 51.21875 0 
L 48.1875 18.703125 
L 15.375 18.703125 
L 5.078125 0 
L -5.328125 0 
z
M 40.375 63.1875 
L 19.921875 26.90625 
L 46.6875 26.90625 
z
" id="DejaVuSans-Oblique-65"/>
      <path d="M 16.890625 72.90625 
L 62.984375 72.90625 
L 61.375 64.59375 
L 25.09375 64.59375 
L 20.90625 43.015625 
L 55.71875 43.015625 
L 54.109375 34.71875 
L 19.28125 34.71875 
L 14.203125 8.296875 
L 51.3125 8.296875 
L 49.703125 0 
L 2.6875 0 
z
" id="DejaVuSans-Oblique-69"/>
      <path d="M 5.90625 72.90625 
L 67.578125 72.90625 
L 66.015625 64.59375 
L 39.984375 64.59375 
L 27.484375 0 
L 17.578125 0 
L 30.078125 64.59375 
L 4.296875 64.59375 
z
" id="DejaVuSans-Oblique-84"/>
      <path d="M 31.25 40.921875 
Q 27.34375 40.921875 24.65625 38.203125 
Q 21.96875 35.5 21.96875 31.59375 
Q 21.96875 27.734375 24.65625 25.078125 
Q 27.34375 22.421875 31.25 22.421875 
Q 35.15625 22.421875 37.84375 25.078125 
Q 40.53125 27.734375 40.53125 31.59375 
Q 40.53125 35.453125 37.8125 38.1875 
Q 35.109375 40.921875 31.25 40.921875 
z
M 31.25 47.21875 
Q 34.375 47.21875 37.25 46.015625 
Q 40.140625 44.828125 42.234375 42.578125 
Q 44.484375 40.390625 45.609375 37.59375 
Q 46.734375 34.8125 46.734375 31.59375 
Q 46.734375 25.15625 42.21875 20.6875 
Q 37.703125 16.21875 31.15625 16.21875 
Q 24.5625 16.21875 20.15625 20.609375 
Q 15.765625 25 15.765625 31.59375 
Q 15.765625 38.140625 20.25 42.671875 
Q 24.75 47.21875 31.25 47.21875 
z
" id="DejaVuSans-8728"/>
     </defs>
     <g transform="translate(714.460909 323.72125)scale(0.16 -0.16)">
      <use transform="translate(0 0.125)" xlink:href="#DejaVuSans-Oblique-65"/>
      <use transform="translate(68.408203 0.125)" xlink:href="#DejaVuSans-Oblique-69"/>
      <use transform="translate(131.591797 -16.28125)scale(0.7)" xlink:href="#DejaVuSans-Oblique-84"/>
      <use transform="translate(177.084961 0.125)" xlink:href="#DejaVuSans-32"/>
      <use transform="translate(208.87207 0.125)" xlink:href="#DejaVuSans-40"/>
      <use transform="translate(262.480469 38.40625)scale(0.7)" xlink:href="#DejaVuSans-8728"/>
      <use transform="translate(322.670898 0.125)" xlink:href="#DejaVuSans-67"/>
      <use transform="translate(392.495117 0.125)" xlink:href="#DejaVuSans-41"/>
     </g>
    </g>
   </g>
   <g id="matplotlib.axis_4">
    <g id="ytick_8">
     <g id="line2d_26">
      <g>
       <use style="stroke:#000000;stroke-width:0.8;" x="546.111818" xlink:href="#m0fe4b66220" y="285.07875"/>
      </g>
     </g>
     <g id="text_26">
      <!-- 0.0 -->
      <g transform="translate(513.666818 291.1575)scale(0.16 -0.16)">
       <use xlink:href="#DejaVuSans-48"/>
       <use x="63.623047" xlink:href="#DejaVuSans-46"/>
       <use x="95.410156" xlink:href="#DejaVuSans-48"/>
      </g>
     </g>
    </g>
    <g id="ytick_9">
     <g id="line2d_27">
      <g>
       <use style="stroke:#000000;stroke-width:0.8;" x="546.111818" xlink:href="#m0fe4b66220" y="248.83875"/>
      </g>
     </g>
     <g id="text_27">
      <!-- 0.2 -->
      <g transform="translate(513.666818 254.9175)scale(0.16 -0.16)">
       <use xlink:href="#DejaVuSans-48"/>
       <use x="63.623047" xlink:href="#DejaVuSans-46"/>
       <use x="95.410156" xlink:href="#DejaVuSans-50"/>
      </g>
     </g>
    </g>
    <g id="ytick_10">
     <g id="line2d_28">
      <g>
       <use style="stroke:#000000;stroke-width:0.8;" x="546.111818" xlink:href="#m0fe4b66220" y="212.59875"/>
      </g>
     </g>
     <g id="text_28">
      <!-- 0.4 -->
      <g transform="translate(513.666818 218.6775)scale(0.16 -0.16)">
       <use xlink:href="#DejaVuSans-48"/>
       <use x="63.623047" xlink:href="#DejaVuSans-46"/>
       <use x="95.410156" xlink:href="#DejaVuSans-52"/>
      </g>
     </g>
    </g>
    <g id="ytick_11">
     <g id="line2d_29">
      <g>
       <use style="stroke:#000000;stroke-width:0.8;" x="546.111818" xlink:href="#m0fe4b66220" y="176.35875"/>
      </g>
     </g>
     <g id="text_29">
      <!-- 0.6 -->
      <defs>
       <path d="M 33.015625 40.375 
Q 26.375 40.375 22.484375 35.828125 
Q 18.609375 31.296875 18.609375 23.390625 
Q 18.609375 15.53125 22.484375 10.953125 
Q 26.375 6.390625 33.015625 6.390625 
Q 39.65625 6.390625 43.53125 10.953125 
Q 47.40625 15.53125 47.40625 23.390625 
Q 47.40625 31.296875 43.53125 35.828125 
Q 39.65625 40.375 33.015625 40.375 
z
M 52.59375 71.296875 
L 52.59375 62.3125 
Q 48.875 64.0625 45.09375 64.984375 
Q 41.3125 65.921875 37.59375 65.921875 
Q 27.828125 65.921875 22.671875 59.328125 
Q 17.53125 52.734375 16.796875 39.40625 
Q 19.671875 43.65625 24.015625 45.921875 
Q 28.375 48.1875 33.59375 48.1875 
Q 44.578125 48.1875 50.953125 41.515625 
Q 57.328125 34.859375 57.328125 23.390625 
Q 57.328125 12.15625 50.6875 5.359375 
Q 44.046875 -1.421875 33.015625 -1.421875 
Q 20.359375 -1.421875 13.671875 8.265625 
Q 6.984375 17.96875 6.984375 36.375 
Q 6.984375 53.65625 15.1875 63.9375 
Q 23.390625 74.21875 37.203125 74.21875 
Q 40.921875 74.21875 44.703125 73.484375 
Q 48.484375 72.75 52.59375 71.296875 
z
" id="DejaVuSans-54"/>
      </defs>
      <g transform="translate(513.666818 182.4375)scale(0.16 -0.16)">
       <use xlink:href="#DejaVuSans-48"/>
       <use x="63.623047" xlink:href="#DejaVuSans-46"/>
       <use x="95.410156" xlink:href="#DejaVuSans-54"/>
      </g>
     </g>
    </g>
    <g id="ytick_12">
     <g id="line2d_30">
      <g>
       <use style="stroke:#000000;stroke-width:0.8;" x="546.111818" xlink:href="#m0fe4b66220" y="140.11875"/>
      </g>
     </g>
     <g id="text_30">
      <!-- 0.8 -->
      <defs>
       <path d="M 31.78125 34.625 
Q 24.75 34.625 20.71875 30.859375 
Q 16.703125 27.09375 16.703125 20.515625 
Q 16.703125 13.921875 20.71875 10.15625 
Q 24.75 6.390625 31.78125 6.390625 
Q 38.8125 6.390625 42.859375 10.171875 
Q 46.921875 13.96875 46.921875 20.515625 
Q 46.921875 27.09375 42.890625 30.859375 
Q 38.875 34.625 31.78125 34.625 
z
M 21.921875 38.8125 
Q 15.578125 40.375 12.03125 44.71875 
Q 8.5 49.078125 8.5 55.328125 
Q 8.5 64.0625 14.71875 69.140625 
Q 20.953125 74.21875 31.78125 74.21875 
Q 42.671875 74.21875 48.875 69.140625 
Q 55.078125 64.0625 55.078125 55.328125 
Q 55.078125 49.078125 51.53125 44.71875 
Q 48 40.375 41.703125 38.8125 
Q 48.828125 37.15625 52.796875 32.3125 
Q 56.78125 27.484375 56.78125 20.515625 
Q 56.78125 9.90625 50.3125 4.234375 
Q 43.84375 -1.421875 31.78125 -1.421875 
Q 19.734375 -1.421875 13.25 4.234375 
Q 6.78125 9.90625 6.78125 20.515625 
Q 6.78125 27.484375 10.78125 32.3125 
Q 14.796875 37.15625 21.921875 38.8125 
z
M 18.3125 54.390625 
Q 18.3125 48.734375 21.84375 45.5625 
Q 25.390625 42.390625 31.78125 42.390625 
Q 38.140625 42.390625 41.71875 45.5625 
Q 45.3125 48.734375 45.3125 54.390625 
Q 45.3125 60.0625 41.71875 63.234375 
Q 38.140625 66.40625 31.78125 66.40625 
Q 25.390625 66.40625 21.84375 63.234375 
Q 18.3125 60.0625 18.3125 54.390625 
z
" id="DejaVuSans-56"/>
      </defs>
      <g transform="translate(513.666818 146.1975)scale(0.16 -0.16)">
       <use xlink:href="#DejaVuSans-48"/>
       <use x="63.623047" xlink:href="#DejaVuSans-46"/>
       <use x="95.410156" xlink:href="#DejaVuSans-56"/>
      </g>
     </g>
    </g>
    <g id="ytick_13">
     <g id="line2d_31">
      <g>
       <use style="stroke:#000000;stroke-width:0.8;" x="546.111818" xlink:href="#m0fe4b66220" y="103.87875"/>
      </g>
     </g>
     <g id="text_31">
      <!-- 1.0 -->
      <g transform="translate(513.666818 109.9575)scale(0.16 -0.16)">
       <use xlink:href="#DejaVuSans-49"/>
       <use x="63.623047" xlink:href="#DejaVuSans-46"/>
       <use x="95.410156" xlink:href="#DejaVuSans-48"/>
      </g>
     </g>
    </g>
    <g id="ytick_14">
     <g id="line2d_32">
      <g>
       <use style="stroke:#000000;stroke-width:0.8;" x="546.111818" xlink:href="#m0fe4b66220" y="67.63875"/>
      </g>
     </g>
     <g id="text_32">
      <!-- 1.2 -->
      <g transform="translate(513.666818 73.7175)scale(0.16 -0.16)">
       <use xlink:href="#DejaVuSans-49"/>
       <use x="63.623047" xlink:href="#DejaVuSans-46"/>
       <use x="95.410156" xlink:href="#DejaVuSans-50"/>
      </g>
     </g>
    </g>
    <g id="ytick_15">
     <g id="line2d_33">
      <g>
       <use style="stroke:#000000;stroke-width:0.8;" x="546.111818" xlink:href="#m0fe4b66220" y="31.39875"/>
      </g>
     </g>
     <g id="text_33">
      <!-- 1.4 -->
      <g transform="translate(513.666818 37.4775)scale(0.16 -0.16)">
       <use xlink:href="#DejaVuSans-49"/>
       <use x="63.623047" xlink:href="#DejaVuSans-46"/>
       <use x="95.410156" xlink:href="#DejaVuSans-52"/>
      </g>
     </g>
    </g>
    <g id="text_34">
     <!-- Counts (normalized) -->
     <g transform="translate(506.339318 230.48125)rotate(-90)scale(0.16 -0.16)">
      <use xlink:href="#DejaVuSans-67"/>
      <use x="69.824219" xlink:href="#DejaVuSans-111"/>
      <use x="131.005859" xlink:href="#DejaVuSans-117"/>
      <use x="194.384766" xlink:href="#DejaVuSans-110"/>
      <use x="257.763672" xlink:href="#DejaVuSans-116"/>
      <use x="296.972656" xlink:href="#DejaVuSans-115"/>
      <use x="349.072266" xlink:href="#DejaVuSans-32"/>
      <use x="380.859375" xlink:href="#DejaVuSans-40"/>
      <use x="419.873047" xlink:href="#DejaVuSans-110"/>
      <use x="483.251953" xlink:href="#DejaVuSans-111"/>
      <use x="544.433594" xlink:href="#DejaVuSans-114"/>
      <use x="585.53125" xlink:href="#DejaVuSans-109"/>
      <use x="682.943359" xlink:href="#DejaVuSans-97"/>
      <use x="744.222656" xlink:href="#DejaVuSans-108"/>
      <use x="772.005859" xlink:href="#DejaVuSans-105"/>
      <use x="799.789062" xlink:href="#DejaVuSans-122"/>
      <use x="852.279297" xlink:href="#DejaVuSans-101"/>
      <use x="913.802734" xlink:href="#DejaVuSans-100"/>
      <use x="977.279297" xlink:href="#DejaVuSans-41"/>
     </g>
    </g>
   </g>
   <g id="line2d_34">
    <path clip-path="url(#p77415ed088)" d="M 501.947035 284.781454 
L 506.31016 284.326262 
L 510.673285 283.320912 
L 515.03641 281.285088 
L 519.399536 277.506091 
L 523.762661 271.077835 
L 528.125786 261.062015 
L 532.488911 246.778078 
L 536.852036 228.152796 
L 541.215162 205.986212 
L 545.578287 181.976621 
L 549.941412 158.429215 
L 554.304537 137.723028 
L 558.667663 121.740622 
L 563.030788 111.486502 
L 567.393913 107.017124 
L 571.757038 107.648579 
L 576.120163 112.29817 
L 580.483289 119.80526 
L 584.846414 129.14076 
L 589.209539 139.491641 
L 593.572664 150.254194 
L 597.935789 160.983873 
L 602.298915 171.344991 
L 606.66204 181.088704 
L 611.025165 190.063612 
L 615.38829 198.237197 
L 619.751416 205.694439 
L 624.114541 212.592891 
L 628.477666 219.083394 
L 632.840791 225.230274 
L 637.203916 230.967031 
L 641.567042 236.104569 
L 645.930167 240.385313 
L 650.293292 243.563012 
L 654.656417 245.486637 
L 659.019543 246.169015 
L 663.382668 245.820816 
L 667.745793 244.832363 
L 672.108918 243.698797 
L 676.472043 242.908504 
L 680.835169 242.836104 
L 685.198294 243.681006 
L 689.561419 245.466886 
L 693.924544 248.084216 
L 698.287669 251.341956 
L 702.650795 255.005206 
L 707.01392 258.819172 
L 711.377045 262.53403 
L 715.74017 265.939667 
L 720.103296 268.90269 
L 724.466421 271.387238 
L 728.829546 273.445529 
L 733.192671 275.179768 
L 737.555796 276.692419 
L 741.918922 278.047148 
L 746.282047 279.25578 
L 750.645172 280.292478 
L 755.008297 281.123272 
L 759.371423 281.733652 
L 763.734548 282.141131 
L 768.097673 282.389828 
L 772.460798 282.533822 
L 776.823923 282.620029 
L 781.187049 282.67871 
L 785.550174 282.723546 
L 789.913299 282.757747 
L 794.276424 282.780697 
L 798.639549 282.791285 
L 803.002675 282.787736 
L 807.3658 282.766839 
L 811.728925 282.725739 
L 816.09205 282.66667 
L 820.455176 282.601392 
L 824.818301 282.551001 
L 829.181426 282.539578 
L 833.544551 282.584618 
L 837.907676 282.689655 
L 842.270802 282.843001 
L 846.633927 283.022537 
L 850.997052 283.203311 
L 855.360177 283.364261 
L 859.723302 283.492227 
L 864.086428 283.583466 
L 868.449553 283.643596 
L 872.812678 283.686277 
L 877.175803 283.73028 
L 881.538929 283.794792 
L 885.902054 283.893843 
L 890.265179 284.03174 
L 894.628304 284.201471 
L 898.991429 284.386955 
L 903.354555 284.568313 
L 907.71768 284.727949 
L 912.080805 284.854989 
L 916.44393 284.946656 
L 920.807056 285.006741 
L 925.170181 285.042565 
L 929.533306 285.062012 
L 933.896431 285.071631 
" style="fill:none;stroke:#000000;stroke-linecap:square;stroke-width:3;"/>
   </g>
   <g id="line2d_35">
    <path clip-path="url(#p77415ed088)" d="M 604.946306 285.07875 
L 604.946306 176.35875 
" style="fill:none;stroke:#000000;stroke-dasharray:7.4,3.2;stroke-dashoffset:0;stroke-width:2;"/>
   </g>
   <g id="patch_56">
    <path d="M 546.111818 285.07875 
L 546.111818 13.27875 
" style="fill:none;stroke:#000000;stroke-linecap:square;stroke-linejoin:miter;stroke-width:0.8;"/>
   </g>
   <g id="patch_57">
    <path d="M 951.93 285.07875 
L 951.93 13.27875 
" style="fill:none;stroke:#000000;stroke-linecap:square;stroke-linejoin:miter;stroke-width:0.8;"/>
   </g>
   <g id="patch_58">
    <path d="M 546.111818 285.07875 
L 951.93 285.07875 
" style="fill:none;stroke:#000000;stroke-linecap:square;stroke-linejoin:miter;stroke-width:0.8;"/>
   </g>
   <g id="patch_59">
    <path d="M 546.111818 13.27875 
L 951.93 13.27875 
" style="fill:none;stroke:#000000;stroke-linecap:square;stroke-linejoin:miter;stroke-width:0.8;"/>
   </g>
   <g id="legend_2">
    <g id="patch_60">
     <path d="M 774.97 96.56875 
L 940.73 96.56875 
Q 943.93 96.56875 943.93 93.36875 
L 943.93 24.47875 
Q 943.93 21.27875 940.73 21.27875 
L 774.97 21.27875 
Q 771.77 21.27875 771.77 24.47875 
L 771.77 93.36875 
Q 771.77 96.56875 774.97 96.56875 
z
" style="fill:#ffffff;opacity:0.8;stroke:#cccccc;stroke-linejoin:miter;"/>
    </g>
    <g id="patch_61">
     <path d="M 778.17 39.83875 
L 810.17 39.83875 
L 810.17 28.63875 
L 778.17 28.63875 
z
" style="fill:#d3d3d3;stroke:#d3d3d3;stroke-linejoin:miter;"/>
    </g>
    <g id="text_35">
     <!-- $AE_T$ histogram -->
     <g transform="translate(822.97 39.83875)scale(0.16 -0.16)">
      <use transform="translate(0 0.015625)" xlink:href="#DejaVuSans-Oblique-65"/>
      <use transform="translate(68.408203 0.015625)" xlink:href="#DejaVuSans-Oblique-69"/>
      <use transform="translate(131.591797 -16.390625)scale(0.7)" xlink:href="#DejaVuSans-Oblique-84"/>
      <use transform="translate(177.084961 0.015625)" xlink:href="#DejaVuSans-32"/>
      <use transform="translate(208.87207 0.015625)" xlink:href="#DejaVuSans-104"/>
      <use transform="translate(272.250977 0.015625)" xlink:href="#DejaVuSans-105"/>
      <use transform="translate(300.03418 0.015625)" xlink:href="#DejaVuSans-115"/>
      <use transform="translate(352.133789 0.015625)" xlink:href="#DejaVuSans-116"/>
      <use transform="translate(391.342773 0.015625)" xlink:href="#DejaVuSans-111"/>
      <use transform="translate(452.524414 0.015625)" xlink:href="#DejaVuSans-103"/>
      <use transform="translate(516.000977 0.015625)" xlink:href="#DejaVuSans-114"/>
      <use transform="translate(557.114258 0.015625)" xlink:href="#DejaVuSans-97"/>
      <use transform="translate(618.393555 0.015625)" xlink:href="#DejaVuSans-109"/>
     </g>
    </g>
    <g id="line2d_36">
     <path d="M 778.17 57.75625 
L 810.17 57.75625 
" style="fill:none;stroke:#000000;stroke-dasharray:7.4,3.2;stroke-dashoffset:0;stroke-width:2;"/>
    </g>
    <g id="line2d_37"/>
    <g id="text_36">
     <!-- MAE$_T$ -->
     <g transform="translate(822.97 63.35625)scale(0.16 -0.16)">
      <use transform="translate(0 0.09375)" xlink:href="#DejaVuSans-77"/>
      <use transform="translate(86.279297 0.09375)" xlink:href="#DejaVuSans-65"/>
      <use transform="translate(154.6875 0.09375)" xlink:href="#DejaVuSans-69"/>
      <use transform="translate(218.828125 -16.3125)scale(0.7)" xlink:href="#DejaVuSans-Oblique-84"/>
     </g>
    </g>
    <g id="line2d_38">
     <path d="M 778.17 81.24125 
L 810.17 81.24125 
" style="fill:none;stroke:#000000;stroke-linecap:square;stroke-width:2;"/>
    </g>
    <g id="line2d_39"/>
    <g id="text_37">
     <!-- $AE_T$ KDE -->
     <g transform="translate(822.97 86.84125)scale(0.16 -0.16)">
      <use transform="translate(0 0.09375)" xlink:href="#DejaVuSans-Oblique-65"/>
      <use transform="translate(68.408203 0.09375)" xlink:href="#DejaVuSans-Oblique-69"/>
      <use transform="translate(131.591797 -16.3125)scale(0.7)" xlink:href="#DejaVuSans-Oblique-84"/>
      <use transform="translate(177.084961 0.09375)" xlink:href="#DejaVuSans-32"/>
      <use transform="translate(208.87207 0.09375)" xlink:href="#DejaVuSans-75"/>
      <use transform="translate(274.448242 0.09375)" xlink:href="#DejaVuSans-68"/>
      <use transform="translate(351.450195 0.09375)" xlink:href="#DejaVuSans-69"/>
     </g>
    </g>
   </g>
  </g>
 </g>
 <defs>
  <clipPath id="p983db0219b">
   <rect height="271.8" width="405.818182" x="59.13" y="13.27875"/>
  </clipPath>
  <clipPath id="p77415ed088">
   <rect height="271.8" width="405.818182" x="546.111818" y="13.27875"/>
  </clipPath>
 </defs>
</svg>
