<?xml version="1.0" encoding="utf-8" standalone="no"?>
<!DOCTYPE svg PUBLIC "-//W3C//DTD SVG 1.1//EN"
  "http://www.w3.org/Graphics/SVG/1.1/DTD/svg11.dtd">
<!-- Created with matplotlib (https://matplotlib.org/) -->
<svg height="333.71875pt" version="1.1" viewBox="0 0 964.3525 333.71875" width="964.3525pt" xmlns="http://www.w3.org/2000/svg" xmlns:xlink="http://www.w3.org/1999/xlink">
 <defs>
  <style type="text/css">
*{stroke-linecap:butt;stroke-linejoin:round;white-space:pre;}
  </style>
 </defs>
 <g id="figure_1">
  <g id="patch_1">
   <path d="M 0 333.71875 
L 964.3525 333.71875 
L 964.3525 0 
L 0 0 
z
" style="fill:#ffffff;"/>
  </g>
  <g id="axes_1">
   <g id="patch_2">
    <path d="M 55.455 284.72625 
L 461.273182 284.72625 
L 461.273182 12.92625 
L 55.455 12.92625 
z
" style="fill:#ffffff;"/>
   </g>
   <g id="patch_3">
    <path clip-path="url(#pc3234a8d97)" d="M 55.455001 284.72625 
L 63.203191 284.72625 
L 63.203191 128.289317 
L 55.455001 128.289317 
z
" style="fill:#808080;"/>
   </g>
   <g id="patch_4">
    <path clip-path="url(#pc3234a8d97)" d="M 63.203191 284.72625 
L 70.951381 284.72625 
L 70.951381 226.0624 
L 63.203191 226.0624 
z
" style="fill:#808080;"/>
   </g>
   <g id="patch_5">
    <path clip-path="url(#pc3234a8d97)" d="M 70.951381 284.72625 
L 78.699571 284.72625 
L 78.699571 271.038018 
L 70.951381 271.038018 
z
" style="fill:#808080;"/>
   </g>
   <g id="patch_6">
    <path clip-path="url(#pc3234a8d97)" d="M 78.699571 284.72625 
L 86.447762 284.72625 
L 86.447762 272.99348 
L 78.699571 272.99348 
z
" style="fill:#808080;"/>
   </g>
   <g id="patch_7">
    <path clip-path="url(#pc3234a8d97)" d="M 86.447762 284.72625 
L 94.195952 284.72625 
L 94.195952 257.349787 
L 86.447762 257.349787 
z
" style="fill:#808080;"/>
   </g>
   <g id="patch_8">
    <path clip-path="url(#pc3234a8d97)" d="M 94.195952 284.72625 
L 101.944142 284.72625 
L 101.944142 224.106938 
L 94.195952 224.106938 
z
" style="fill:#808080;"/>
   </g>
   <g id="patch_9">
    <path clip-path="url(#pc3234a8d97)" d="M 101.944142 284.72625 
L 109.692332 284.72625 
L 109.692332 161.532165 
L 101.944142 161.532165 
z
" style="fill:#808080;"/>
   </g>
   <g id="patch_10">
    <path clip-path="url(#pc3234a8d97)" d="M 109.692332 284.72625 
L 117.440522 284.72625 
L 117.440522 120.46747 
L 109.692332 120.46747 
z
" style="fill:#808080;"/>
   </g>
   <g id="patch_11">
    <path clip-path="url(#pc3234a8d97)" d="M 117.440522 284.72625 
L 125.188712 284.72625 
L 125.188712 124.378393 
L 117.440522 124.378393 
z
" style="fill:#808080;"/>
   </g>
   <g id="patch_12">
    <path clip-path="url(#pc3234a8d97)" d="M 125.188712 284.72625 
L 132.936902 284.72625 
L 132.936902 136.111163 
L 125.188712 136.111163 
z
" style="fill:#808080;"/>
   </g>
   <g id="patch_13">
    <path clip-path="url(#pc3234a8d97)" d="M 132.936902 284.72625 
L 140.685092 284.72625 
L 140.685092 126.333855 
L 132.936902 126.333855 
z
" style="fill:#808080;"/>
   </g>
   <g id="patch_14">
    <path clip-path="url(#pc3234a8d97)" d="M 140.685092 284.72625 
L 148.433282 284.72625 
L 148.433282 190.86409 
L 140.685092 190.86409 
z
" style="fill:#808080;"/>
   </g>
   <g id="patch_15">
    <path clip-path="url(#pc3234a8d97)" d="M 148.433282 284.72625 
L 156.181472 284.72625 
L 156.181472 229.973323 
L 148.433282 229.973323 
z
" style="fill:#808080;"/>
   </g>
   <g id="patch_16">
    <path clip-path="url(#pc3234a8d97)" d="M 156.181472 284.72625 
L 163.929662 284.72625 
L 163.929662 226.0624 
L 156.181472 226.0624 
z
" style="fill:#808080;"/>
   </g>
   <g id="patch_17">
    <path clip-path="url(#pc3234a8d97)" d="M 163.929662 284.72625 
L 171.677853 284.72625 
L 171.677853 237.79517 
L 163.929662 237.79517 
z
" style="fill:#808080;"/>
   </g>
   <g id="patch_18">
    <path clip-path="url(#pc3234a8d97)" d="M 171.677853 284.72625 
L 179.426043 284.72625 
L 179.426043 247.572478 
L 171.677853 247.572478 
z
" style="fill:#808080;"/>
   </g>
   <g id="patch_19">
    <path clip-path="url(#pc3234a8d97)" d="M 179.426043 284.72625 
L 187.174233 284.72625 
L 187.174233 263.216172 
L 179.426043 263.216172 
z
" style="fill:#808080;"/>
   </g>
   <g id="patch_20">
    <path clip-path="url(#pc3234a8d97)" d="M 187.174233 284.72625 
L 194.922423 284.72625 
L 194.922423 267.127095 
L 187.174233 267.127095 
z
" style="fill:#808080;"/>
   </g>
   <g id="patch_21">
    <path clip-path="url(#pc3234a8d97)" d="M 194.922423 284.72625 
L 202.670613 284.72625 
L 202.670613 278.859865 
L 194.922423 278.859865 
z
" style="fill:#808080;"/>
   </g>
   <g id="patch_22">
    <path clip-path="url(#pc3234a8d97)" d="M 202.670613 284.72625 
L 210.418803 284.72625 
L 210.418803 280.815327 
L 202.670613 280.815327 
z
" style="fill:#808080;"/>
   </g>
   <g id="matplotlib.axis_1">
    <g id="xtick_1">
     <g id="line2d_1">
      <defs>
       <path d="M 0 0 
L 0 3.5 
" id="m391f96ab95" style="stroke:#000000;stroke-width:0.8;"/>
      </defs>
      <g>
       <use style="stroke:#000000;stroke-width:0.8;" x="55.455" xlink:href="#m391f96ab95" y="284.72625"/>
      </g>
     </g>
     <g id="text_1">
      <!-- 0 -->
      <defs>
       <path d="M 4.15625 35.296875 
Q 4.15625 48 6.765625 55.734375 
Q 9.375 63.484375 14.515625 67.671875 
Q 19.671875 71.875 27.484375 71.875 
Q 33.25 71.875 37.59375 69.546875 
Q 41.9375 67.234375 44.765625 62.859375 
Q 47.609375 58.5 49.21875 52.21875 
Q 50.828125 45.953125 50.828125 35.296875 
Q 50.828125 22.703125 48.234375 14.96875 
Q 45.65625 7.234375 40.5 3 
Q 35.359375 -1.21875 27.484375 -1.21875 
Q 17.140625 -1.21875 11.234375 6.203125 
Q 4.15625 15.140625 4.15625 35.296875 
z
M 13.1875 35.296875 
Q 13.1875 17.671875 17.3125 11.828125 
Q 21.4375 6 27.484375 6 
Q 33.546875 6 37.671875 11.859375 
Q 41.796875 17.71875 41.796875 35.296875 
Q 41.796875 52.984375 37.671875 58.78125 
Q 33.546875 64.59375 27.390625 64.59375 
Q 21.34375 64.59375 17.71875 59.46875 
Q 13.1875 52.9375 13.1875 35.296875 
z
" id="ArialMT-48"/>
      </defs>
      <g transform="translate(51.00625 303.17875)scale(0.16 -0.16)">
       <use xlink:href="#ArialMT-48"/>
      </g>
     </g>
    </g>
    <g id="xtick_2">
     <g id="line2d_2">
      <g>
       <use style="stroke:#000000;stroke-width:0.8;" x="136.618636" xlink:href="#m391f96ab95" y="284.72625"/>
      </g>
     </g>
     <g id="text_2">
      <!-- 2 -->
      <defs>
       <path d="M 50.34375 8.453125 
L 50.34375 0 
L 3.03125 0 
Q 2.9375 3.171875 4.046875 6.109375 
Q 5.859375 10.9375 9.828125 15.625 
Q 13.8125 20.3125 21.34375 26.46875 
Q 33.015625 36.03125 37.109375 41.625 
Q 41.21875 47.21875 41.21875 52.203125 
Q 41.21875 57.421875 37.46875 61 
Q 33.734375 64.59375 27.734375 64.59375 
Q 21.390625 64.59375 17.578125 60.78125 
Q 13.765625 56.984375 13.71875 50.25 
L 4.6875 51.171875 
Q 5.609375 61.28125 11.65625 66.578125 
Q 17.71875 71.875 27.9375 71.875 
Q 38.234375 71.875 44.234375 66.15625 
Q 50.25 60.453125 50.25 52 
Q 50.25 47.703125 48.484375 43.546875 
Q 46.734375 39.40625 42.65625 34.8125 
Q 38.578125 30.21875 29.109375 22.21875 
Q 21.1875 15.578125 18.9375 13.203125 
Q 16.703125 10.84375 15.234375 8.453125 
z
" id="ArialMT-50"/>
      </defs>
      <g transform="translate(132.169886 303.17875)scale(0.16 -0.16)">
       <use xlink:href="#ArialMT-50"/>
      </g>
     </g>
    </g>
    <g id="xtick_3">
     <g id="line2d_3">
      <g>
       <use style="stroke:#000000;stroke-width:0.8;" x="217.782273" xlink:href="#m391f96ab95" y="284.72625"/>
      </g>
     </g>
     <g id="text_3">
      <!-- 4 -->
      <defs>
       <path d="M 32.328125 0 
L 32.328125 17.140625 
L 1.265625 17.140625 
L 1.265625 25.203125 
L 33.9375 71.578125 
L 41.109375 71.578125 
L 41.109375 25.203125 
L 50.78125 25.203125 
L 50.78125 17.140625 
L 41.109375 17.140625 
L 41.109375 0 
z
M 32.328125 25.203125 
L 32.328125 57.46875 
L 9.90625 25.203125 
z
" id="ArialMT-52"/>
      </defs>
      <g transform="translate(213.333523 303.17875)scale(0.16 -0.16)">
       <use xlink:href="#ArialMT-52"/>
      </g>
     </g>
    </g>
    <g id="xtick_4">
     <g id="line2d_4">
      <g>
       <use style="stroke:#000000;stroke-width:0.8;" x="298.945909" xlink:href="#m391f96ab95" y="284.72625"/>
      </g>
     </g>
     <g id="text_4">
      <!-- 6 -->
      <defs>
       <path d="M 49.75 54.046875 
L 41.015625 53.375 
Q 39.84375 58.546875 37.703125 60.890625 
Q 34.125 64.65625 28.90625 64.65625 
Q 24.703125 64.65625 21.53125 62.3125 
Q 17.390625 59.28125 14.984375 53.46875 
Q 12.59375 47.65625 12.5 36.921875 
Q 15.671875 41.75 20.265625 44.09375 
Q 24.859375 46.4375 29.890625 46.4375 
Q 38.671875 46.4375 44.84375 39.96875 
Q 51.03125 33.5 51.03125 23.25 
Q 51.03125 16.5 48.125 10.71875 
Q 45.21875 4.9375 40.140625 1.859375 
Q 35.0625 -1.21875 28.609375 -1.21875 
Q 17.625 -1.21875 10.6875 6.859375 
Q 3.765625 14.9375 3.765625 33.5 
Q 3.765625 54.25 11.421875 63.671875 
Q 18.109375 71.875 29.4375 71.875 
Q 37.890625 71.875 43.28125 67.140625 
Q 48.6875 62.40625 49.75 54.046875 
z
M 13.875 23.1875 
Q 13.875 18.65625 15.796875 14.5 
Q 17.71875 10.359375 21.1875 8.171875 
Q 24.65625 6 28.46875 6 
Q 34.03125 6 38.03125 10.484375 
Q 42.046875 14.984375 42.046875 22.703125 
Q 42.046875 30.125 38.078125 34.390625 
Q 34.125 38.671875 28.125 38.671875 
Q 22.171875 38.671875 18.015625 34.390625 
Q 13.875 30.125 13.875 23.1875 
z
" id="ArialMT-54"/>
      </defs>
      <g transform="translate(294.497159 303.17875)scale(0.16 -0.16)">
       <use xlink:href="#ArialMT-54"/>
      </g>
     </g>
    </g>
    <g id="xtick_5">
     <g id="line2d_5">
      <g>
       <use style="stroke:#000000;stroke-width:0.8;" x="380.109545" xlink:href="#m391f96ab95" y="284.72625"/>
      </g>
     </g>
     <g id="text_5">
      <!-- 8 -->
      <defs>
       <path d="M 17.671875 38.8125 
Q 12.203125 40.828125 9.5625 44.53125 
Q 6.9375 48.25 6.9375 53.421875 
Q 6.9375 61.234375 12.546875 66.546875 
Q 18.171875 71.875 27.484375 71.875 
Q 36.859375 71.875 42.578125 66.421875 
Q 48.296875 60.984375 48.296875 53.171875 
Q 48.296875 48.1875 45.671875 44.5 
Q 43.0625 40.828125 37.75 38.8125 
Q 44.34375 36.671875 47.78125 31.875 
Q 51.21875 27.09375 51.21875 20.453125 
Q 51.21875 11.28125 44.71875 5.03125 
Q 38.234375 -1.21875 27.640625 -1.21875 
Q 17.046875 -1.21875 10.546875 5.046875 
Q 4.046875 11.328125 4.046875 20.703125 
Q 4.046875 27.6875 7.59375 32.390625 
Q 11.140625 37.109375 17.671875 38.8125 
z
M 15.921875 53.71875 
Q 15.921875 48.640625 19.1875 45.40625 
Q 22.46875 42.1875 27.6875 42.1875 
Q 32.765625 42.1875 36.015625 45.375 
Q 39.265625 48.578125 39.265625 53.21875 
Q 39.265625 58.0625 35.90625 61.359375 
Q 32.5625 64.65625 27.59375 64.65625 
Q 22.5625 64.65625 19.234375 61.421875 
Q 15.921875 58.203125 15.921875 53.71875 
z
M 13.09375 20.65625 
Q 13.09375 16.890625 14.875 13.375 
Q 16.65625 9.859375 20.171875 7.921875 
Q 23.6875 6 27.734375 6 
Q 34.03125 6 38.125 10.046875 
Q 42.234375 14.109375 42.234375 20.359375 
Q 42.234375 26.703125 38.015625 30.859375 
Q 33.796875 35.015625 27.4375 35.015625 
Q 21.234375 35.015625 17.15625 30.90625 
Q 13.09375 26.8125 13.09375 20.65625 
z
" id="ArialMT-56"/>
      </defs>
      <g transform="translate(375.660795 303.17875)scale(0.16 -0.16)">
       <use xlink:href="#ArialMT-56"/>
      </g>
     </g>
    </g>
    <g id="xtick_6">
     <g id="line2d_6">
      <g>
       <use style="stroke:#000000;stroke-width:0.8;" x="461.273182" xlink:href="#m391f96ab95" y="284.72625"/>
      </g>
     </g>
     <g id="text_6">
      <!-- 10 -->
      <defs>
       <path d="M 37.25 0 
L 28.46875 0 
L 28.46875 56 
Q 25.296875 52.984375 20.140625 49.953125 
Q 14.984375 46.921875 10.890625 45.40625 
L 10.890625 53.90625 
Q 18.265625 57.375 23.78125 62.296875 
Q 29.296875 67.234375 31.59375 71.875 
L 37.25 71.875 
z
" id="ArialMT-49"/>
      </defs>
      <g transform="translate(452.375682 303.17875)scale(0.16 -0.16)">
       <use xlink:href="#ArialMT-49"/>
       <use x="55.615234" xlink:href="#ArialMT-48"/>
      </g>
     </g>
    </g>
    <g id="text_7">
     <!-- AE$_{[O_2]}$ (% air) -->
     <defs>
      <path d="M -0.140625 0 
L 27.34375 71.578125 
L 37.546875 71.578125 
L 66.84375 0 
L 56.0625 0 
L 47.703125 21.6875 
L 17.78125 21.6875 
L 9.90625 0 
z
M 20.515625 29.390625 
L 44.78125 29.390625 
L 37.3125 49.21875 
Q 33.890625 58.25 32.234375 64.0625 
Q 30.859375 57.171875 28.375 50.390625 
z
" id="ArialMT-65"/>
      <path d="M 7.90625 0 
L 7.90625 71.578125 
L 59.671875 71.578125 
L 59.671875 63.140625 
L 17.390625 63.140625 
L 17.390625 41.21875 
L 56.984375 41.21875 
L 56.984375 32.8125 
L 17.390625 32.8125 
L 17.390625 8.453125 
L 61.328125 8.453125 
L 61.328125 0 
z
" id="ArialMT-69"/>
      <path d="M 8.59375 75.984375 
L 29.296875 75.984375 
L 29.296875 69 
L 17.578125 69 
L 17.578125 -6.203125 
L 29.296875 -6.203125 
L 29.296875 -13.1875 
L 8.59375 -13.1875 
z
" id="DejaVuSans-91"/>
      <path d="M 45.609375 66.21875 
Q 37.5 66.21875 31.296875 62.28125 
Q 25.09375 58.34375 20.515625 50.296875 
Q 17.578125 45.171875 16.03125 39.40625 
Q 14.5 33.640625 14.5 27.78125 
Q 14.5 17.625 19.359375 12.109375 
Q 24.21875 6.59375 33.109375 6.59375 
Q 41.109375 6.59375 47.375 10.5625 
Q 53.65625 14.546875 58.109375 22.40625 
Q 61.078125 27.6875 62.640625 33.46875 
Q 64.203125 39.265625 64.203125 45.015625 
Q 64.203125 55.125 59.3125 60.671875 
Q 54.4375 66.21875 45.609375 66.21875 
z
M 32.8125 -1.421875 
Q 19.390625 -1.421875 11.6875 6.53125 
Q 4 14.5 4 28.328125 
Q 4 36.234375 7 44.484375 
Q 10.015625 52.734375 15.28125 59.1875 
Q 21.484375 66.75 29.09375 70.484375 
Q 36.71875 74.21875 45.90625 74.21875 
Q 59.28125 74.21875 66.984375 66.328125 
Q 74.703125 58.453125 74.703125 44.828125 
Q 74.703125 36.421875 71.765625 28.3125 
Q 68.84375 20.21875 63.375 13.625 
Q 57.125 6 49.578125 2.28125 
Q 42.046875 -1.421875 32.8125 -1.421875 
z
" id="DejaVuSans-Oblique-79"/>
      <path d="M 19.1875 8.296875 
L 53.609375 8.296875 
L 53.609375 0 
L 7.328125 0 
L 7.328125 8.296875 
Q 12.9375 14.109375 22.625 23.890625 
Q 32.328125 33.6875 34.8125 36.53125 
Q 39.546875 41.84375 41.421875 45.53125 
Q 43.3125 49.21875 43.3125 52.78125 
Q 43.3125 58.59375 39.234375 62.25 
Q 35.15625 65.921875 28.609375 65.921875 
Q 23.96875 65.921875 18.8125 64.3125 
Q 13.671875 62.703125 7.8125 59.421875 
L 7.8125 69.390625 
Q 13.765625 71.78125 18.9375 73 
Q 24.125 74.21875 28.421875 74.21875 
Q 39.75 74.21875 46.484375 68.546875 
Q 53.21875 62.890625 53.21875 53.421875 
Q 53.21875 48.921875 51.53125 44.890625 
Q 49.859375 40.875 45.40625 35.40625 
Q 44.1875 33.984375 37.640625 27.21875 
Q 31.109375 20.453125 19.1875 8.296875 
z
" id="DejaVuSans-50"/>
      <path d="M 30.421875 75.984375 
L 30.421875 -13.1875 
L 9.71875 -13.1875 
L 9.71875 -6.203125 
L 21.390625 -6.203125 
L 21.390625 69 
L 9.71875 69 
L 9.71875 75.984375 
z
" id="DejaVuSans-93"/>
      <path id="ArialMT-32"/>
      <path d="M 23.390625 -21.046875 
Q 16.109375 -11.859375 11.078125 0.4375 
Q 6.0625 12.75 6.0625 25.921875 
Q 6.0625 37.546875 9.8125 48.1875 
Q 14.203125 60.546875 23.390625 72.796875 
L 29.6875 72.796875 
Q 23.78125 62.640625 21.875 58.296875 
Q 18.890625 51.5625 17.1875 44.234375 
Q 15.09375 35.109375 15.09375 25.875 
Q 15.09375 2.390625 29.6875 -21.046875 
z
" id="ArialMT-40"/>
      <path d="M 5.8125 54.390625 
Q 5.8125 62.0625 9.671875 67.421875 
Q 13.53125 72.796875 20.84375 72.796875 
Q 27.59375 72.796875 32 67.984375 
Q 36.421875 63.1875 36.421875 53.859375 
Q 36.421875 44.78125 31.953125 39.875 
Q 27.484375 34.96875 20.953125 34.96875 
Q 14.453125 34.96875 10.125 39.796875 
Q 5.8125 44.625 5.8125 54.390625 
z
M 21.09375 66.75 
Q 17.828125 66.75 15.65625 63.90625 
Q 13.484375 61.078125 13.484375 53.515625 
Q 13.484375 46.625 15.671875 43.8125 
Q 17.875 41.015625 21.09375 41.015625 
Q 24.421875 41.015625 26.59375 43.84375 
Q 28.765625 46.6875 28.765625 54.203125 
Q 28.765625 61.140625 26.5625 63.9375 
Q 24.359375 66.75 21.09375 66.75 
z
M 21.140625 -2.640625 
L 60.296875 72.796875 
L 67.4375 72.796875 
L 28.421875 -2.640625 
z
M 52.09375 16.796875 
Q 52.09375 24.515625 55.953125 29.859375 
Q 59.8125 35.203125 67.1875 35.203125 
Q 73.921875 35.203125 78.34375 30.390625 
Q 82.765625 25.59375 82.765625 16.265625 
Q 82.765625 7.171875 78.296875 2.265625 
Q 73.828125 -2.640625 67.234375 -2.640625 
Q 60.75 -2.640625 56.421875 2.21875 
Q 52.09375 7.078125 52.09375 16.796875 
z
M 67.4375 29.15625 
Q 64.109375 29.15625 61.9375 26.3125 
Q 59.765625 23.484375 59.765625 15.921875 
Q 59.765625 9.078125 61.953125 6.25 
Q 64.15625 3.421875 67.390625 3.421875 
Q 70.75 3.421875 72.921875 6.25 
Q 75.09375 9.078125 75.09375 16.609375 
Q 75.09375 23.53125 72.890625 26.34375 
Q 70.703125 29.15625 67.4375 29.15625 
z
" id="ArialMT-37"/>
      <path d="M 40.4375 6.390625 
Q 35.546875 2.25 31.03125 0.53125 
Q 26.515625 -1.171875 21.34375 -1.171875 
Q 12.796875 -1.171875 8.203125 3 
Q 3.609375 7.171875 3.609375 13.671875 
Q 3.609375 17.484375 5.34375 20.625 
Q 7.078125 23.78125 9.890625 25.6875 
Q 12.703125 27.59375 16.21875 28.5625 
Q 18.796875 29.25 24.03125 29.890625 
Q 34.671875 31.15625 39.703125 32.90625 
Q 39.75 34.71875 39.75 35.203125 
Q 39.75 40.578125 37.25 42.78125 
Q 33.890625 45.75 27.25 45.75 
Q 21.046875 45.75 18.09375 43.578125 
Q 15.140625 41.40625 13.71875 35.890625 
L 5.125 37.0625 
Q 6.296875 42.578125 8.984375 45.96875 
Q 11.671875 49.359375 16.75 51.1875 
Q 21.828125 53.03125 28.515625 53.03125 
Q 35.15625 53.03125 39.296875 51.46875 
Q 43.453125 49.90625 45.40625 47.53125 
Q 47.359375 45.171875 48.140625 41.546875 
Q 48.578125 39.3125 48.578125 33.453125 
L 48.578125 21.734375 
Q 48.578125 9.46875 49.140625 6.21875 
Q 49.703125 2.984375 51.375 0 
L 42.1875 0 
Q 40.828125 2.734375 40.4375 6.390625 
z
M 39.703125 26.03125 
Q 34.90625 24.078125 25.34375 22.703125 
Q 19.921875 21.921875 17.671875 20.9375 
Q 15.4375 19.96875 14.203125 18.09375 
Q 12.984375 16.21875 12.984375 13.921875 
Q 12.984375 10.40625 15.640625 8.0625 
Q 18.3125 5.71875 23.4375 5.71875 
Q 28.515625 5.71875 32.46875 7.9375 
Q 36.421875 10.15625 38.28125 14.015625 
Q 39.703125 17 39.703125 22.796875 
z
" id="ArialMT-97"/>
      <path d="M 6.640625 61.46875 
L 6.640625 71.578125 
L 15.4375 71.578125 
L 15.4375 61.46875 
z
M 6.640625 0 
L 6.640625 51.859375 
L 15.4375 51.859375 
L 15.4375 0 
z
" id="ArialMT-105"/>
      <path d="M 6.5 0 
L 6.5 51.859375 
L 14.40625 51.859375 
L 14.40625 44 
Q 17.4375 49.515625 20 51.265625 
Q 22.5625 53.03125 25.640625 53.03125 
Q 30.078125 53.03125 34.671875 50.203125 
L 31.640625 42.046875 
Q 28.421875 43.953125 25.203125 43.953125 
Q 22.3125 43.953125 20.015625 42.21875 
Q 17.71875 40.484375 16.75 37.40625 
Q 15.28125 32.71875 15.28125 27.15625 
L 15.28125 0 
z
" id="ArialMT-114"/>
      <path d="M 12.359375 -21.046875 
L 6.0625 -21.046875 
Q 20.65625 2.390625 20.65625 25.875 
Q 20.65625 35.0625 18.5625 44.09375 
Q 16.890625 51.421875 13.921875 58.15625 
Q 12.015625 62.546875 6.0625 72.796875 
L 12.359375 72.796875 
Q 21.53125 60.546875 25.921875 48.1875 
Q 29.6875 37.546875 29.6875 25.921875 
Q 29.6875 12.75 24.625 0.4375 
Q 19.578125 -11.859375 12.359375 -21.046875 
z
" id="ArialMT-41"/>
     </defs>
     <g transform="translate(210.124091 322.03875)scale(0.16 -0.16)">
      <use transform="translate(0 0.203125)" xlink:href="#ArialMT-65"/>
      <use transform="translate(66.699219 0.203125)" xlink:href="#ArialMT-69"/>
      <use transform="translate(134.355469 -16.203125)scale(0.7)" xlink:href="#DejaVuSans-91"/>
      <use transform="translate(161.665039 -16.203125)scale(0.7)" xlink:href="#DejaVuSans-Oblique-79"/>
      <use transform="translate(216.762695 -27.6875)scale(0.49)" xlink:href="#DejaVuSans-50"/>
      <use transform="translate(249.852051 -16.203125)scale(0.7)" xlink:href="#DejaVuSans-93"/>
      <use transform="translate(279.895996 0.203125)" xlink:href="#ArialMT-32"/>
      <use transform="translate(307.679199 0.203125)" xlink:href="#ArialMT-40"/>
      <use transform="translate(340.97998 0.203125)" xlink:href="#ArialMT-37"/>
      <use transform="translate(429.895996 0.203125)" xlink:href="#ArialMT-32"/>
      <use transform="translate(457.679199 0.203125)" xlink:href="#ArialMT-97"/>
      <use transform="translate(513.294434 0.203125)" xlink:href="#ArialMT-105"/>
      <use transform="translate(535.51123 0.203125)" xlink:href="#ArialMT-114"/>
      <use transform="translate(568.812012 0.203125)" xlink:href="#ArialMT-41"/>
     </g>
    </g>
   </g>
   <g id="matplotlib.axis_2">
    <g id="ytick_1">
     <g id="line2d_7">
      <defs>
       <path d="M 0 0 
L -3.5 0 
" id="m1ffdac630f" style="stroke:#000000;stroke-width:0.8;"/>
      </defs>
      <g>
       <use style="stroke:#000000;stroke-width:0.8;" x="55.455" xlink:href="#m1ffdac630f" y="284.72625"/>
      </g>
     </g>
     <g id="text_8">
      <!-- 0.0 -->
      <defs>
       <path d="M 9.078125 0 
L 9.078125 10.015625 
L 19.09375 10.015625 
L 19.09375 0 
z
" id="ArialMT-46"/>
      </defs>
      <g transform="translate(26.215 290.4525)scale(0.16 -0.16)">
       <use xlink:href="#ArialMT-48"/>
       <use x="55.615234" xlink:href="#ArialMT-46"/>
       <use x="83.398438" xlink:href="#ArialMT-48"/>
      </g>
     </g>
    </g>
    <g id="ytick_2">
     <g id="line2d_8">
      <g>
       <use style="stroke:#000000;stroke-width:0.8;" x="55.455" xlink:href="#m1ffdac630f" y="230.36625"/>
      </g>
     </g>
     <g id="text_9">
      <!-- 0.2 -->
      <g transform="translate(26.215 236.0925)scale(0.16 -0.16)">
       <use xlink:href="#ArialMT-48"/>
       <use x="55.615234" xlink:href="#ArialMT-46"/>
       <use x="83.398438" xlink:href="#ArialMT-50"/>
      </g>
     </g>
    </g>
    <g id="ytick_3">
     <g id="line2d_9">
      <g>
       <use style="stroke:#000000;stroke-width:0.8;" x="55.455" xlink:href="#m1ffdac630f" y="176.00625"/>
      </g>
     </g>
     <g id="text_10">
      <!-- 0.4 -->
      <g transform="translate(26.215 181.7325)scale(0.16 -0.16)">
       <use xlink:href="#ArialMT-48"/>
       <use x="55.615234" xlink:href="#ArialMT-46"/>
       <use x="83.398438" xlink:href="#ArialMT-52"/>
      </g>
     </g>
    </g>
    <g id="ytick_4">
     <g id="line2d_10">
      <g>
       <use style="stroke:#000000;stroke-width:0.8;" x="55.455" xlink:href="#m1ffdac630f" y="121.64625"/>
      </g>
     </g>
     <g id="text_11">
      <!-- 0.6 -->
      <g transform="translate(26.215 127.3725)scale(0.16 -0.16)">
       <use xlink:href="#ArialMT-48"/>
       <use x="55.615234" xlink:href="#ArialMT-46"/>
       <use x="83.398438" xlink:href="#ArialMT-54"/>
      </g>
     </g>
    </g>
    <g id="ytick_5">
     <g id="line2d_11">
      <g>
       <use style="stroke:#000000;stroke-width:0.8;" x="55.455" xlink:href="#m1ffdac630f" y="67.28625"/>
      </g>
     </g>
     <g id="text_12">
      <!-- 0.8 -->
      <g transform="translate(26.215 73.0125)scale(0.16 -0.16)">
       <use xlink:href="#ArialMT-48"/>
       <use x="55.615234" xlink:href="#ArialMT-46"/>
       <use x="83.398438" xlink:href="#ArialMT-56"/>
      </g>
     </g>
    </g>
    <g id="ytick_6">
     <g id="line2d_12">
      <g>
       <use style="stroke:#000000;stroke-width:0.8;" x="55.455" xlink:href="#m1ffdac630f" y="12.92625"/>
      </g>
     </g>
     <g id="text_13">
      <!-- 1.0 -->
      <g transform="translate(26.215 18.6525)scale(0.16 -0.16)">
       <use xlink:href="#ArialMT-49"/>
       <use x="55.615234" xlink:href="#ArialMT-46"/>
       <use x="83.398438" xlink:href="#ArialMT-48"/>
      </g>
     </g>
    </g>
    <g id="text_14">
     <!-- Counts (normalized) -->
     <defs>
      <path d="M 58.796875 25.09375 
L 68.265625 22.703125 
Q 65.28125 11.03125 57.546875 4.90625 
Q 49.8125 -1.21875 38.625 -1.21875 
Q 27.046875 -1.21875 19.796875 3.484375 
Q 12.546875 8.203125 8.765625 17.140625 
Q 4.984375 26.078125 4.984375 36.328125 
Q 4.984375 47.515625 9.25 55.828125 
Q 13.53125 64.15625 21.40625 68.46875 
Q 29.296875 72.796875 38.765625 72.796875 
Q 49.515625 72.796875 56.828125 67.328125 
Q 64.15625 61.859375 67.046875 51.953125 
L 57.71875 49.75 
Q 55.21875 57.5625 50.484375 61.125 
Q 45.75 64.703125 38.578125 64.703125 
Q 30.328125 64.703125 24.78125 60.734375 
Q 19.234375 56.78125 16.984375 50.109375 
Q 14.75 43.453125 14.75 36.375 
Q 14.75 27.25 17.40625 20.4375 
Q 20.0625 13.625 25.671875 10.25 
Q 31.296875 6.890625 37.84375 6.890625 
Q 45.796875 6.890625 51.3125 11.46875 
Q 56.84375 16.0625 58.796875 25.09375 
z
" id="ArialMT-67"/>
      <path d="M 3.328125 25.921875 
Q 3.328125 40.328125 11.328125 47.265625 
Q 18.015625 53.03125 27.640625 53.03125 
Q 38.328125 53.03125 45.109375 46.015625 
Q 51.90625 39.015625 51.90625 26.65625 
Q 51.90625 16.65625 48.90625 10.90625 
Q 45.90625 5.171875 40.15625 2 
Q 34.421875 -1.171875 27.640625 -1.171875 
Q 16.75 -1.171875 10.03125 5.8125 
Q 3.328125 12.796875 3.328125 25.921875 
z
M 12.359375 25.921875 
Q 12.359375 15.96875 16.703125 11.015625 
Q 21.046875 6.0625 27.640625 6.0625 
Q 34.1875 6.0625 38.53125 11.03125 
Q 42.875 16.015625 42.875 26.21875 
Q 42.875 35.84375 38.5 40.796875 
Q 34.125 45.75 27.640625 45.75 
Q 21.046875 45.75 16.703125 40.8125 
Q 12.359375 35.890625 12.359375 25.921875 
z
" id="ArialMT-111"/>
      <path d="M 40.578125 0 
L 40.578125 7.625 
Q 34.515625 -1.171875 24.125 -1.171875 
Q 19.53125 -1.171875 15.546875 0.578125 
Q 11.578125 2.34375 9.640625 5 
Q 7.71875 7.671875 6.9375 11.53125 
Q 6.390625 14.109375 6.390625 19.734375 
L 6.390625 51.859375 
L 15.1875 51.859375 
L 15.1875 23.09375 
Q 15.1875 16.21875 15.71875 13.8125 
Q 16.546875 10.359375 19.234375 8.375 
Q 21.921875 6.390625 25.875 6.390625 
Q 29.828125 6.390625 33.296875 8.421875 
Q 36.765625 10.453125 38.203125 13.9375 
Q 39.65625 17.4375 39.65625 24.078125 
L 39.65625 51.859375 
L 48.4375 51.859375 
L 48.4375 0 
z
" id="ArialMT-117"/>
      <path d="M 6.59375 0 
L 6.59375 51.859375 
L 14.5 51.859375 
L 14.5 44.484375 
Q 20.21875 53.03125 31 53.03125 
Q 35.6875 53.03125 39.625 51.34375 
Q 43.5625 49.65625 45.515625 46.921875 
Q 47.46875 44.1875 48.25 40.4375 
Q 48.734375 37.984375 48.734375 31.890625 
L 48.734375 0 
L 39.9375 0 
L 39.9375 31.546875 
Q 39.9375 36.921875 38.90625 39.578125 
Q 37.890625 42.234375 35.28125 43.8125 
Q 32.671875 45.40625 29.15625 45.40625 
Q 23.53125 45.40625 19.453125 41.84375 
Q 15.375 38.28125 15.375 28.328125 
L 15.375 0 
z
" id="ArialMT-110"/>
      <path d="M 25.78125 7.859375 
L 27.046875 0.09375 
Q 23.34375 -0.6875 20.40625 -0.6875 
Q 15.625 -0.6875 12.984375 0.828125 
Q 10.359375 2.34375 9.28125 4.8125 
Q 8.203125 7.28125 8.203125 15.1875 
L 8.203125 45.015625 
L 1.765625 45.015625 
L 1.765625 51.859375 
L 8.203125 51.859375 
L 8.203125 64.703125 
L 16.9375 69.96875 
L 16.9375 51.859375 
L 25.78125 51.859375 
L 25.78125 45.015625 
L 16.9375 45.015625 
L 16.9375 14.703125 
Q 16.9375 10.9375 17.40625 9.859375 
Q 17.875 8.796875 18.921875 8.15625 
Q 19.96875 7.515625 21.921875 7.515625 
Q 23.390625 7.515625 25.78125 7.859375 
z
" id="ArialMT-116"/>
      <path d="M 3.078125 15.484375 
L 11.765625 16.84375 
Q 12.5 11.625 15.84375 8.84375 
Q 19.1875 6.0625 25.203125 6.0625 
Q 31.25 6.0625 34.171875 8.515625 
Q 37.109375 10.984375 37.109375 14.3125 
Q 37.109375 17.28125 34.515625 19 
Q 32.71875 20.171875 25.53125 21.96875 
Q 15.875 24.421875 12.140625 26.203125 
Q 8.40625 27.984375 6.46875 31.125 
Q 4.546875 34.28125 4.546875 38.09375 
Q 4.546875 41.546875 6.125 44.5 
Q 7.71875 47.46875 10.453125 49.421875 
Q 12.5 50.921875 16.03125 51.96875 
Q 19.578125 53.03125 23.640625 53.03125 
Q 29.734375 53.03125 34.34375 51.265625 
Q 38.96875 49.515625 41.15625 46.5 
Q 43.359375 43.5 44.1875 38.484375 
L 35.59375 37.3125 
Q 35.015625 41.3125 32.203125 43.546875 
Q 29.390625 45.796875 24.265625 45.796875 
Q 18.21875 45.796875 15.625 43.796875 
Q 13.03125 41.796875 13.03125 39.109375 
Q 13.03125 37.40625 14.109375 36.03125 
Q 15.1875 34.625 17.484375 33.6875 
Q 18.796875 33.203125 25.25 31.453125 
Q 34.578125 28.953125 38.25 27.359375 
Q 41.9375 25.78125 44.03125 22.75 
Q 46.140625 19.734375 46.140625 15.234375 
Q 46.140625 10.84375 43.578125 6.953125 
Q 41.015625 3.078125 36.171875 0.953125 
Q 31.34375 -1.171875 25.25 -1.171875 
Q 15.140625 -1.171875 9.84375 3.03125 
Q 4.546875 7.234375 3.078125 15.484375 
z
" id="ArialMT-115"/>
      <path d="M 6.59375 0 
L 6.59375 51.859375 
L 14.453125 51.859375 
L 14.453125 44.578125 
Q 16.890625 48.390625 20.9375 50.703125 
Q 25 53.03125 30.171875 53.03125 
Q 35.9375 53.03125 39.625 50.640625 
Q 43.3125 48.25 44.828125 43.953125 
Q 50.984375 53.03125 60.84375 53.03125 
Q 68.5625 53.03125 72.703125 48.75 
Q 76.859375 44.484375 76.859375 35.59375 
L 76.859375 0 
L 68.109375 0 
L 68.109375 32.671875 
Q 68.109375 37.9375 67.25 40.25 
Q 66.40625 42.578125 64.15625 43.984375 
Q 61.921875 45.40625 58.890625 45.40625 
Q 53.421875 45.40625 49.796875 41.765625 
Q 46.1875 38.140625 46.1875 30.125 
L 46.1875 0 
L 37.40625 0 
L 37.40625 33.6875 
Q 37.40625 39.546875 35.25 42.46875 
Q 33.109375 45.40625 28.21875 45.40625 
Q 24.515625 45.40625 21.359375 43.453125 
Q 18.21875 41.5 16.796875 37.734375 
Q 15.375 33.984375 15.375 26.90625 
L 15.375 0 
z
" id="ArialMT-109"/>
      <path d="M 6.390625 0 
L 6.390625 71.578125 
L 15.1875 71.578125 
L 15.1875 0 
z
" id="ArialMT-108"/>
      <path d="M 1.953125 0 
L 1.953125 7.125 
L 34.96875 45.015625 
Q 29.34375 44.734375 25.046875 44.734375 
L 3.90625 44.734375 
L 3.90625 51.859375 
L 46.296875 51.859375 
L 46.296875 46.046875 
L 18.21875 13.140625 
L 12.796875 7.125 
Q 18.703125 7.5625 23.875 7.5625 
L 47.859375 7.5625 
L 47.859375 0 
z
" id="ArialMT-122"/>
      <path d="M 42.09375 16.703125 
L 51.171875 15.578125 
Q 49.03125 7.625 43.21875 3.21875 
Q 37.40625 -1.171875 28.375 -1.171875 
Q 17 -1.171875 10.328125 5.828125 
Q 3.65625 12.84375 3.65625 25.484375 
Q 3.65625 38.578125 10.390625 45.796875 
Q 17.140625 53.03125 27.875 53.03125 
Q 38.28125 53.03125 44.875 45.953125 
Q 51.46875 38.875 51.46875 26.03125 
Q 51.46875 25.25 51.421875 23.6875 
L 12.75 23.6875 
Q 13.234375 15.140625 17.578125 10.59375 
Q 21.921875 6.0625 28.421875 6.0625 
Q 33.25 6.0625 36.671875 8.59375 
Q 40.09375 11.140625 42.09375 16.703125 
z
M 13.234375 30.90625 
L 42.1875 30.90625 
Q 41.609375 37.453125 38.875 40.71875 
Q 34.671875 45.796875 27.984375 45.796875 
Q 21.921875 45.796875 17.796875 41.75 
Q 13.671875 37.703125 13.234375 30.90625 
z
" id="ArialMT-101"/>
      <path d="M 40.234375 0 
L 40.234375 6.546875 
Q 35.296875 -1.171875 25.734375 -1.171875 
Q 19.53125 -1.171875 14.328125 2.25 
Q 9.125 5.671875 6.265625 11.796875 
Q 3.421875 17.921875 3.421875 25.875 
Q 3.421875 33.640625 6 39.96875 
Q 8.59375 46.296875 13.765625 49.65625 
Q 18.953125 53.03125 25.34375 53.03125 
Q 30.03125 53.03125 33.6875 51.046875 
Q 37.359375 49.078125 39.65625 45.90625 
L 39.65625 71.578125 
L 48.390625 71.578125 
L 48.390625 0 
z
M 12.453125 25.875 
Q 12.453125 15.921875 16.640625 10.984375 
Q 20.84375 6.0625 26.5625 6.0625 
Q 32.328125 6.0625 36.34375 10.765625 
Q 40.375 15.484375 40.375 25.140625 
Q 40.375 35.796875 36.265625 40.765625 
Q 32.171875 45.75 26.171875 45.75 
Q 20.3125 45.75 16.375 40.96875 
Q 12.453125 36.1875 12.453125 25.875 
z
" id="ArialMT-100"/>
     </defs>
     <g transform="translate(18.8475 220.84875)rotate(-90)scale(0.16 -0.16)">
      <use xlink:href="#ArialMT-67"/>
      <use x="72.216797" xlink:href="#ArialMT-111"/>
      <use x="127.832031" xlink:href="#ArialMT-117"/>
      <use x="183.447266" xlink:href="#ArialMT-110"/>
      <use x="239.0625" xlink:href="#ArialMT-116"/>
      <use x="266.845703" xlink:href="#ArialMT-115"/>
      <use x="316.845703" xlink:href="#ArialMT-32"/>
      <use x="344.628906" xlink:href="#ArialMT-40"/>
      <use x="377.929688" xlink:href="#ArialMT-110"/>
      <use x="433.544922" xlink:href="#ArialMT-111"/>
      <use x="489.160156" xlink:href="#ArialMT-114"/>
      <use x="522.460938" xlink:href="#ArialMT-109"/>
      <use x="605.761719" xlink:href="#ArialMT-97"/>
      <use x="661.376953" xlink:href="#ArialMT-108"/>
      <use x="683.59375" xlink:href="#ArialMT-105"/>
      <use x="705.810547" xlink:href="#ArialMT-122"/>
      <use x="755.810547" xlink:href="#ArialMT-101"/>
      <use x="811.425781" xlink:href="#ArialMT-100"/>
      <use x="867.041016" xlink:href="#ArialMT-41"/>
     </g>
    </g>
   </g>
   <g id="line2d_13">
    <path clip-path="url(#pc3234a8d97)" d="M 28.123667 284.291595 
L 30.241106 283.86404 
L 32.358545 283.102818 
L 34.475984 281.824031 
L 36.593423 279.798528 
L 38.710862 276.776508 
L 40.828301 272.534873 
L 42.94574 266.944135 
L 45.063179 260.041722 
L 47.180618 252.089635 
L 49.298058 243.591626 
L 51.415497 235.252111 
L 53.532936 227.875613 
L 55.650375 222.22622 
L 57.767814 218.882561 
L 59.885253 218.127733 
L 62.002692 219.903081 
L 64.120131 223.834233 
L 66.23757 229.316037 
L 68.355009 235.628481 
L 70.472449 242.052351 
L 72.589888 247.960121 
L 74.707327 252.869506 
L 76.824766 256.45905 
L 78.942205 258.553669 
L 81.059644 259.092135 
L 83.177083 258.088749 
L 85.294522 255.599117 
L 87.411961 251.6963 
L 89.5294 246.459546 
L 91.64684 239.974367 
L 93.764279 232.340393 
L 95.881718 223.682704 
L 97.999157 214.162916 
L 100.116596 203.98749 
L 102.234035 193.411767 
L 104.351474 182.73832 
L 106.468913 172.307704 
L 108.586352 162.479342 
L 110.703792 153.601594 
L 112.821231 145.973558 
L 114.93867 139.806155 
L 117.056109 135.194105 
L 119.173548 132.110637 
L 121.290987 130.431381 
L 123.408426 129.984074 
L 125.525865 130.610038 
L 127.643304 132.216942 
L 129.760743 134.803486 
L 131.878183 138.445583 
L 133.995622 143.247148 
L 136.113061 149.271473 
L 138.2305 156.476493 
L 140.347939 164.676381 
L 142.465378 173.543374 
L 144.582817 182.650654 
L 146.700256 191.544068 
L 148.817695 199.821879 
L 150.935134 207.200182 
L 153.052574 213.547361 
L 155.170013 218.881574 
L 157.287452 223.336804 
L 159.404891 227.111431 
L 161.52233 230.416038 
L 163.639769 233.43395 
L 165.757208 236.301051 
L 167.874647 239.103777 
L 169.992086 241.888886 
L 172.109525 244.677061 
L 174.226965 247.474137 
L 176.344404 250.277333 
L 178.461843 253.07719 
L 180.579282 255.857726 
L 182.696721 258.597219 
L 184.81416 261.270584 
L 186.931599 263.852718 
L 189.049038 266.321265 
L 191.166477 268.657607 
L 193.283916 270.846011 
L 195.401356 272.872063 
L 197.518795 274.721939 
L 199.636234 276.383474 
L 201.753673 277.848808 
L 203.871112 279.117291 
L 205.988551 280.197048 
L 208.10599 281.104222 
L 210.223429 281.860065 
L 212.340868 282.487032 
L 214.458308 283.005359 
L 216.575747 283.431234 
L 218.693186 283.776782 
L 220.810625 284.051361 
L 222.928064 284.263227 
L 225.045503 284.420795 
L 227.162942 284.533087 
L 229.280381 284.609443 
L 231.39782 284.658835 
L 233.515259 284.68917 
L 235.632699 284.706834 
L 237.750138 284.716581 
" style="fill:none;stroke:#000000;stroke-linecap:square;stroke-width:3;"/>
   </g>
   <g id="line2d_14">
    <path clip-path="url(#pc3234a8d97)" d="M 119.51098 284.72625 
L 119.51098 133.87725 
" style="fill:none;stroke:#0000ff;stroke-linecap:square;stroke-width:4;"/>
   </g>
   <g id="patch_23">
    <path d="M 55.455 284.72625 
L 55.455 12.92625 
" style="fill:none;stroke:#000000;stroke-linecap:square;stroke-linejoin:miter;stroke-width:0.8;"/>
   </g>
   <g id="patch_24">
    <path d="M 461.273182 284.72625 
L 461.273182 12.92625 
" style="fill:none;stroke:#000000;stroke-linecap:square;stroke-linejoin:miter;stroke-width:0.8;"/>
   </g>
   <g id="patch_25">
    <path d="M 55.455 284.72625 
L 461.273182 284.72625 
" style="fill:none;stroke:#000000;stroke-linecap:square;stroke-linejoin:miter;stroke-width:0.8;"/>
   </g>
   <g id="patch_26">
    <path d="M 55.455 12.92625 
L 461.273182 12.92625 
" style="fill:none;stroke:#000000;stroke-linecap:square;stroke-linejoin:miter;stroke-width:0.8;"/>
   </g>
   <g id="legend_1">
    <g id="patch_27">
     <path d="M 316.633182 73.72625 
L 450.073182 73.72625 
Q 453.273182 73.72625 453.273182 70.52625 
L 453.273182 24.12625 
Q 453.273182 20.92625 450.073182 20.92625 
L 316.633182 20.92625 
Q 313.433182 20.92625 313.433182 24.12625 
L 313.433182 70.52625 
Q 313.433182 73.72625 316.633182 73.72625 
z
" style="fill:#ffffff;opacity:0.8;stroke:#cccccc;stroke-linejoin:miter;"/>
    </g>
    <g id="patch_28">
     <path d="M 319.833182 38.84625 
L 351.833182 38.84625 
L 351.833182 27.64625 
L 319.833182 27.64625 
z
" style="fill:#808080;stroke:#808080;stroke-linejoin:miter;"/>
    </g>
    <g id="text_15">
     <!-- AE$_{[O_2]}$ KDE -->
     <defs>
      <path d="M 7.328125 0 
L 7.328125 71.578125 
L 16.796875 71.578125 
L 16.796875 36.078125 
L 52.34375 71.578125 
L 65.1875 71.578125 
L 35.15625 42.578125 
L 66.5 0 
L 54 0 
L 28.515625 36.234375 
L 16.796875 24.8125 
L 16.796875 0 
z
" id="ArialMT-75"/>
      <path d="M 7.71875 0 
L 7.71875 71.578125 
L 32.375 71.578125 
Q 40.71875 71.578125 45.125 70.5625 
Q 51.265625 69.140625 55.609375 65.4375 
Q 61.28125 60.640625 64.078125 53.1875 
Q 66.890625 45.75 66.890625 36.1875 
Q 66.890625 28.03125 64.984375 21.734375 
Q 63.09375 15.4375 60.109375 11.296875 
Q 57.125 7.171875 53.578125 4.796875 
Q 50.046875 2.4375 45.046875 1.21875 
Q 40.046875 0 33.546875 0 
z
M 17.1875 8.453125 
L 32.46875 8.453125 
Q 39.546875 8.453125 43.578125 9.765625 
Q 47.609375 11.078125 50 13.484375 
Q 53.375 16.84375 55.25 22.53125 
Q 57.125 28.21875 57.125 36.328125 
Q 57.125 47.5625 53.4375 53.59375 
Q 49.75 59.625 44.484375 61.671875 
Q 40.671875 63.140625 32.234375 63.140625 
L 17.1875 63.140625 
z
" id="ArialMT-68"/>
     </defs>
     <g transform="translate(364.633182 38.84625)scale(0.16 -0.16)">
      <use transform="translate(0 0.421875)" xlink:href="#ArialMT-65"/>
      <use transform="translate(66.699219 0.421875)" xlink:href="#ArialMT-69"/>
      <use transform="translate(134.355469 -15.984375)scale(0.7)" xlink:href="#DejaVuSans-91"/>
      <use transform="translate(161.665039 -15.984375)scale(0.7)" xlink:href="#DejaVuSans-Oblique-79"/>
      <use transform="translate(216.762695 -27.46875)scale(0.49)" xlink:href="#DejaVuSans-50"/>
      <use transform="translate(249.852051 -15.984375)scale(0.7)" xlink:href="#DejaVuSans-93"/>
      <use transform="translate(279.895996 0.421875)" xlink:href="#ArialMT-32"/>
      <use transform="translate(307.679199 0.421875)" xlink:href="#ArialMT-75"/>
      <use transform="translate(374.378418 0.421875)" xlink:href="#ArialMT-68"/>
      <use transform="translate(446.595215 0.421875)" xlink:href="#ArialMT-69"/>
     </g>
    </g>
    <g id="line2d_15">
     <path d="M 319.833182 57.24625 
L 351.833182 57.24625 
" style="fill:none;stroke:#0000ff;stroke-linecap:square;stroke-width:4;"/>
    </g>
    <g id="line2d_16"/>
    <g id="text_16">
     <!-- MAE$_{[O_2]}$ -->
     <defs>
      <path d="M 7.421875 0 
L 7.421875 71.578125 
L 21.6875 71.578125 
L 38.625 20.90625 
Q 40.96875 13.8125 42.046875 10.296875 
Q 43.265625 14.203125 45.84375 21.78125 
L 62.984375 71.578125 
L 75.734375 71.578125 
L 75.734375 0 
L 66.609375 0 
L 66.609375 59.90625 
L 45.796875 0 
L 37.25 0 
L 16.546875 60.9375 
L 16.546875 0 
z
" id="ArialMT-77"/>
     </defs>
     <g transform="translate(364.633182 62.84625)scale(0.16 -0.16)">
      <use transform="translate(0 0.421875)" xlink:href="#ArialMT-77"/>
      <use transform="translate(83.300781 0.421875)" xlink:href="#ArialMT-65"/>
      <use transform="translate(150 0.421875)" xlink:href="#ArialMT-69"/>
      <use transform="translate(217.65625 -15.984375)scale(0.7)" xlink:href="#DejaVuSans-91"/>
      <use transform="translate(244.96582 -15.984375)scale(0.7)" xlink:href="#DejaVuSans-Oblique-79"/>
      <use transform="translate(300.063477 -27.46875)scale(0.49)" xlink:href="#DejaVuSans-50"/>
      <use transform="translate(333.152832 -15.984375)scale(0.7)" xlink:href="#DejaVuSans-93"/>
     </g>
    </g>
   </g>
  </g>
  <g id="axes_2">
   <g id="patch_29">
    <path d="M 542.436818 284.72625 
L 948.255 284.72625 
L 948.255 12.92625 
L 542.436818 12.92625 
z
" style="fill:#ffffff;"/>
   </g>
   <g id="patch_30">
    <path clip-path="url(#paa7bf7b71a)" d="M 542.59394 284.72625 
L 549.868158 284.72625 
L 549.868158 200.485512 
L 542.59394 200.485512 
z
" style="fill:#808080;"/>
   </g>
   <g id="patch_31">
    <path clip-path="url(#paa7bf7b71a)" d="M 549.868158 284.72625 
L 557.142375 284.72625 
L 557.142375 240.600149 
L 549.868158 240.600149 
z
" style="fill:#808080;"/>
   </g>
   <g id="patch_32">
    <path clip-path="url(#paa7bf7b71a)" d="M 557.142375 284.72625 
L 564.416593 284.72625 
L 564.416593 236.588686 
L 557.142375 236.588686 
z
" style="fill:#808080;"/>
   </g>
   <g id="patch_33">
    <path clip-path="url(#paa7bf7b71a)" d="M 564.416593 284.72625 
L 571.69081 284.72625 
L 571.69081 266.674663 
L 564.416593 266.674663 
z
" style="fill:#808080;"/>
   </g>
   <g id="patch_34">
    <path clip-path="url(#paa7bf7b71a)" d="M 571.69081 284.72625 
L 578.965028 284.72625 
L 578.965028 244.611613 
L 571.69081 244.611613 
z
" style="fill:#808080;"/>
   </g>
   <g id="patch_35">
    <path clip-path="url(#paa7bf7b71a)" d="M 578.965028 284.72625 
L 586.239246 284.72625 
L 586.239246 240.600149 
L 578.965028 240.600149 
z
" style="fill:#808080;"/>
   </g>
   <g id="patch_36">
    <path clip-path="url(#paa7bf7b71a)" d="M 586.239246 284.72625 
L 593.513463 284.72625 
L 593.513463 238.594418 
L 586.239246 238.594418 
z
" style="fill:#808080;"/>
   </g>
   <g id="patch_37">
    <path clip-path="url(#paa7bf7b71a)" d="M 593.513463 284.72625 
L 600.787681 284.72625 
L 600.787681 234.582954 
L 593.513463 234.582954 
z
" style="fill:#808080;"/>
   </g>
   <g id="patch_38">
    <path clip-path="url(#paa7bf7b71a)" d="M 600.787681 284.72625 
L 608.061898 284.72625 
L 608.061898 184.439658 
L 600.787681 184.439658 
z
" style="fill:#808080;"/>
   </g>
   <g id="patch_39">
    <path clip-path="url(#paa7bf7b71a)" d="M 608.061898 284.72625 
L 615.336116 284.72625 
L 615.336116 150.342216 
L 608.061898 150.342216 
z
" style="fill:#808080;"/>
   </g>
   <g id="patch_40">
    <path clip-path="url(#paa7bf7b71a)" d="M 615.336116 284.72625 
L 622.610334 284.72625 
L 622.610334 88.164529 
L 615.336116 88.164529 
z
" style="fill:#808080;"/>
   </g>
   <g id="patch_41">
    <path clip-path="url(#paa7bf7b71a)" d="M 622.610334 284.72625 
L 629.884551 284.72625 
L 629.884551 76.130138 
L 622.610334 76.130138 
z
" style="fill:#808080;"/>
   </g>
   <g id="patch_42">
    <path clip-path="url(#paa7bf7b71a)" d="M 629.884551 284.72625 
L 637.158769 284.72625 
L 637.158769 110.227579 
L 629.884551 110.227579 
z
" style="fill:#808080;"/>
   </g>
   <g id="patch_43">
    <path clip-path="url(#paa7bf7b71a)" d="M 637.158769 284.72625 
L 644.432986 284.72625 
L 644.432986 186.445389 
L 637.158769 186.445389 
z
" style="fill:#808080;"/>
   </g>
   <g id="patch_44">
    <path clip-path="url(#paa7bf7b71a)" d="M 644.432986 284.72625 
L 651.707204 284.72625 
L 651.707204 240.600149 
L 644.432986 240.600149 
z
" style="fill:#808080;"/>
   </g>
   <g id="patch_45">
    <path clip-path="url(#paa7bf7b71a)" d="M 651.707204 284.72625 
L 658.981421 284.72625 
L 658.981421 256.646004 
L 651.707204 256.646004 
z
" style="fill:#808080;"/>
   </g>
   <g id="patch_46">
    <path clip-path="url(#paa7bf7b71a)" d="M 658.981421 284.72625 
L 666.255639 284.72625 
L 666.255639 262.6632 
L 658.981421 262.6632 
z
" style="fill:#808080;"/>
   </g>
   <g id="patch_47">
    <path clip-path="url(#paa7bf7b71a)" d="M 666.255639 284.72625 
L 673.529857 284.72625 
L 673.529857 266.674663 
L 666.255639 266.674663 
z
" style="fill:#808080;"/>
   </g>
   <g id="patch_48">
    <path clip-path="url(#paa7bf7b71a)" d="M 673.529857 284.72625 
L 680.804074 284.72625 
L 680.804074 280.714786 
L 673.529857 280.714786 
z
" style="fill:#808080;"/>
   </g>
   <g id="patch_49">
    <path clip-path="url(#paa7bf7b71a)" d="M 680.804074 284.72625 
L 688.078292 284.72625 
L 688.078292 282.720518 
L 680.804074 282.720518 
z
" style="fill:#808080;"/>
   </g>
   <g id="patch_50">
    <path clip-path="url(#paa7bf7b71a)" d="M 688.078292 284.72625 
L 695.352509 284.72625 
L 695.352509 282.720518 
L 688.078292 282.720518 
z
" style="fill:#808080;"/>
   </g>
   <g id="patch_51">
    <path clip-path="url(#paa7bf7b71a)" d="M 695.352509 284.72625 
L 702.626727 284.72625 
L 702.626727 278.709054 
L 695.352509 278.709054 
z
" style="fill:#808080;"/>
   </g>
   <g id="patch_52">
    <path clip-path="url(#paa7bf7b71a)" d="M 702.626727 284.72625 
L 709.900945 284.72625 
L 709.900945 282.720518 
L 702.626727 282.720518 
z
" style="fill:#808080;"/>
   </g>
   <g id="patch_53">
    <path clip-path="url(#paa7bf7b71a)" d="M 709.900945 284.72625 
L 717.175162 284.72625 
L 717.175162 274.697591 
L 709.900945 274.697591 
z
" style="fill:#808080;"/>
   </g>
   <g id="patch_54">
    <path clip-path="url(#paa7bf7b71a)" d="M 717.175162 284.72625 
L 724.44938 284.72625 
L 724.44938 278.709054 
L 717.175162 278.709054 
z
" style="fill:#808080;"/>
   </g>
   <g id="patch_55">
    <path clip-path="url(#paa7bf7b71a)" d="M 724.44938 284.72625 
L 731.723597 284.72625 
L 731.723597 270.686127 
L 724.44938 270.686127 
z
" style="fill:#808080;"/>
   </g>
   <g id="patch_56">
    <path clip-path="url(#paa7bf7b71a)" d="M 731.723597 284.72625 
L 738.997815 284.72625 
L 738.997815 282.720518 
L 731.723597 282.720518 
z
" style="fill:#808080;"/>
   </g>
   <g id="patch_57">
    <path clip-path="url(#paa7bf7b71a)" d="M 738.997815 284.72625 
L 746.272032 284.72625 
L 746.272032 278.709054 
L 738.997815 278.709054 
z
" style="fill:#808080;"/>
   </g>
   <g id="patch_58">
    <path clip-path="url(#paa7bf7b71a)" d="M 746.272032 284.72625 
L 753.54625 284.72625 
L 753.54625 280.714786 
L 746.272032 280.714786 
z
" style="fill:#808080;"/>
   </g>
   <g id="patch_59">
    <path clip-path="url(#paa7bf7b71a)" d="M 753.54625 284.72625 
L 760.820468 284.72625 
L 760.820468 282.720518 
L 753.54625 282.720518 
z
" style="fill:#808080;"/>
   </g>
   <g id="patch_60">
    <path clip-path="url(#paa7bf7b71a)" d="M 760.820468 284.72625 
L 768.094685 284.72625 
L 768.094685 278.709054 
L 760.820468 278.709054 
z
" style="fill:#808080;"/>
   </g>
   <g id="patch_61">
    <path clip-path="url(#paa7bf7b71a)" d="M 768.094685 284.72625 
L 775.368903 284.72625 
L 775.368903 280.714786 
L 768.094685 280.714786 
z
" style="fill:#808080;"/>
   </g>
   <g id="patch_62">
    <path clip-path="url(#paa7bf7b71a)" d="M 775.368903 284.72625 
L 782.64312 284.72625 
L 782.64312 272.691859 
L 775.368903 272.691859 
z
" style="fill:#808080;"/>
   </g>
   <g id="patch_63">
    <path clip-path="url(#paa7bf7b71a)" d="M 782.64312 284.72625 
L 789.917338 284.72625 
L 789.917338 284.72625 
L 782.64312 284.72625 
z
" style="fill:#808080;"/>
   </g>
   <g id="patch_64">
    <path clip-path="url(#paa7bf7b71a)" d="M 789.917338 284.72625 
L 797.191556 284.72625 
L 797.191556 278.709054 
L 789.917338 278.709054 
z
" style="fill:#808080;"/>
   </g>
   <g id="patch_65">
    <path clip-path="url(#paa7bf7b71a)" d="M 797.191556 284.72625 
L 804.465773 284.72625 
L 804.465773 280.714786 
L 797.191556 280.714786 
z
" style="fill:#808080;"/>
   </g>
   <g id="patch_66">
    <path clip-path="url(#paa7bf7b71a)" d="M 804.465773 284.72625 
L 811.739991 284.72625 
L 811.739991 280.714786 
L 804.465773 280.714786 
z
" style="fill:#808080;"/>
   </g>
   <g id="patch_67">
    <path clip-path="url(#paa7bf7b71a)" d="M 811.739991 284.72625 
L 819.014208 284.72625 
L 819.014208 282.720518 
L 811.739991 282.720518 
z
" style="fill:#808080;"/>
   </g>
   <g id="patch_68">
    <path clip-path="url(#paa7bf7b71a)" d="M 819.014208 284.72625 
L 826.288426 284.72625 
L 826.288426 282.720518 
L 819.014208 282.720518 
z
" style="fill:#808080;"/>
   </g>
   <g id="patch_69">
    <path clip-path="url(#paa7bf7b71a)" d="M 826.288426 284.72625 
L 833.562643 284.72625 
L 833.562643 280.714786 
L 826.288426 280.714786 
z
" style="fill:#808080;"/>
   </g>
   <g id="patch_70">
    <path clip-path="url(#paa7bf7b71a)" d="M 833.562643 284.72625 
L 840.836861 284.72625 
L 840.836861 282.720518 
L 833.562643 282.720518 
z
" style="fill:#808080;"/>
   </g>
   <g id="patch_71">
    <path clip-path="url(#paa7bf7b71a)" d="M 840.836861 284.72625 
L 848.111079 284.72625 
L 848.111079 280.714786 
L 840.836861 280.714786 
z
" style="fill:#808080;"/>
   </g>
   <g id="patch_72">
    <path clip-path="url(#paa7bf7b71a)" d="M 848.111079 284.72625 
L 855.385296 284.72625 
L 855.385296 278.709054 
L 848.111079 278.709054 
z
" style="fill:#808080;"/>
   </g>
   <g id="matplotlib.axis_3">
    <g id="xtick_7">
     <g id="line2d_17">
      <g>
       <use style="stroke:#000000;stroke-width:0.8;" x="542.436818" xlink:href="#m391f96ab95" y="284.72625"/>
      </g>
     </g>
     <g id="text_17">
      <!-- 0 -->
      <g transform="translate(537.988068 303.17875)scale(0.16 -0.16)">
       <use xlink:href="#ArialMT-48"/>
      </g>
     </g>
    </g>
    <g id="xtick_8">
     <g id="line2d_18">
      <g>
       <use style="stroke:#000000;stroke-width:0.8;" x="623.600455" xlink:href="#m391f96ab95" y="284.72625"/>
      </g>
     </g>
     <g id="text_18">
      <!-- 2 -->
      <g transform="translate(619.151705 303.17875)scale(0.16 -0.16)">
       <use xlink:href="#ArialMT-50"/>
      </g>
     </g>
    </g>
    <g id="xtick_9">
     <g id="line2d_19">
      <g>
       <use style="stroke:#000000;stroke-width:0.8;" x="704.764091" xlink:href="#m391f96ab95" y="284.72625"/>
      </g>
     </g>
     <g id="text_19">
      <!-- 4 -->
      <g transform="translate(700.315341 303.17875)scale(0.16 -0.16)">
       <use xlink:href="#ArialMT-52"/>
      </g>
     </g>
    </g>
    <g id="xtick_10">
     <g id="line2d_20">
      <g>
       <use style="stroke:#000000;stroke-width:0.8;" x="785.927727" xlink:href="#m391f96ab95" y="284.72625"/>
      </g>
     </g>
     <g id="text_20">
      <!-- 6 -->
      <g transform="translate(781.478977 303.17875)scale(0.16 -0.16)">
       <use xlink:href="#ArialMT-54"/>
      </g>
     </g>
    </g>
    <g id="xtick_11">
     <g id="line2d_21">
      <g>
       <use style="stroke:#000000;stroke-width:0.8;" x="867.091364" xlink:href="#m391f96ab95" y="284.72625"/>
      </g>
     </g>
     <g id="text_21">
      <!-- 8 -->
      <g transform="translate(862.642614 303.17875)scale(0.16 -0.16)">
       <use xlink:href="#ArialMT-56"/>
      </g>
     </g>
    </g>
    <g id="xtick_12">
     <g id="line2d_22">
      <g>
       <use style="stroke:#000000;stroke-width:0.8;" x="948.255" xlink:href="#m391f96ab95" y="284.72625"/>
      </g>
     </g>
     <g id="text_22">
      <!-- 10 -->
      <g transform="translate(939.3575 303.17875)scale(0.16 -0.16)">
       <use xlink:href="#ArialMT-49"/>
       <use x="55.615234" xlink:href="#ArialMT-48"/>
      </g>
     </g>
    </g>
    <g id="text_23">
     <!-- $AE_T$ ($^\circ$C) -->
     <defs>
      <path d="M 36.8125 72.90625 
L 48 72.90625 
L 61.53125 0 
L 51.21875 0 
L 48.1875 18.703125 
L 15.375 18.703125 
L 5.078125 0 
L -5.328125 0 
z
M 40.375 63.1875 
L 19.921875 26.90625 
L 46.6875 26.90625 
z
" id="DejaVuSans-Oblique-65"/>
      <path d="M 16.890625 72.90625 
L 62.984375 72.90625 
L 61.375 64.59375 
L 25.09375 64.59375 
L 20.90625 43.015625 
L 55.71875 43.015625 
L 54.109375 34.71875 
L 19.28125 34.71875 
L 14.203125 8.296875 
L 51.3125 8.296875 
L 49.703125 0 
L 2.6875 0 
z
" id="DejaVuSans-Oblique-69"/>
      <path d="M 5.90625 72.90625 
L 67.578125 72.90625 
L 66.015625 64.59375 
L 39.984375 64.59375 
L 27.484375 0 
L 17.578125 0 
L 30.078125 64.59375 
L 4.296875 64.59375 
z
" id="DejaVuSans-Oblique-84"/>
      <path d="M 31.25 40.921875 
Q 27.34375 40.921875 24.65625 38.203125 
Q 21.96875 35.5 21.96875 31.59375 
Q 21.96875 27.734375 24.65625 25.078125 
Q 27.34375 22.421875 31.25 22.421875 
Q 35.15625 22.421875 37.84375 25.078125 
Q 40.53125 27.734375 40.53125 31.59375 
Q 40.53125 35.453125 37.8125 38.1875 
Q 35.109375 40.921875 31.25 40.921875 
z
M 31.25 47.21875 
Q 34.375 47.21875 37.25 46.015625 
Q 40.140625 44.828125 42.234375 42.578125 
Q 44.484375 40.390625 45.609375 37.59375 
Q 46.734375 34.8125 46.734375 31.59375 
Q 46.734375 25.15625 42.21875 20.6875 
Q 37.703125 16.21875 31.15625 16.21875 
Q 24.5625 16.21875 20.15625 20.609375 
Q 15.765625 25 15.765625 31.59375 
Q 15.765625 38.140625 20.25 42.671875 
Q 24.75 47.21875 31.25 47.21875 
z
" id="DejaVuSans-8728"/>
     </defs>
     <g transform="translate(711.825909 322.03875)scale(0.16 -0.16)">
      <use transform="translate(0 0.09375)" xlink:href="#DejaVuSans-Oblique-65"/>
      <use transform="translate(68.408203 0.09375)" xlink:href="#DejaVuSans-Oblique-69"/>
      <use transform="translate(131.591797 -16.3125)scale(0.7)" xlink:href="#DejaVuSans-Oblique-84"/>
      <use transform="translate(177.084961 0.09375)" xlink:href="#ArialMT-32"/>
      <use transform="translate(204.868164 0.09375)" xlink:href="#ArialMT-40"/>
      <use transform="translate(252.763672 38.375)scale(0.7)" xlink:href="#DejaVuSans-8728"/>
      <use transform="translate(312.954102 0.09375)" xlink:href="#ArialMT-67"/>
      <use transform="translate(385.170898 0.09375)" xlink:href="#ArialMT-41"/>
     </g>
    </g>
   </g>
   <g id="matplotlib.axis_4">
    <g id="ytick_7">
     <g id="line2d_23">
      <g>
       <use style="stroke:#000000;stroke-width:0.8;" x="542.436818" xlink:href="#m1ffdac630f" y="284.72625"/>
      </g>
     </g>
     <g id="text_24">
      <!-- 0.0 -->
      <g transform="translate(513.196818 290.4525)scale(0.16 -0.16)">
       <use xlink:href="#ArialMT-48"/>
       <use x="55.615234" xlink:href="#ArialMT-46"/>
       <use x="83.398438" xlink:href="#ArialMT-48"/>
      </g>
     </g>
    </g>
    <g id="ytick_8">
     <g id="line2d_24">
      <g>
       <use style="stroke:#000000;stroke-width:0.8;" x="542.436818" xlink:href="#m1ffdac630f" y="230.36625"/>
      </g>
     </g>
     <g id="text_25">
      <!-- 0.2 -->
      <g transform="translate(513.196818 236.0925)scale(0.16 -0.16)">
       <use xlink:href="#ArialMT-48"/>
       <use x="55.615234" xlink:href="#ArialMT-46"/>
       <use x="83.398438" xlink:href="#ArialMT-50"/>
      </g>
     </g>
    </g>
    <g id="ytick_9">
     <g id="line2d_25">
      <g>
       <use style="stroke:#000000;stroke-width:0.8;" x="542.436818" xlink:href="#m1ffdac630f" y="176.00625"/>
      </g>
     </g>
     <g id="text_26">
      <!-- 0.4 -->
      <g transform="translate(513.196818 181.7325)scale(0.16 -0.16)">
       <use xlink:href="#ArialMT-48"/>
       <use x="55.615234" xlink:href="#ArialMT-46"/>
       <use x="83.398438" xlink:href="#ArialMT-52"/>
      </g>
     </g>
    </g>
    <g id="ytick_10">
     <g id="line2d_26">
      <g>
       <use style="stroke:#000000;stroke-width:0.8;" x="542.436818" xlink:href="#m1ffdac630f" y="121.64625"/>
      </g>
     </g>
     <g id="text_27">
      <!-- 0.6 -->
      <g transform="translate(513.196818 127.3725)scale(0.16 -0.16)">
       <use xlink:href="#ArialMT-48"/>
       <use x="55.615234" xlink:href="#ArialMT-46"/>
       <use x="83.398438" xlink:href="#ArialMT-54"/>
      </g>
     </g>
    </g>
    <g id="ytick_11">
     <g id="line2d_27">
      <g>
       <use style="stroke:#000000;stroke-width:0.8;" x="542.436818" xlink:href="#m1ffdac630f" y="67.28625"/>
      </g>
     </g>
     <g id="text_28">
      <!-- 0.8 -->
      <g transform="translate(513.196818 73.0125)scale(0.16 -0.16)">
       <use xlink:href="#ArialMT-48"/>
       <use x="55.615234" xlink:href="#ArialMT-46"/>
       <use x="83.398438" xlink:href="#ArialMT-56"/>
      </g>
     </g>
    </g>
    <g id="ytick_12">
     <g id="line2d_28">
      <g>
       <use style="stroke:#000000;stroke-width:0.8;" x="542.436818" xlink:href="#m1ffdac630f" y="12.92625"/>
      </g>
     </g>
     <g id="text_29">
      <!-- 1.0 -->
      <g transform="translate(513.196818 18.6525)scale(0.16 -0.16)">
       <use xlink:href="#ArialMT-49"/>
       <use x="55.615234" xlink:href="#ArialMT-46"/>
       <use x="83.398438" xlink:href="#ArialMT-48"/>
      </g>
     </g>
    </g>
   </g>
   <g id="line2d_29">
    <path clip-path="url(#paa7bf7b71a)" d="M 502.215221 284.634057 
L 506.190461 284.49148 
L 510.165702 284.175516 
L 514.140942 283.535429 
L 518.116182 282.35125 
L 522.091423 280.353359 
L 526.066663 277.285304 
L 530.041903 273.008891 
L 534.017144 267.621104 
L 537.992384 261.525313 
L 541.967624 255.397902 
L 545.942865 250.029746 
L 549.918105 246.08681 
L 553.893345 243.887137 
L 557.868586 243.294621 
L 561.843826 243.775305 
L 565.819066 244.581021 
L 569.794307 244.966643 
L 573.769547 244.343528 
L 577.744788 242.319622 
L 581.720028 238.643636 
L 585.695268 233.118243 
L 589.670509 225.553704 
L 593.645749 215.80251 
L 597.620989 203.869663 
L 601.59623 190.05574 
L 605.57147 175.073136 
L 609.54671 160.079214 
L 613.521951 146.588648 
L 617.497191 136.258403 
L 621.472431 130.579595 
L 625.447672 130.550633 
L 629.422912 136.427727 
L 633.398152 147.63654 
L 637.373393 162.881647 
L 641.348633 180.425914 
L 645.323873 198.456319 
L 649.299114 215.428732 
L 653.274354 230.299344 
L 657.249594 242.596066 
L 661.224835 252.339406 
L 665.200075 259.867423 
L 669.175316 265.638569 
L 673.150556 270.076473 
L 677.125796 273.490318 
L 681.101037 276.068836 
L 685.076277 277.920303 
L 689.051517 279.123458 
L 693.026758 279.763381 
L 697.001998 279.943415 
L 700.977238 279.779027 
L 704.952479 279.385929 
L 708.927719 278.872271 
L 712.902959 278.337322 
L 716.8782 277.872216 
L 720.85344 277.556386 
L 724.82868 277.447068 
L 728.803921 277.565728 
L 732.779161 277.889493 
L 736.754401 278.354228 
L 740.729642 278.869912 
L 744.704882 279.342901 
L 748.680122 279.697556 
L 752.655363 279.891702 
L 756.630603 279.923649 
L 760.605844 279.830238 
L 764.581084 279.676018 
L 768.556324 279.534889 
L 772.531565 279.468596 
L 776.506805 279.509434 
L 780.482045 279.654462 
L 784.457286 279.873807 
L 788.432526 280.128331 
L 792.407766 280.38681 
L 796.383007 280.633896 
L 800.358247 280.866766 
L 804.333487 281.085704 
L 808.308728 281.286528 
L 812.283968 281.459512 
L 816.259208 281.593701 
L 820.234449 281.682148 
L 824.209689 281.724578 
L 828.184929 281.727522 
L 832.16017 281.704244 
L 836.13541 281.675862 
L 840.110651 281.672022 
L 844.085891 281.727711 
L 848.061131 281.874436 
L 852.036372 282.128301 
L 856.011612 282.481014 
L 859.986852 282.899475 
L 863.962093 283.335171 
L 867.937333 283.739169 
L 871.912573 284.075719 
L 875.887814 284.329028 
L 879.863054 284.501943 
L 883.838294 284.609279 
L 887.813535 284.669982 
L 891.788775 284.701304 
L 895.764015 284.716064 
" style="fill:none;stroke:#000000;stroke-linecap:square;stroke-width:3;"/>
   </g>
   <g id="line2d_30">
    <path clip-path="url(#paa7bf7b71a)" d="M 622.723236 284.72625 
L 622.723236 132.51825 
" style="fill:none;stroke:#0000ff;stroke-linecap:square;stroke-width:4;"/>
   </g>
   <g id="patch_73">
    <path d="M 542.436818 284.72625 
L 542.436818 12.92625 
" style="fill:none;stroke:#000000;stroke-linecap:square;stroke-linejoin:miter;stroke-width:0.8;"/>
   </g>
   <g id="patch_74">
    <path d="M 948.255 284.72625 
L 948.255 12.92625 
" style="fill:none;stroke:#000000;stroke-linecap:square;stroke-linejoin:miter;stroke-width:0.8;"/>
   </g>
   <g id="patch_75">
    <path d="M 542.436818 284.72625 
L 948.255 284.72625 
" style="fill:none;stroke:#000000;stroke-linecap:square;stroke-linejoin:miter;stroke-width:0.8;"/>
   </g>
   <g id="patch_76">
    <path d="M 542.436818 12.92625 
L 948.255 12.92625 
" style="fill:none;stroke:#000000;stroke-linecap:square;stroke-linejoin:miter;stroke-width:0.8;"/>
   </g>
   <g id="legend_2">
    <g id="patch_77">
     <path d="M 820.095 70.99125 
L 937.055 70.99125 
Q 940.255 70.99125 940.255 67.79125 
L 940.255 24.12625 
Q 940.255 20.92625 937.055 20.92625 
L 820.095 20.92625 
Q 816.895 20.92625 816.895 24.12625 
L 816.895 67.79125 
Q 816.895 70.99125 820.095 70.99125 
z
" style="fill:#ffffff;opacity:0.8;stroke:#cccccc;stroke-linejoin:miter;"/>
    </g>
    <g id="patch_78">
     <path d="M 823.295 38.77875 
L 855.295 38.77875 
L 855.295 27.57875 
L 823.295 27.57875 
z
" style="fill:#808080;stroke:#808080;stroke-linejoin:miter;"/>
    </g>
    <g id="text_30">
     <!-- $AE_T$ KDE -->
     <g transform="translate(868.095 38.77875)scale(0.16 -0.16)">
      <use transform="translate(0 0.09375)" xlink:href="#DejaVuSans-Oblique-65"/>
      <use transform="translate(68.408203 0.09375)" xlink:href="#DejaVuSans-Oblique-69"/>
      <use transform="translate(131.591797 -16.3125)scale(0.7)" xlink:href="#DejaVuSans-Oblique-84"/>
      <use transform="translate(177.084961 0.09375)" xlink:href="#ArialMT-32"/>
      <use transform="translate(204.868164 0.09375)" xlink:href="#ArialMT-75"/>
      <use transform="translate(271.567383 0.09375)" xlink:href="#ArialMT-68"/>
      <use transform="translate(343.78418 0.09375)" xlink:href="#ArialMT-69"/>
     </g>
    </g>
    <g id="line2d_31">
     <path d="M 823.295 55.81125 
L 855.295 55.81125 
" style="fill:none;stroke:#0000ff;stroke-linecap:square;stroke-width:4;"/>
    </g>
    <g id="line2d_32"/>
    <g id="text_31">
     <!-- MAE$_T$ -->
     <g transform="translate(868.095 61.41125)scale(0.16 -0.16)">
      <use transform="translate(0 0.421875)" xlink:href="#ArialMT-77"/>
      <use transform="translate(83.300781 0.421875)" xlink:href="#ArialMT-65"/>
      <use transform="translate(150 0.421875)" xlink:href="#ArialMT-69"/>
      <use transform="translate(217.65625 -15.984375)scale(0.7)" xlink:href="#DejaVuSans-Oblique-84"/>
     </g>
    </g>
   </g>
  </g>
 </g>
 <defs>
  <clipPath id="pc3234a8d97">
   <rect height="271.8" width="405.818182" x="55.455" y="12.92625"/>
  </clipPath>
  <clipPath id="paa7bf7b71a">
   <rect height="271.8" width="405.818182" x="542.436818" y="12.92625"/>
  </clipPath>
 </defs>
</svg>
