<?xml version="1.0" encoding="utf-8" standalone="no"?>
<!DOCTYPE svg PUBLIC "-//W3C//DTD SVG 1.1//EN"
  "http://www.w3.org/Graphics/SVG/1.1/DTD/svg11.dtd">
<!-- Created with matplotlib (https://matplotlib.org/) -->
<svg height="335.40375pt" version="1.1" viewBox="0 0 961.6775 335.40375" width="961.6775pt" xmlns="http://www.w3.org/2000/svg" xmlns:xlink="http://www.w3.org/1999/xlink">
 <defs>
  <style type="text/css">
*{stroke-linecap:butt;stroke-linejoin:round;white-space:pre;}
  </style>
 </defs>
 <g id="figure_1">
  <g id="patch_1">
   <path d="M 0 335.40375 
L 961.6775 335.40375 
L 961.6775 0 
L 0 0 
z
" style="fill:#ffffff;"/>
  </g>
  <g id="axes_1">
   <g id="patch_2">
    <path d="M 43.865 285.07875 
L 449.683182 285.07875 
L 449.683182 13.27875 
L 43.865 13.27875 
z
" style="fill:#ffffff;"/>
   </g>
   <g id="patch_3">
    <path clip-path="url(#pb2a7559320)" d="M 43.981952 285.07875 
L 57.512826 285.07875 
L 57.512826 44.256603 
L 43.981952 44.256603 
z
" style="fill:#808080;opacity:0.4;"/>
   </g>
   <g id="patch_4">
    <path clip-path="url(#pb2a7559320)" d="M 57.512826 285.07875 
L 71.0437 285.07875 
L 71.0437 101.021823 
L 57.512826 101.021823 
z
" style="fill:#808080;opacity:0.4;"/>
   </g>
   <g id="patch_5">
    <path clip-path="url(#pb2a7559320)" d="M 71.0437 285.07875 
L 84.574575 285.07875 
L 84.574575 168.107993 
L 71.0437 168.107993 
z
" style="fill:#808080;opacity:0.4;"/>
   </g>
   <g id="patch_6">
    <path clip-path="url(#pb2a7559320)" d="M 84.574575 285.07875 
L 98.105449 285.07875 
L 98.105449 159.507202 
L 84.574575 159.507202 
z
" style="fill:#808080;opacity:0.4;"/>
   </g>
   <g id="patch_7">
    <path clip-path="url(#pb2a7559320)" d="M 98.105449 285.07875 
L 111.636323 285.07875 
L 111.636323 161.22736 
L 98.105449 161.22736 
z
" style="fill:#808080;opacity:0.4;"/>
   </g>
   <g id="patch_8">
    <path clip-path="url(#pb2a7559320)" d="M 111.636323 285.07875 
L 125.167197 285.07875 
L 125.167197 180.1491 
L 111.636323 180.1491 
z
" style="fill:#808080;opacity:0.4;"/>
   </g>
   <g id="patch_9">
    <path clip-path="url(#pb2a7559320)" d="M 125.167197 285.07875 
L 138.698071 285.07875 
L 138.698071 190.470049 
L 125.167197 190.470049 
z
" style="fill:#808080;opacity:0.4;"/>
   </g>
   <g id="patch_10">
    <path clip-path="url(#pb2a7559320)" d="M 138.698071 285.07875 
L 152.228945 285.07875 
L 152.228945 230.033688 
L 138.698071 230.033688 
z
" style="fill:#808080;opacity:0.4;"/>
   </g>
   <g id="patch_11">
    <path clip-path="url(#pb2a7559320)" d="M 152.228945 285.07875 
L 165.75982 285.07875 
L 165.75982 247.23527 
L 152.228945 247.23527 
z
" style="fill:#808080;opacity:0.4;"/>
   </g>
   <g id="patch_12">
    <path clip-path="url(#pb2a7559320)" d="M 165.75982 285.07875 
L 179.290694 285.07875 
L 179.290694 257.556219 
L 165.75982 257.556219 
z
" style="fill:#808080;opacity:0.4;"/>
   </g>
   <g id="patch_13">
    <path clip-path="url(#pb2a7559320)" d="M 179.290694 285.07875 
L 192.821568 285.07875 
L 192.821568 271.317484 
L 179.290694 271.317484 
z
" style="fill:#808080;opacity:0.4;"/>
   </g>
   <g id="patch_14">
    <path clip-path="url(#pb2a7559320)" d="M 192.821568 285.07875 
L 206.352442 285.07875 
L 206.352442 273.037643 
L 192.821568 273.037643 
z
" style="fill:#808080;opacity:0.4;"/>
   </g>
   <g id="patch_15">
    <path clip-path="url(#pb2a7559320)" d="M 206.352442 285.07875 
L 219.883316 285.07875 
L 219.883316 276.477959 
L 206.352442 276.477959 
z
" style="fill:#808080;opacity:0.4;"/>
   </g>
   <g id="patch_16">
    <path clip-path="url(#pb2a7559320)" d="M 219.883316 285.07875 
L 233.41419 285.07875 
L 233.41419 281.638434 
L 219.883316 281.638434 
z
" style="fill:#808080;opacity:0.4;"/>
   </g>
   <g id="patch_17">
    <path clip-path="url(#pb2a7559320)" d="M 233.41419 285.07875 
L 246.945065 285.07875 
L 246.945065 281.638434 
L 233.41419 281.638434 
z
" style="fill:#808080;opacity:0.4;"/>
   </g>
   <g id="patch_18">
    <path clip-path="url(#pb2a7559320)" d="M 246.945065 285.07875 
L 260.475939 285.07875 
L 260.475939 281.638434 
L 246.945065 281.638434 
z
" style="fill:#808080;opacity:0.4;"/>
   </g>
   <g id="patch_19">
    <path clip-path="url(#pb2a7559320)" d="M 260.475939 285.07875 
L 274.006813 285.07875 
L 274.006813 285.07875 
L 260.475939 285.07875 
z
" style="fill:#808080;opacity:0.4;"/>
   </g>
   <g id="patch_20">
    <path clip-path="url(#pb2a7559320)" d="M 274.006813 285.07875 
L 287.537687 285.07875 
L 287.537687 283.358592 
L 274.006813 283.358592 
z
" style="fill:#808080;opacity:0.4;"/>
   </g>
   <g id="patch_21">
    <path clip-path="url(#pb2a7559320)" d="M 287.537687 285.07875 
L 301.068561 285.07875 
L 301.068561 283.358592 
L 287.537687 283.358592 
z
" style="fill:#808080;opacity:0.4;"/>
   </g>
   <g id="patch_22">
    <path clip-path="url(#pb2a7559320)" d="M 301.068561 285.07875 
L 314.599435 285.07875 
L 314.599435 285.07875 
L 301.068561 285.07875 
z
" style="fill:#808080;opacity:0.4;"/>
   </g>
   <g id="patch_23">
    <path clip-path="url(#pb2a7559320)" d="M 314.599435 285.07875 
L 328.13031 285.07875 
L 328.13031 285.07875 
L 314.599435 285.07875 
z
" style="fill:#808080;opacity:0.4;"/>
   </g>
   <g id="patch_24">
    <path clip-path="url(#pb2a7559320)" d="M 328.13031 285.07875 
L 341.661184 285.07875 
L 341.661184 281.638434 
L 328.13031 281.638434 
z
" style="fill:#808080;opacity:0.4;"/>
   </g>
   <g id="patch_25">
    <path clip-path="url(#pb2a7559320)" d="M 341.661184 285.07875 
L 355.192058 285.07875 
L 355.192058 285.07875 
L 341.661184 285.07875 
z
" style="fill:#808080;opacity:0.4;"/>
   </g>
   <g id="patch_26">
    <path clip-path="url(#pb2a7559320)" d="M 355.192058 285.07875 
L 368.722932 285.07875 
L 368.722932 285.07875 
L 355.192058 285.07875 
z
" style="fill:#808080;opacity:0.4;"/>
   </g>
   <g id="patch_27">
    <path clip-path="url(#pb2a7559320)" d="M 368.722932 285.07875 
L 382.253806 285.07875 
L 382.253806 285.07875 
L 368.722932 285.07875 
z
" style="fill:#808080;opacity:0.4;"/>
   </g>
   <g id="patch_28">
    <path clip-path="url(#pb2a7559320)" d="M 382.253806 285.07875 
L 395.784681 285.07875 
L 395.784681 283.358592 
L 382.253806 283.358592 
z
" style="fill:#808080;opacity:0.4;"/>
   </g>
   <g id="matplotlib.axis_1">
    <g id="xtick_1">
     <g id="line2d_1">
      <defs>
       <path d="M 0 0 
L 0 3.5 
" id="m4927427f47" style="stroke:#000000;stroke-width:0.8;"/>
      </defs>
      <g>
       <use style="stroke:#000000;stroke-width:0.8;" x="43.865" xlink:href="#m4927427f47" y="285.07875"/>
      </g>
     </g>
     <g id="text_1">
      <!-- 0.0 -->
      <defs>
       <path d="M 31.78125 66.40625 
Q 24.171875 66.40625 20.328125 58.90625 
Q 16.5 51.421875 16.5 36.375 
Q 16.5 21.390625 20.328125 13.890625 
Q 24.171875 6.390625 31.78125 6.390625 
Q 39.453125 6.390625 43.28125 13.890625 
Q 47.125 21.390625 47.125 36.375 
Q 47.125 51.421875 43.28125 58.90625 
Q 39.453125 66.40625 31.78125 66.40625 
z
M 31.78125 74.21875 
Q 44.046875 74.21875 50.515625 64.515625 
Q 56.984375 54.828125 56.984375 36.375 
Q 56.984375 17.96875 50.515625 8.265625 
Q 44.046875 -1.421875 31.78125 -1.421875 
Q 19.53125 -1.421875 13.0625 8.265625 
Q 6.59375 17.96875 6.59375 36.375 
Q 6.59375 54.828125 13.0625 64.515625 
Q 19.53125 74.21875 31.78125 74.21875 
z
" id="DejaVuSans-48"/>
       <path d="M 10.6875 12.40625 
L 21 12.40625 
L 21 0 
L 10.6875 0 
z
" id="DejaVuSans-46"/>
      </defs>
      <g transform="translate(31.1425 304.23625)scale(0.16 -0.16)">
       <use xlink:href="#DejaVuSans-48"/>
       <use x="63.623047" xlink:href="#DejaVuSans-46"/>
       <use x="95.410156" xlink:href="#DejaVuSans-48"/>
      </g>
     </g>
    </g>
    <g id="xtick_2">
     <g id="line2d_2">
      <g>
       <use style="stroke:#000000;stroke-width:0.8;" x="125.028636" xlink:href="#m4927427f47" y="285.07875"/>
      </g>
     </g>
     <g id="text_2">
      <!-- 0.2 -->
      <defs>
       <path d="M 19.1875 8.296875 
L 53.609375 8.296875 
L 53.609375 0 
L 7.328125 0 
L 7.328125 8.296875 
Q 12.9375 14.109375 22.625 23.890625 
Q 32.328125 33.6875 34.8125 36.53125 
Q 39.546875 41.84375 41.421875 45.53125 
Q 43.3125 49.21875 43.3125 52.78125 
Q 43.3125 58.59375 39.234375 62.25 
Q 35.15625 65.921875 28.609375 65.921875 
Q 23.96875 65.921875 18.8125 64.3125 
Q 13.671875 62.703125 7.8125 59.421875 
L 7.8125 69.390625 
Q 13.765625 71.78125 18.9375 73 
Q 24.125 74.21875 28.421875 74.21875 
Q 39.75 74.21875 46.484375 68.546875 
Q 53.21875 62.890625 53.21875 53.421875 
Q 53.21875 48.921875 51.53125 44.890625 
Q 49.859375 40.875 45.40625 35.40625 
Q 44.1875 33.984375 37.640625 27.21875 
Q 31.109375 20.453125 19.1875 8.296875 
z
" id="DejaVuSans-50"/>
      </defs>
      <g transform="translate(112.306136 304.23625)scale(0.16 -0.16)">
       <use xlink:href="#DejaVuSans-48"/>
       <use x="63.623047" xlink:href="#DejaVuSans-46"/>
       <use x="95.410156" xlink:href="#DejaVuSans-50"/>
      </g>
     </g>
    </g>
    <g id="xtick_3">
     <g id="line2d_3">
      <g>
       <use style="stroke:#000000;stroke-width:0.8;" x="206.192273" xlink:href="#m4927427f47" y="285.07875"/>
      </g>
     </g>
     <g id="text_3">
      <!-- 0.4 -->
      <defs>
       <path d="M 37.796875 64.3125 
L 12.890625 25.390625 
L 37.796875 25.390625 
z
M 35.203125 72.90625 
L 47.609375 72.90625 
L 47.609375 25.390625 
L 58.015625 25.390625 
L 58.015625 17.1875 
L 47.609375 17.1875 
L 47.609375 0 
L 37.796875 0 
L 37.796875 17.1875 
L 4.890625 17.1875 
L 4.890625 26.703125 
z
" id="DejaVuSans-52"/>
      </defs>
      <g transform="translate(193.469773 304.23625)scale(0.16 -0.16)">
       <use xlink:href="#DejaVuSans-48"/>
       <use x="63.623047" xlink:href="#DejaVuSans-46"/>
       <use x="95.410156" xlink:href="#DejaVuSans-52"/>
      </g>
     </g>
    </g>
    <g id="xtick_4">
     <g id="line2d_4">
      <g>
       <use style="stroke:#000000;stroke-width:0.8;" x="287.355909" xlink:href="#m4927427f47" y="285.07875"/>
      </g>
     </g>
     <g id="text_4">
      <!-- 0.6 -->
      <defs>
       <path d="M 33.015625 40.375 
Q 26.375 40.375 22.484375 35.828125 
Q 18.609375 31.296875 18.609375 23.390625 
Q 18.609375 15.53125 22.484375 10.953125 
Q 26.375 6.390625 33.015625 6.390625 
Q 39.65625 6.390625 43.53125 10.953125 
Q 47.40625 15.53125 47.40625 23.390625 
Q 47.40625 31.296875 43.53125 35.828125 
Q 39.65625 40.375 33.015625 40.375 
z
M 52.59375 71.296875 
L 52.59375 62.3125 
Q 48.875 64.0625 45.09375 64.984375 
Q 41.3125 65.921875 37.59375 65.921875 
Q 27.828125 65.921875 22.671875 59.328125 
Q 17.53125 52.734375 16.796875 39.40625 
Q 19.671875 43.65625 24.015625 45.921875 
Q 28.375 48.1875 33.59375 48.1875 
Q 44.578125 48.1875 50.953125 41.515625 
Q 57.328125 34.859375 57.328125 23.390625 
Q 57.328125 12.15625 50.6875 5.359375 
Q 44.046875 -1.421875 33.015625 -1.421875 
Q 20.359375 -1.421875 13.671875 8.265625 
Q 6.984375 17.96875 6.984375 36.375 
Q 6.984375 53.65625 15.1875 63.9375 
Q 23.390625 74.21875 37.203125 74.21875 
Q 40.921875 74.21875 44.703125 73.484375 
Q 48.484375 72.75 52.59375 71.296875 
z
" id="DejaVuSans-54"/>
      </defs>
      <g transform="translate(274.633409 304.23625)scale(0.16 -0.16)">
       <use xlink:href="#DejaVuSans-48"/>
       <use x="63.623047" xlink:href="#DejaVuSans-46"/>
       <use x="95.410156" xlink:href="#DejaVuSans-54"/>
      </g>
     </g>
    </g>
    <g id="xtick_5">
     <g id="line2d_5">
      <g>
       <use style="stroke:#000000;stroke-width:0.8;" x="368.519545" xlink:href="#m4927427f47" y="285.07875"/>
      </g>
     </g>
     <g id="text_5">
      <!-- 0.8 -->
      <defs>
       <path d="M 31.78125 34.625 
Q 24.75 34.625 20.71875 30.859375 
Q 16.703125 27.09375 16.703125 20.515625 
Q 16.703125 13.921875 20.71875 10.15625 
Q 24.75 6.390625 31.78125 6.390625 
Q 38.8125 6.390625 42.859375 10.171875 
Q 46.921875 13.96875 46.921875 20.515625 
Q 46.921875 27.09375 42.890625 30.859375 
Q 38.875 34.625 31.78125 34.625 
z
M 21.921875 38.8125 
Q 15.578125 40.375 12.03125 44.71875 
Q 8.5 49.078125 8.5 55.328125 
Q 8.5 64.0625 14.71875 69.140625 
Q 20.953125 74.21875 31.78125 74.21875 
Q 42.671875 74.21875 48.875 69.140625 
Q 55.078125 64.0625 55.078125 55.328125 
Q 55.078125 49.078125 51.53125 44.71875 
Q 48 40.375 41.703125 38.8125 
Q 48.828125 37.15625 52.796875 32.3125 
Q 56.78125 27.484375 56.78125 20.515625 
Q 56.78125 9.90625 50.3125 4.234375 
Q 43.84375 -1.421875 31.78125 -1.421875 
Q 19.734375 -1.421875 13.25 4.234375 
Q 6.78125 9.90625 6.78125 20.515625 
Q 6.78125 27.484375 10.78125 32.3125 
Q 14.796875 37.15625 21.921875 38.8125 
z
M 18.3125 54.390625 
Q 18.3125 48.734375 21.84375 45.5625 
Q 25.390625 42.390625 31.78125 42.390625 
Q 38.140625 42.390625 41.71875 45.5625 
Q 45.3125 48.734375 45.3125 54.390625 
Q 45.3125 60.0625 41.71875 63.234375 
Q 38.140625 66.40625 31.78125 66.40625 
Q 25.390625 66.40625 21.84375 63.234375 
Q 18.3125 60.0625 18.3125 54.390625 
z
" id="DejaVuSans-56"/>
      </defs>
      <g transform="translate(355.797045 304.23625)scale(0.16 -0.16)">
       <use xlink:href="#DejaVuSans-48"/>
       <use x="63.623047" xlink:href="#DejaVuSans-46"/>
       <use x="95.410156" xlink:href="#DejaVuSans-56"/>
      </g>
     </g>
    </g>
    <g id="xtick_6">
     <g id="line2d_6">
      <g>
       <use style="stroke:#000000;stroke-width:0.8;" x="449.683182" xlink:href="#m4927427f47" y="285.07875"/>
      </g>
     </g>
     <g id="text_6">
      <!-- 1.0 -->
      <defs>
       <path d="M 12.40625 8.296875 
L 28.515625 8.296875 
L 28.515625 63.921875 
L 10.984375 60.40625 
L 10.984375 69.390625 
L 28.421875 72.90625 
L 38.28125 72.90625 
L 38.28125 8.296875 
L 54.390625 8.296875 
L 54.390625 0 
L 12.40625 0 
z
" id="DejaVuSans-49"/>
      </defs>
      <g transform="translate(436.960682 304.23625)scale(0.16 -0.16)">
       <use xlink:href="#DejaVuSans-49"/>
       <use x="63.623047" xlink:href="#DejaVuSans-46"/>
       <use x="95.410156" xlink:href="#DejaVuSans-48"/>
      </g>
     </g>
    </g>
    <g id="text_7">
     <!-- AE$_{[O_2]}$ (% air) -->
     <defs>
      <path d="M 34.1875 63.1875 
L 20.796875 26.90625 
L 47.609375 26.90625 
z
M 28.609375 72.90625 
L 39.796875 72.90625 
L 67.578125 0 
L 57.328125 0 
L 50.6875 18.703125 
L 17.828125 18.703125 
L 11.1875 0 
L 0.78125 0 
z
" id="DejaVuSans-65"/>
      <path d="M 9.8125 72.90625 
L 55.90625 72.90625 
L 55.90625 64.59375 
L 19.671875 64.59375 
L 19.671875 43.015625 
L 54.390625 43.015625 
L 54.390625 34.71875 
L 19.671875 34.71875 
L 19.671875 8.296875 
L 56.78125 8.296875 
L 56.78125 0 
L 9.8125 0 
z
" id="DejaVuSans-69"/>
      <path d="M 8.59375 75.984375 
L 29.296875 75.984375 
L 29.296875 69 
L 17.578125 69 
L 17.578125 -6.203125 
L 29.296875 -6.203125 
L 29.296875 -13.1875 
L 8.59375 -13.1875 
z
" id="DejaVuSans-91"/>
      <path d="M 45.609375 66.21875 
Q 37.5 66.21875 31.296875 62.28125 
Q 25.09375 58.34375 20.515625 50.296875 
Q 17.578125 45.171875 16.03125 39.40625 
Q 14.5 33.640625 14.5 27.78125 
Q 14.5 17.625 19.359375 12.109375 
Q 24.21875 6.59375 33.109375 6.59375 
Q 41.109375 6.59375 47.375 10.5625 
Q 53.65625 14.546875 58.109375 22.40625 
Q 61.078125 27.6875 62.640625 33.46875 
Q 64.203125 39.265625 64.203125 45.015625 
Q 64.203125 55.125 59.3125 60.671875 
Q 54.4375 66.21875 45.609375 66.21875 
z
M 32.8125 -1.421875 
Q 19.390625 -1.421875 11.6875 6.53125 
Q 4 14.5 4 28.328125 
Q 4 36.234375 7 44.484375 
Q 10.015625 52.734375 15.28125 59.1875 
Q 21.484375 66.75 29.09375 70.484375 
Q 36.71875 74.21875 45.90625 74.21875 
Q 59.28125 74.21875 66.984375 66.328125 
Q 74.703125 58.453125 74.703125 44.828125 
Q 74.703125 36.421875 71.765625 28.3125 
Q 68.84375 20.21875 63.375 13.625 
Q 57.125 6 49.578125 2.28125 
Q 42.046875 -1.421875 32.8125 -1.421875 
z
" id="DejaVuSans-Oblique-79"/>
      <path d="M 30.421875 75.984375 
L 30.421875 -13.1875 
L 9.71875 -13.1875 
L 9.71875 -6.203125 
L 21.390625 -6.203125 
L 21.390625 69 
L 9.71875 69 
L 9.71875 75.984375 
z
" id="DejaVuSans-93"/>
      <path id="DejaVuSans-32"/>
      <path d="M 31 75.875 
Q 24.46875 64.65625 21.28125 53.65625 
Q 18.109375 42.671875 18.109375 31.390625 
Q 18.109375 20.125 21.3125 9.0625 
Q 24.515625 -2 31 -13.1875 
L 23.1875 -13.1875 
Q 15.875 -1.703125 12.234375 9.375 
Q 8.59375 20.453125 8.59375 31.390625 
Q 8.59375 42.28125 12.203125 53.3125 
Q 15.828125 64.359375 23.1875 75.875 
z
" id="DejaVuSans-40"/>
      <path d="M 72.703125 32.078125 
Q 68.453125 32.078125 66.03125 28.46875 
Q 63.625 24.859375 63.625 18.40625 
Q 63.625 12.0625 66.03125 8.421875 
Q 68.453125 4.78125 72.703125 4.78125 
Q 76.859375 4.78125 79.265625 8.421875 
Q 81.6875 12.0625 81.6875 18.40625 
Q 81.6875 24.8125 79.265625 28.4375 
Q 76.859375 32.078125 72.703125 32.078125 
z
M 72.703125 38.28125 
Q 80.421875 38.28125 84.953125 32.90625 
Q 89.5 27.546875 89.5 18.40625 
Q 89.5 9.28125 84.9375 3.921875 
Q 80.375 -1.421875 72.703125 -1.421875 
Q 64.890625 -1.421875 60.34375 3.921875 
Q 55.8125 9.28125 55.8125 18.40625 
Q 55.8125 27.59375 60.375 32.9375 
Q 64.9375 38.28125 72.703125 38.28125 
z
M 22.3125 68.015625 
Q 18.109375 68.015625 15.6875 64.375 
Q 13.28125 60.75 13.28125 54.390625 
Q 13.28125 47.953125 15.671875 44.328125 
Q 18.0625 40.71875 22.3125 40.71875 
Q 26.5625 40.71875 28.96875 44.328125 
Q 31.390625 47.953125 31.390625 54.390625 
Q 31.390625 60.6875 28.953125 64.34375 
Q 26.515625 68.015625 22.3125 68.015625 
z
M 66.40625 74.21875 
L 74.21875 74.21875 
L 28.609375 -1.421875 
L 20.796875 -1.421875 
z
M 22.3125 74.21875 
Q 30.03125 74.21875 34.609375 68.875 
Q 39.203125 63.53125 39.203125 54.390625 
Q 39.203125 45.171875 34.640625 39.84375 
Q 30.078125 34.515625 22.3125 34.515625 
Q 14.546875 34.515625 10.03125 39.859375 
Q 5.515625 45.21875 5.515625 54.390625 
Q 5.515625 63.484375 10.046875 68.84375 
Q 14.59375 74.21875 22.3125 74.21875 
z
" id="DejaVuSans-37"/>
      <path d="M 34.28125 27.484375 
Q 23.390625 27.484375 19.1875 25 
Q 14.984375 22.515625 14.984375 16.5 
Q 14.984375 11.71875 18.140625 8.90625 
Q 21.296875 6.109375 26.703125 6.109375 
Q 34.1875 6.109375 38.703125 11.40625 
Q 43.21875 16.703125 43.21875 25.484375 
L 43.21875 27.484375 
z
M 52.203125 31.203125 
L 52.203125 0 
L 43.21875 0 
L 43.21875 8.296875 
Q 40.140625 3.328125 35.546875 0.953125 
Q 30.953125 -1.421875 24.3125 -1.421875 
Q 15.921875 -1.421875 10.953125 3.296875 
Q 6 8.015625 6 15.921875 
Q 6 25.140625 12.171875 29.828125 
Q 18.359375 34.515625 30.609375 34.515625 
L 43.21875 34.515625 
L 43.21875 35.40625 
Q 43.21875 41.609375 39.140625 45 
Q 35.0625 48.390625 27.6875 48.390625 
Q 23 48.390625 18.546875 47.265625 
Q 14.109375 46.140625 10.015625 43.890625 
L 10.015625 52.203125 
Q 14.9375 54.109375 19.578125 55.046875 
Q 24.21875 56 28.609375 56 
Q 40.484375 56 46.34375 49.84375 
Q 52.203125 43.703125 52.203125 31.203125 
z
" id="DejaVuSans-97"/>
      <path d="M 9.421875 54.6875 
L 18.40625 54.6875 
L 18.40625 0 
L 9.421875 0 
z
M 9.421875 75.984375 
L 18.40625 75.984375 
L 18.40625 64.59375 
L 9.421875 64.59375 
z
" id="DejaVuSans-105"/>
      <path d="M 41.109375 46.296875 
Q 39.59375 47.171875 37.8125 47.578125 
Q 36.03125 48 33.890625 48 
Q 26.265625 48 22.1875 43.046875 
Q 18.109375 38.09375 18.109375 28.8125 
L 18.109375 0 
L 9.078125 0 
L 9.078125 54.6875 
L 18.109375 54.6875 
L 18.109375 46.1875 
Q 20.953125 51.171875 25.484375 53.578125 
Q 30.03125 56 36.53125 56 
Q 37.453125 56 38.578125 55.875 
Q 39.703125 55.765625 41.0625 55.515625 
z
" id="DejaVuSans-114"/>
      <path d="M 8.015625 75.875 
L 15.828125 75.875 
Q 23.140625 64.359375 26.78125 53.3125 
Q 30.421875 42.28125 30.421875 31.390625 
Q 30.421875 20.453125 26.78125 9.375 
Q 23.140625 -1.703125 15.828125 -13.1875 
L 8.015625 -13.1875 
Q 14.5 -2 17.703125 9.0625 
Q 20.90625 20.125 20.90625 31.390625 
Q 20.90625 42.671875 17.703125 53.65625 
Q 14.5 64.65625 8.015625 75.875 
z
" id="DejaVuSans-41"/>
     </defs>
     <g transform="translate(195.174091 323.72375)scale(0.16 -0.16)">
      <use transform="translate(0 0.015625)" xlink:href="#DejaVuSans-65"/>
      <use transform="translate(68.408203 0.015625)" xlink:href="#DejaVuSans-69"/>
      <use transform="translate(132.548828 -16.390625)scale(0.7)" xlink:href="#DejaVuSans-91"/>
      <use transform="translate(159.858398 -16.390625)scale(0.7)" xlink:href="#DejaVuSans-Oblique-79"/>
      <use transform="translate(214.956055 -27.875)scale(0.49)" xlink:href="#DejaVuSans-50"/>
      <use transform="translate(248.04541 -16.390625)scale(0.7)" xlink:href="#DejaVuSans-93"/>
      <use transform="translate(278.089355 0.015625)" xlink:href="#DejaVuSans-32"/>
      <use transform="translate(309.876465 0.015625)" xlink:href="#DejaVuSans-40"/>
      <use transform="translate(348.890137 0.015625)" xlink:href="#DejaVuSans-37"/>
      <use transform="translate(443.909668 0.015625)" xlink:href="#DejaVuSans-32"/>
      <use transform="translate(475.696777 0.015625)" xlink:href="#DejaVuSans-97"/>
      <use transform="translate(536.976074 0.015625)" xlink:href="#DejaVuSans-105"/>
      <use transform="translate(564.759277 0.015625)" xlink:href="#DejaVuSans-114"/>
      <use transform="translate(605.872559 0.015625)" xlink:href="#DejaVuSans-41"/>
     </g>
    </g>
   </g>
   <g id="matplotlib.axis_2">
    <g id="ytick_1">
     <g id="line2d_7">
      <defs>
       <path d="M 0 0 
L -3.5 0 
" id="ma46667da0c" style="stroke:#000000;stroke-width:0.8;"/>
      </defs>
      <g>
       <use style="stroke:#000000;stroke-width:0.8;" x="43.865" xlink:href="#ma46667da0c" y="285.07875"/>
      </g>
     </g>
     <g id="text_8">
      <!-- 0 -->
      <g transform="translate(26.685 291.1575)scale(0.16 -0.16)">
       <use xlink:href="#DejaVuSans-48"/>
      </g>
     </g>
    </g>
    <g id="ytick_2">
     <g id="line2d_8">
      <g>
       <use style="stroke:#000000;stroke-width:0.8;" x="43.865" xlink:href="#ma46667da0c" y="246.250179"/>
      </g>
     </g>
     <g id="text_9">
      <!-- 1 -->
      <g transform="translate(26.685 252.328929)scale(0.16 -0.16)">
       <use xlink:href="#DejaVuSans-49"/>
      </g>
     </g>
    </g>
    <g id="ytick_3">
     <g id="line2d_9">
      <g>
       <use style="stroke:#000000;stroke-width:0.8;" x="43.865" xlink:href="#ma46667da0c" y="207.421607"/>
      </g>
     </g>
     <g id="text_10">
      <!-- 2 -->
      <g transform="translate(26.685 213.500357)scale(0.16 -0.16)">
       <use xlink:href="#DejaVuSans-50"/>
      </g>
     </g>
    </g>
    <g id="ytick_4">
     <g id="line2d_10">
      <g>
       <use style="stroke:#000000;stroke-width:0.8;" x="43.865" xlink:href="#ma46667da0c" y="168.593036"/>
      </g>
     </g>
     <g id="text_11">
      <!-- 3 -->
      <defs>
       <path d="M 40.578125 39.3125 
Q 47.65625 37.796875 51.625 33 
Q 55.609375 28.21875 55.609375 21.1875 
Q 55.609375 10.40625 48.1875 4.484375 
Q 40.765625 -1.421875 27.09375 -1.421875 
Q 22.515625 -1.421875 17.65625 -0.515625 
Q 12.796875 0.390625 7.625 2.203125 
L 7.625 11.71875 
Q 11.71875 9.328125 16.59375 8.109375 
Q 21.484375 6.890625 26.8125 6.890625 
Q 36.078125 6.890625 40.9375 10.546875 
Q 45.796875 14.203125 45.796875 21.1875 
Q 45.796875 27.640625 41.28125 31.265625 
Q 36.765625 34.90625 28.71875 34.90625 
L 20.21875 34.90625 
L 20.21875 43.015625 
L 29.109375 43.015625 
Q 36.375 43.015625 40.234375 45.921875 
Q 44.09375 48.828125 44.09375 54.296875 
Q 44.09375 59.90625 40.109375 62.90625 
Q 36.140625 65.921875 28.71875 65.921875 
Q 24.65625 65.921875 20.015625 65.03125 
Q 15.375 64.15625 9.8125 62.3125 
L 9.8125 71.09375 
Q 15.4375 72.65625 20.34375 73.4375 
Q 25.25 74.21875 29.59375 74.21875 
Q 40.828125 74.21875 47.359375 69.109375 
Q 53.90625 64.015625 53.90625 55.328125 
Q 53.90625 49.265625 50.4375 45.09375 
Q 46.96875 40.921875 40.578125 39.3125 
z
" id="DejaVuSans-51"/>
      </defs>
      <g transform="translate(26.685 174.671786)scale(0.16 -0.16)">
       <use xlink:href="#DejaVuSans-51"/>
      </g>
     </g>
    </g>
    <g id="ytick_5">
     <g id="line2d_11">
      <g>
       <use style="stroke:#000000;stroke-width:0.8;" x="43.865" xlink:href="#ma46667da0c" y="129.764464"/>
      </g>
     </g>
     <g id="text_12">
      <!-- 4 -->
      <g transform="translate(26.685 135.843214)scale(0.16 -0.16)">
       <use xlink:href="#DejaVuSans-52"/>
      </g>
     </g>
    </g>
    <g id="ytick_6">
     <g id="line2d_12">
      <g>
       <use style="stroke:#000000;stroke-width:0.8;" x="43.865" xlink:href="#ma46667da0c" y="90.935893"/>
      </g>
     </g>
     <g id="text_13">
      <!-- 5 -->
      <defs>
       <path d="M 10.796875 72.90625 
L 49.515625 72.90625 
L 49.515625 64.59375 
L 19.828125 64.59375 
L 19.828125 46.734375 
Q 21.96875 47.46875 24.109375 47.828125 
Q 26.265625 48.1875 28.421875 48.1875 
Q 40.625 48.1875 47.75 41.5 
Q 54.890625 34.8125 54.890625 23.390625 
Q 54.890625 11.625 47.5625 5.09375 
Q 40.234375 -1.421875 26.90625 -1.421875 
Q 22.3125 -1.421875 17.546875 -0.640625 
Q 12.796875 0.140625 7.71875 1.703125 
L 7.71875 11.625 
Q 12.109375 9.234375 16.796875 8.0625 
Q 21.484375 6.890625 26.703125 6.890625 
Q 35.15625 6.890625 40.078125 11.328125 
Q 45.015625 15.765625 45.015625 23.390625 
Q 45.015625 31 40.078125 35.4375 
Q 35.15625 39.890625 26.703125 39.890625 
Q 22.75 39.890625 18.8125 39.015625 
Q 14.890625 38.140625 10.796875 36.28125 
z
" id="DejaVuSans-53"/>
      </defs>
      <g transform="translate(26.685 97.014643)scale(0.16 -0.16)">
       <use xlink:href="#DejaVuSans-53"/>
      </g>
     </g>
    </g>
    <g id="ytick_7">
     <g id="line2d_13">
      <g>
       <use style="stroke:#000000;stroke-width:0.8;" x="43.865" xlink:href="#ma46667da0c" y="52.107321"/>
      </g>
     </g>
     <g id="text_14">
      <!-- 6 -->
      <g transform="translate(26.685 58.186071)scale(0.16 -0.16)">
       <use xlink:href="#DejaVuSans-54"/>
      </g>
     </g>
    </g>
    <g id="ytick_8">
     <g id="line2d_14">
      <g>
       <use style="stroke:#000000;stroke-width:0.8;" x="43.865" xlink:href="#ma46667da0c" y="13.27875"/>
      </g>
     </g>
     <g id="text_15">
      <!-- 7 -->
      <defs>
       <path d="M 8.203125 72.90625 
L 55.078125 72.90625 
L 55.078125 68.703125 
L 28.609375 0 
L 18.3125 0 
L 43.21875 64.59375 
L 8.203125 64.59375 
z
" id="DejaVuSans-55"/>
      </defs>
      <g transform="translate(26.685 19.3575)scale(0.16 -0.16)">
       <use xlink:href="#DejaVuSans-55"/>
      </g>
     </g>
    </g>
    <g id="text_16">
     <!-- Prediction distribution -->
     <defs>
      <path d="M 19.671875 64.796875 
L 19.671875 37.40625 
L 32.078125 37.40625 
Q 38.96875 37.40625 42.71875 40.96875 
Q 46.484375 44.53125 46.484375 51.125 
Q 46.484375 57.671875 42.71875 61.234375 
Q 38.96875 64.796875 32.078125 64.796875 
z
M 9.8125 72.90625 
L 32.078125 72.90625 
Q 44.34375 72.90625 50.609375 67.359375 
Q 56.890625 61.8125 56.890625 51.125 
Q 56.890625 40.328125 50.609375 34.8125 
Q 44.34375 29.296875 32.078125 29.296875 
L 19.671875 29.296875 
L 19.671875 0 
L 9.8125 0 
z
" id="DejaVuSans-80"/>
      <path d="M 56.203125 29.59375 
L 56.203125 25.203125 
L 14.890625 25.203125 
Q 15.484375 15.921875 20.484375 11.0625 
Q 25.484375 6.203125 34.421875 6.203125 
Q 39.59375 6.203125 44.453125 7.46875 
Q 49.3125 8.734375 54.109375 11.28125 
L 54.109375 2.78125 
Q 49.265625 0.734375 44.1875 -0.34375 
Q 39.109375 -1.421875 33.890625 -1.421875 
Q 20.796875 -1.421875 13.15625 6.1875 
Q 5.515625 13.8125 5.515625 26.8125 
Q 5.515625 40.234375 12.765625 48.109375 
Q 20.015625 56 32.328125 56 
Q 43.359375 56 49.78125 48.890625 
Q 56.203125 41.796875 56.203125 29.59375 
z
M 47.21875 32.234375 
Q 47.125 39.59375 43.09375 43.984375 
Q 39.0625 48.390625 32.421875 48.390625 
Q 24.90625 48.390625 20.390625 44.140625 
Q 15.875 39.890625 15.1875 32.171875 
z
" id="DejaVuSans-101"/>
      <path d="M 45.40625 46.390625 
L 45.40625 75.984375 
L 54.390625 75.984375 
L 54.390625 0 
L 45.40625 0 
L 45.40625 8.203125 
Q 42.578125 3.328125 38.25 0.953125 
Q 33.9375 -1.421875 27.875 -1.421875 
Q 17.96875 -1.421875 11.734375 6.484375 
Q 5.515625 14.40625 5.515625 27.296875 
Q 5.515625 40.1875 11.734375 48.09375 
Q 17.96875 56 27.875 56 
Q 33.9375 56 38.25 53.625 
Q 42.578125 51.265625 45.40625 46.390625 
z
M 14.796875 27.296875 
Q 14.796875 17.390625 18.875 11.75 
Q 22.953125 6.109375 30.078125 6.109375 
Q 37.203125 6.109375 41.296875 11.75 
Q 45.40625 17.390625 45.40625 27.296875 
Q 45.40625 37.203125 41.296875 42.84375 
Q 37.203125 48.484375 30.078125 48.484375 
Q 22.953125 48.484375 18.875 42.84375 
Q 14.796875 37.203125 14.796875 27.296875 
z
" id="DejaVuSans-100"/>
      <path d="M 48.78125 52.59375 
L 48.78125 44.1875 
Q 44.96875 46.296875 41.140625 47.34375 
Q 37.3125 48.390625 33.40625 48.390625 
Q 24.65625 48.390625 19.8125 42.84375 
Q 14.984375 37.3125 14.984375 27.296875 
Q 14.984375 17.28125 19.8125 11.734375 
Q 24.65625 6.203125 33.40625 6.203125 
Q 37.3125 6.203125 41.140625 7.25 
Q 44.96875 8.296875 48.78125 10.40625 
L 48.78125 2.09375 
Q 45.015625 0.34375 40.984375 -0.53125 
Q 36.96875 -1.421875 32.421875 -1.421875 
Q 20.0625 -1.421875 12.78125 6.34375 
Q 5.515625 14.109375 5.515625 27.296875 
Q 5.515625 40.671875 12.859375 48.328125 
Q 20.21875 56 33.015625 56 
Q 37.15625 56 41.109375 55.140625 
Q 45.0625 54.296875 48.78125 52.59375 
z
" id="DejaVuSans-99"/>
      <path d="M 18.3125 70.21875 
L 18.3125 54.6875 
L 36.8125 54.6875 
L 36.8125 47.703125 
L 18.3125 47.703125 
L 18.3125 18.015625 
Q 18.3125 11.328125 20.140625 9.421875 
Q 21.96875 7.515625 27.59375 7.515625 
L 36.8125 7.515625 
L 36.8125 0 
L 27.59375 0 
Q 17.1875 0 13.234375 3.875 
Q 9.28125 7.765625 9.28125 18.015625 
L 9.28125 47.703125 
L 2.6875 47.703125 
L 2.6875 54.6875 
L 9.28125 54.6875 
L 9.28125 70.21875 
z
" id="DejaVuSans-116"/>
      <path d="M 30.609375 48.390625 
Q 23.390625 48.390625 19.1875 42.75 
Q 14.984375 37.109375 14.984375 27.296875 
Q 14.984375 17.484375 19.15625 11.84375 
Q 23.34375 6.203125 30.609375 6.203125 
Q 37.796875 6.203125 41.984375 11.859375 
Q 46.1875 17.53125 46.1875 27.296875 
Q 46.1875 37.015625 41.984375 42.703125 
Q 37.796875 48.390625 30.609375 48.390625 
z
M 30.609375 56 
Q 42.328125 56 49.015625 48.375 
Q 55.71875 40.765625 55.71875 27.296875 
Q 55.71875 13.875 49.015625 6.21875 
Q 42.328125 -1.421875 30.609375 -1.421875 
Q 18.84375 -1.421875 12.171875 6.21875 
Q 5.515625 13.875 5.515625 27.296875 
Q 5.515625 40.765625 12.171875 48.375 
Q 18.84375 56 30.609375 56 
z
" id="DejaVuSans-111"/>
      <path d="M 54.890625 33.015625 
L 54.890625 0 
L 45.90625 0 
L 45.90625 32.71875 
Q 45.90625 40.484375 42.875 44.328125 
Q 39.84375 48.1875 33.796875 48.1875 
Q 26.515625 48.1875 22.3125 43.546875 
Q 18.109375 38.921875 18.109375 30.90625 
L 18.109375 0 
L 9.078125 0 
L 9.078125 54.6875 
L 18.109375 54.6875 
L 18.109375 46.1875 
Q 21.34375 51.125 25.703125 53.5625 
Q 30.078125 56 35.796875 56 
Q 45.21875 56 50.046875 50.171875 
Q 54.890625 44.34375 54.890625 33.015625 
z
" id="DejaVuSans-110"/>
      <path d="M 44.28125 53.078125 
L 44.28125 44.578125 
Q 40.484375 46.53125 36.375 47.5 
Q 32.28125 48.484375 27.875 48.484375 
Q 21.1875 48.484375 17.84375 46.4375 
Q 14.5 44.390625 14.5 40.28125 
Q 14.5 37.15625 16.890625 35.375 
Q 19.28125 33.59375 26.515625 31.984375 
L 29.59375 31.296875 
Q 39.15625 29.25 43.1875 25.515625 
Q 47.21875 21.78125 47.21875 15.09375 
Q 47.21875 7.46875 41.1875 3.015625 
Q 35.15625 -1.421875 24.609375 -1.421875 
Q 20.21875 -1.421875 15.453125 -0.5625 
Q 10.6875 0.296875 5.421875 2 
L 5.421875 11.28125 
Q 10.40625 8.6875 15.234375 7.390625 
Q 20.0625 6.109375 24.8125 6.109375 
Q 31.15625 6.109375 34.5625 8.28125 
Q 37.984375 10.453125 37.984375 14.40625 
Q 37.984375 18.0625 35.515625 20.015625 
Q 33.0625 21.96875 24.703125 23.78125 
L 21.578125 24.515625 
Q 13.234375 26.265625 9.515625 29.90625 
Q 5.8125 33.546875 5.8125 39.890625 
Q 5.8125 47.609375 11.28125 51.796875 
Q 16.75 56 26.8125 56 
Q 31.78125 56 36.171875 55.265625 
Q 40.578125 54.546875 44.28125 53.078125 
z
" id="DejaVuSans-115"/>
      <path d="M 48.6875 27.296875 
Q 48.6875 37.203125 44.609375 42.84375 
Q 40.53125 48.484375 33.40625 48.484375 
Q 26.265625 48.484375 22.1875 42.84375 
Q 18.109375 37.203125 18.109375 27.296875 
Q 18.109375 17.390625 22.1875 11.75 
Q 26.265625 6.109375 33.40625 6.109375 
Q 40.53125 6.109375 44.609375 11.75 
Q 48.6875 17.390625 48.6875 27.296875 
z
M 18.109375 46.390625 
Q 20.953125 51.265625 25.265625 53.625 
Q 29.59375 56 35.59375 56 
Q 45.5625 56 51.78125 48.09375 
Q 58.015625 40.1875 58.015625 27.296875 
Q 58.015625 14.40625 51.78125 6.484375 
Q 45.5625 -1.421875 35.59375 -1.421875 
Q 29.59375 -1.421875 25.265625 0.953125 
Q 20.953125 3.328125 18.109375 8.203125 
L 18.109375 0 
L 9.078125 0 
L 9.078125 75.984375 
L 18.109375 75.984375 
z
" id="DejaVuSans-98"/>
      <path d="M 8.5 21.578125 
L 8.5 54.6875 
L 17.484375 54.6875 
L 17.484375 21.921875 
Q 17.484375 14.15625 20.5 10.265625 
Q 23.53125 6.390625 29.59375 6.390625 
Q 36.859375 6.390625 41.078125 11.03125 
Q 45.3125 15.671875 45.3125 23.6875 
L 45.3125 54.6875 
L 54.296875 54.6875 
L 54.296875 0 
L 45.3125 0 
L 45.3125 8.40625 
Q 42.046875 3.421875 37.71875 1 
Q 33.40625 -1.421875 27.6875 -1.421875 
Q 18.265625 -1.421875 13.375 4.4375 
Q 8.5 10.296875 8.5 21.578125 
z
M 31.109375 56 
z
" id="DejaVuSans-117"/>
     </defs>
     <g transform="translate(19.3575 237.365)rotate(-90)scale(0.16 -0.16)">
      <use xlink:href="#DejaVuSans-80"/>
      <use x="60.287109" xlink:href="#DejaVuSans-114"/>
      <use x="101.369141" xlink:href="#DejaVuSans-101"/>
      <use x="162.892578" xlink:href="#DejaVuSans-100"/>
      <use x="226.369141" xlink:href="#DejaVuSans-105"/>
      <use x="254.152344" xlink:href="#DejaVuSans-99"/>
      <use x="309.132812" xlink:href="#DejaVuSans-116"/>
      <use x="348.341797" xlink:href="#DejaVuSans-105"/>
      <use x="376.125" xlink:href="#DejaVuSans-111"/>
      <use x="437.306641" xlink:href="#DejaVuSans-110"/>
      <use x="500.685547" xlink:href="#DejaVuSans-32"/>
      <use x="532.472656" xlink:href="#DejaVuSans-100"/>
      <use x="595.949219" xlink:href="#DejaVuSans-105"/>
      <use x="623.732422" xlink:href="#DejaVuSans-115"/>
      <use x="675.832031" xlink:href="#DejaVuSans-116"/>
      <use x="715.041016" xlink:href="#DejaVuSans-114"/>
      <use x="756.154297" xlink:href="#DejaVuSans-105"/>
      <use x="783.9375" xlink:href="#DejaVuSans-98"/>
      <use x="847.414062" xlink:href="#DejaVuSans-117"/>
      <use x="910.792969" xlink:href="#DejaVuSans-116"/>
      <use x="950.001953" xlink:href="#DejaVuSans-105"/>
      <use x="977.785156" xlink:href="#DejaVuSans-111"/>
      <use x="1038.966797" xlink:href="#DejaVuSans-110"/>
     </g>
    </g>
   </g>
   <g id="line2d_15">
    <path clip-path="url(#pb2a7559320)" d="M 6.937002 284.668363 
L 11.238948 283.886559 
L 15.540894 281.987759 
L 19.842839 277.915146 
L 24.144785 270.208034 
L 28.446731 257.354821 
L 32.748677 238.496888 
L 37.050622 214.218609 
L 41.352568 186.909687 
L 45.654514 160.291663 
L 49.95646 138.216716 
L 54.258405 123.385056 
L 58.560351 116.677878 
L 62.862297 117.304485 
L 67.164243 123.408175 
L 71.466188 132.665809 
L 75.768134 142.721159 
L 80.07008 151.570045 
L 84.372026 157.968977 
L 88.673971 161.709024 
L 92.975917 163.520093 
L 97.277863 164.577826 
L 101.579808 165.884372 
L 105.881754 167.897659 
L 110.1837 170.593316 
L 114.485646 173.823101 
L 118.787591 177.644883 
L 123.089537 182.37434 
L 127.391483 188.358233 
L 131.693429 195.678924 
L 135.995374 204.018236 
L 140.29732 212.760042 
L 144.599266 221.240727 
L 148.901212 228.986826 
L 153.203157 235.823513 
L 157.505103 241.832561 
L 161.807049 247.21553 
L 166.108995 252.145655 
L 170.41094 256.675468 
L 174.712886 260.729097 
L 179.014832 264.168018 
L 183.316778 266.889123 
L 187.618723 268.904286 
L 191.920669 270.364913 
L 196.222615 271.523745 
L 200.52456 272.652185 
L 204.826506 273.946314 
L 209.128452 275.459892 
L 213.430398 277.095983 
L 217.732343 278.663903 
L 222.034289 279.97233 
L 226.336235 280.908976 
L 230.638181 281.471091 
L 234.940126 281.746067 
L 239.242072 281.866157 
L 243.544018 281.961529 
L 247.845964 282.123884 
L 252.147909 282.38575 
L 256.449855 282.719839 
L 260.751801 283.059936 
L 265.053747 283.336093 
L 269.355692 283.508404 
L 273.657638 283.583438 
L 277.959584 283.606994 
L 282.26153 283.639684 
L 286.563475 283.729287 
L 290.865421 283.892318 
L 295.167367 284.110253 
L 299.469312 284.338742 
L 303.771258 284.523743 
L 308.073204 284.617701 
L 312.37515 284.591853 
L 316.677095 284.444686 
L 320.979041 284.207139 
L 325.280987 283.94125 
L 329.582933 283.726461 
L 333.884878 283.633238 
L 338.186824 283.694732 
L 342.48877 283.893211 
L 346.790716 284.170569 
L 351.092661 284.456287 
L 355.394607 284.695297 
L 359.696553 284.860907 
L 363.998499 284.950369 
L 368.300444 284.971627 
L 372.60239 284.932509 
L 376.904336 284.839055 
L 381.206282 284.702289 
L 385.508227 284.546518 
L 389.810173 284.410107 
L 394.112119 284.334168 
L 398.414065 284.344156 
L 402.71601 284.436715 
L 407.017956 284.581655 
L 411.319902 284.737802 
L 415.621847 284.871591 
L 419.923793 284.967247 
L 424.225739 285.025584 
L 428.527685 285.056293 
L 432.82963 285.070347 
" style="fill:none;stroke:#000000;stroke-linecap:square;stroke-width:3;"/>
   </g>
   <g id="line2d_16">
    <path clip-path="url(#pb2a7559320)" d="M 97.060328 285.07875 
L 97.060328 168.593036 
" style="fill:none;stroke:#000000;stroke-dasharray:11.1,4.8;stroke-dashoffset:0;stroke-width:3;"/>
   </g>
   <g id="patch_29">
    <path d="M 43.865 285.07875 
L 43.865 13.27875 
" style="fill:none;stroke:#000000;stroke-linecap:square;stroke-linejoin:miter;stroke-width:0.8;"/>
   </g>
   <g id="patch_30">
    <path d="M 449.683182 285.07875 
L 449.683182 13.27875 
" style="fill:none;stroke:#000000;stroke-linecap:square;stroke-linejoin:miter;stroke-width:0.8;"/>
   </g>
   <g id="patch_31">
    <path d="M 43.865 285.07875 
L 449.683182 285.07875 
" style="fill:none;stroke:#000000;stroke-linecap:square;stroke-linejoin:miter;stroke-width:0.8;"/>
   </g>
   <g id="patch_32">
    <path d="M 43.865 13.27875 
L 449.683182 13.27875 
" style="fill:none;stroke:#000000;stroke-linecap:square;stroke-linejoin:miter;stroke-width:0.8;"/>
   </g>
   <g id="legend_1">
    <g id="patch_33">
     <path d="M 290.803182 96.53375 
L 438.483182 96.53375 
Q 441.683182 96.53375 441.683182 93.33375 
L 441.683182 24.47875 
Q 441.683182 21.27875 438.483182 21.27875 
L 290.803182 21.27875 
Q 287.603182 21.27875 287.603182 24.47875 
L 287.603182 93.33375 
Q 287.603182 96.53375 290.803182 96.53375 
z
" style="fill:#ffffff;opacity:0.8;stroke:#cccccc;stroke-linejoin:miter;"/>
    </g>
    <g id="patch_34">
     <path d="M 294.003182 39.83625 
L 326.003182 39.83625 
L 326.003182 28.63625 
L 294.003182 28.63625 
z
" style="fill:#808080;stroke:#808080;stroke-linejoin:miter;"/>
    </g>
    <g id="text_17">
     <!-- AE$_{T}$ MB -->
     <defs>
      <path d="M 5.90625 72.90625 
L 67.578125 72.90625 
L 66.015625 64.59375 
L 39.984375 64.59375 
L 27.484375 0 
L 17.578125 0 
L 30.078125 64.59375 
L 4.296875 64.59375 
z
" id="DejaVuSans-Oblique-84"/>
      <path d="M 9.8125 72.90625 
L 24.515625 72.90625 
L 43.109375 23.296875 
L 61.8125 72.90625 
L 76.515625 72.90625 
L 76.515625 0 
L 66.890625 0 
L 66.890625 64.015625 
L 48.09375 14.015625 
L 38.1875 14.015625 
L 19.390625 64.015625 
L 19.390625 0 
L 9.8125 0 
z
" id="DejaVuSans-77"/>
      <path d="M 19.671875 34.8125 
L 19.671875 8.109375 
L 35.5 8.109375 
Q 43.453125 8.109375 47.28125 11.40625 
Q 51.125 14.703125 51.125 21.484375 
Q 51.125 28.328125 47.28125 31.5625 
Q 43.453125 34.8125 35.5 34.8125 
z
M 19.671875 64.796875 
L 19.671875 42.828125 
L 34.28125 42.828125 
Q 41.5 42.828125 45.03125 45.53125 
Q 48.578125 48.25 48.578125 53.8125 
Q 48.578125 59.328125 45.03125 62.0625 
Q 41.5 64.796875 34.28125 64.796875 
z
M 9.8125 72.90625 
L 35.015625 72.90625 
Q 46.296875 72.90625 52.390625 68.21875 
Q 58.5 63.53125 58.5 54.890625 
Q 58.5 48.1875 55.375 44.234375 
Q 52.25 40.28125 46.1875 39.3125 
Q 53.46875 37.75 57.5 32.78125 
Q 61.53125 27.828125 61.53125 20.40625 
Q 61.53125 10.640625 54.890625 5.3125 
Q 48.25 0 35.984375 0 
L 9.8125 0 
z
" id="DejaVuSans-66"/>
     </defs>
     <g transform="translate(338.803182 39.83625)scale(0.16 -0.16)">
      <use transform="translate(0 0.09375)" xlink:href="#DejaVuSans-65"/>
      <use transform="translate(68.408203 0.09375)" xlink:href="#DejaVuSans-69"/>
      <use transform="translate(132.548828 -16.3125)scale(0.7)" xlink:href="#DejaVuSans-Oblique-84"/>
      <use transform="translate(178.041992 0.09375)" xlink:href="#DejaVuSans-32"/>
      <use transform="translate(209.829102 0.09375)" xlink:href="#DejaVuSans-77"/>
      <use transform="translate(296.108398 0.09375)" xlink:href="#DejaVuSans-66"/>
     </g>
    </g>
    <g id="line2d_17">
     <path d="M 294.003182 57.72125 
L 326.003182 57.72125 
" style="fill:none;stroke:#000000;stroke-linecap:square;stroke-width:3;"/>
    </g>
    <g id="line2d_18"/>
    <g id="text_18">
     <!-- AE$_{T}$ MB KDE -->
     <defs>
      <path d="M 9.8125 72.90625 
L 19.671875 72.90625 
L 19.671875 42.09375 
L 52.390625 72.90625 
L 65.09375 72.90625 
L 28.90625 38.921875 
L 67.671875 0 
L 54.6875 0 
L 19.671875 35.109375 
L 19.671875 0 
L 9.8125 0 
z
" id="DejaVuSans-75"/>
      <path d="M 19.671875 64.796875 
L 19.671875 8.109375 
L 31.59375 8.109375 
Q 46.6875 8.109375 53.6875 14.9375 
Q 60.6875 21.78125 60.6875 36.53125 
Q 60.6875 51.171875 53.6875 57.984375 
Q 46.6875 64.796875 31.59375 64.796875 
z
M 9.8125 72.90625 
L 30.078125 72.90625 
Q 51.265625 72.90625 61.171875 64.09375 
Q 71.09375 55.28125 71.09375 36.53125 
Q 71.09375 17.671875 61.125 8.828125 
Q 51.171875 0 30.078125 0 
L 9.8125 0 
z
" id="DejaVuSans-68"/>
     </defs>
     <g transform="translate(338.803182 63.32125)scale(0.16 -0.16)">
      <use transform="translate(0 0.09375)" xlink:href="#DejaVuSans-65"/>
      <use transform="translate(68.408203 0.09375)" xlink:href="#DejaVuSans-69"/>
      <use transform="translate(132.548828 -16.3125)scale(0.7)" xlink:href="#DejaVuSans-Oblique-84"/>
      <use transform="translate(178.041992 0.09375)" xlink:href="#DejaVuSans-32"/>
      <use transform="translate(209.829102 0.09375)" xlink:href="#DejaVuSans-77"/>
      <use transform="translate(296.108398 0.09375)" xlink:href="#DejaVuSans-66"/>
      <use transform="translate(364.711914 0.09375)" xlink:href="#DejaVuSans-32"/>
      <use transform="translate(396.499023 0.09375)" xlink:href="#DejaVuSans-75"/>
      <use transform="translate(462.075195 0.09375)" xlink:href="#DejaVuSans-68"/>
      <use transform="translate(539.077148 0.09375)" xlink:href="#DejaVuSans-69"/>
     </g>
    </g>
    <g id="line2d_19">
     <path d="M 294.003182 81.20625 
L 326.003182 81.20625 
" style="fill:none;stroke:#000000;stroke-dasharray:11.1,4.8;stroke-dashoffset:0;stroke-width:3;"/>
    </g>
    <g id="line2d_20"/>
    <g id="text_19">
     <!-- MAE$_{T}$ MB -->
     <g transform="translate(338.803182 86.80625)scale(0.16 -0.16)">
      <use transform="translate(0 0.09375)" xlink:href="#DejaVuSans-77"/>
      <use transform="translate(86.279297 0.09375)" xlink:href="#DejaVuSans-65"/>
      <use transform="translate(154.6875 0.09375)" xlink:href="#DejaVuSans-69"/>
      <use transform="translate(218.828125 -16.3125)scale(0.7)" xlink:href="#DejaVuSans-Oblique-84"/>
      <use transform="translate(264.321289 0.09375)" xlink:href="#DejaVuSans-32"/>
      <use transform="translate(296.108398 0.09375)" xlink:href="#DejaVuSans-77"/>
      <use transform="translate(382.387695 0.09375)" xlink:href="#DejaVuSans-66"/>
     </g>
    </g>
   </g>
  </g>
  <g id="axes_2">
   <g id="patch_35">
    <path d="M 530.846818 285.07875 
L 936.665 285.07875 
L 936.665 13.27875 
L 530.846818 13.27875 
z
" style="fill:#ffffff;"/>
   </g>
   <g id="patch_36">
    <path clip-path="url(#p65ff91d423)" d="M 530.965403 285.07875 
L 543.466322 285.07875 
L 543.466322 27.981321 
L 530.965403 27.981321 
z
" style="fill:#808080;opacity:0.4;"/>
   </g>
   <g id="patch_37">
    <path clip-path="url(#p65ff91d423)" d="M 543.466322 285.07875 
L 555.96724 285.07875 
L 555.96724 75.141204 
L 543.466322 75.141204 
z
" style="fill:#808080;opacity:0.4;"/>
   </g>
   <g id="patch_38">
    <path clip-path="url(#p65ff91d423)" d="M 555.96724 285.07875 
L 568.468159 285.07875 
L 568.468159 164.897111 
L 555.96724 164.897111 
z
" style="fill:#808080;opacity:0.4;"/>
   </g>
   <g id="patch_39">
    <path clip-path="url(#p65ff91d423)" d="M 568.468159 285.07875 
L 580.969078 285.07875 
L 580.969078 172.503544 
L 568.468159 172.503544 
z
" style="fill:#808080;opacity:0.4;"/>
   </g>
   <g id="patch_40">
    <path clip-path="url(#p65ff91d423)" d="M 580.969078 285.07875 
L 593.469996 285.07875 
L 593.469996 193.801556 
L 580.969078 193.801556 
z
" style="fill:#808080;opacity:0.4;"/>
   </g>
   <g id="patch_41">
    <path clip-path="url(#p65ff91d423)" d="M 593.469996 285.07875 
L 605.970915 285.07875 
L 605.970915 225.748574 
L 593.469996 225.748574 
z
" style="fill:#808080;opacity:0.4;"/>
   </g>
   <g id="patch_42">
    <path clip-path="url(#p65ff91d423)" d="M 605.970915 285.07875 
L 618.471834 285.07875 
L 618.471834 215.099568 
L 605.970915 215.099568 
z
" style="fill:#808080;opacity:0.4;"/>
   </g>
   <g id="patch_43">
    <path clip-path="url(#p65ff91d423)" d="M 618.471834 285.07875 
L 630.972752 285.07875 
L 630.972752 233.355007 
L 618.471834 233.355007 
z
" style="fill:#808080;opacity:0.4;"/>
   </g>
   <g id="patch_44">
    <path clip-path="url(#p65ff91d423)" d="M 630.972752 285.07875 
L 643.473671 285.07875 
L 643.473671 256.174305 
L 630.972752 256.174305 
z
" style="fill:#808080;opacity:0.4;"/>
   </g>
   <g id="patch_45">
    <path clip-path="url(#p65ff91d423)" d="M 643.473671 285.07875 
L 655.97459 285.07875 
L 655.97459 259.216878 
L 643.473671 259.216878 
z
" style="fill:#808080;opacity:0.4;"/>
   </g>
   <g id="patch_46">
    <path clip-path="url(#p65ff91d423)" d="M 655.97459 285.07875 
L 668.475508 285.07875 
L 668.475508 263.780738 
L 655.97459 263.780738 
z
" style="fill:#808080;opacity:0.4;"/>
   </g>
   <g id="patch_47">
    <path clip-path="url(#p65ff91d423)" d="M 668.475508 285.07875 
L 680.976427 285.07875 
L 680.976427 268.344598 
L 668.475508 268.344598 
z
" style="fill:#808080;opacity:0.4;"/>
   </g>
   <g id="patch_48">
    <path clip-path="url(#p65ff91d423)" d="M 680.976427 285.07875 
L 693.477346 285.07875 
L 693.477346 269.865884 
L 680.976427 269.865884 
z
" style="fill:#808080;opacity:0.4;"/>
   </g>
   <g id="patch_49">
    <path clip-path="url(#p65ff91d423)" d="M 693.477346 285.07875 
L 705.978264 285.07875 
L 705.978264 282.036177 
L 693.477346 282.036177 
z
" style="fill:#808080;opacity:0.4;"/>
   </g>
   <g id="patch_50">
    <path clip-path="url(#p65ff91d423)" d="M 705.978264 285.07875 
L 718.479183 285.07875 
L 718.479183 282.036177 
L 705.978264 282.036177 
z
" style="fill:#808080;opacity:0.4;"/>
   </g>
   <g id="patch_51">
    <path clip-path="url(#p65ff91d423)" d="M 718.479183 285.07875 
L 730.980102 285.07875 
L 730.980102 283.557463 
L 718.479183 283.557463 
z
" style="fill:#808080;opacity:0.4;"/>
   </g>
   <g id="patch_52">
    <path clip-path="url(#p65ff91d423)" d="M 730.980102 285.07875 
L 743.48102 285.07875 
L 743.48102 282.036177 
L 730.980102 282.036177 
z
" style="fill:#808080;opacity:0.4;"/>
   </g>
   <g id="patch_53">
    <path clip-path="url(#p65ff91d423)" d="M 743.48102 285.07875 
L 755.981939 285.07875 
L 755.981939 285.07875 
L 743.48102 285.07875 
z
" style="fill:#808080;opacity:0.4;"/>
   </g>
   <g id="patch_54">
    <path clip-path="url(#p65ff91d423)" d="M 755.981939 285.07875 
L 768.482858 285.07875 
L 768.482858 285.07875 
L 755.981939 285.07875 
z
" style="fill:#808080;opacity:0.4;"/>
   </g>
   <g id="patch_55">
    <path clip-path="url(#p65ff91d423)" d="M 768.482858 285.07875 
L 780.983776 285.07875 
L 780.983776 285.07875 
L 768.482858 285.07875 
z
" style="fill:#808080;opacity:0.4;"/>
   </g>
   <g id="patch_56">
    <path clip-path="url(#p65ff91d423)" d="M 780.983776 285.07875 
L 793.484695 285.07875 
L 793.484695 285.07875 
L 780.983776 285.07875 
z
" style="fill:#808080;opacity:0.4;"/>
   </g>
   <g id="patch_57">
    <path clip-path="url(#p65ff91d423)" d="M 793.484695 285.07875 
L 805.985614 285.07875 
L 805.985614 283.557463 
L 793.484695 283.557463 
z
" style="fill:#808080;opacity:0.4;"/>
   </g>
   <g id="patch_58">
    <path clip-path="url(#p65ff91d423)" d="M 805.985614 285.07875 
L 818.486532 285.07875 
L 818.486532 282.036177 
L 805.985614 282.036177 
z
" style="fill:#808080;opacity:0.4;"/>
   </g>
   <g id="patch_59">
    <path clip-path="url(#p65ff91d423)" d="M 818.486532 285.07875 
L 830.987451 285.07875 
L 830.987451 283.557463 
L 818.486532 283.557463 
z
" style="fill:#808080;opacity:0.4;"/>
   </g>
   <g id="patch_60">
    <path clip-path="url(#p65ff91d423)" d="M 830.987451 285.07875 
L 843.48837 285.07875 
L 843.48837 285.07875 
L 830.987451 285.07875 
z
" style="fill:#808080;opacity:0.4;"/>
   </g>
   <g id="patch_61">
    <path clip-path="url(#p65ff91d423)" d="M 843.48837 285.07875 
L 855.989288 285.07875 
L 855.989288 282.036177 
L 843.48837 282.036177 
z
" style="fill:#808080;opacity:0.4;"/>
   </g>
   <g id="patch_62">
    <path clip-path="url(#p65ff91d423)" d="M 855.989288 285.07875 
L 868.490207 285.07875 
L 868.490207 282.036177 
L 855.989288 282.036177 
z
" style="fill:#808080;opacity:0.4;"/>
   </g>
   <g id="matplotlib.axis_3">
    <g id="xtick_7">
     <g id="line2d_21">
      <g>
       <use style="stroke:#000000;stroke-width:0.8;" x="530.846818" xlink:href="#m4927427f47" y="285.07875"/>
      </g>
     </g>
     <g id="text_20">
      <!-- 0.00 -->
      <g transform="translate(513.034318 304.23625)scale(0.16 -0.16)">
       <use xlink:href="#DejaVuSans-48"/>
       <use x="63.623047" xlink:href="#DejaVuSans-46"/>
       <use x="95.410156" xlink:href="#DejaVuSans-48"/>
       <use x="159.033203" xlink:href="#DejaVuSans-48"/>
      </g>
     </g>
    </g>
    <g id="xtick_8">
     <g id="line2d_22">
      <g>
       <use style="stroke:#000000;stroke-width:0.8;" x="581.574091" xlink:href="#m4927427f47" y="285.07875"/>
      </g>
     </g>
     <g id="text_21">
      <!-- 0.25 -->
      <g transform="translate(563.761591 304.23625)scale(0.16 -0.16)">
       <use xlink:href="#DejaVuSans-48"/>
       <use x="63.623047" xlink:href="#DejaVuSans-46"/>
       <use x="95.410156" xlink:href="#DejaVuSans-50"/>
       <use x="159.033203" xlink:href="#DejaVuSans-53"/>
      </g>
     </g>
    </g>
    <g id="xtick_9">
     <g id="line2d_23">
      <g>
       <use style="stroke:#000000;stroke-width:0.8;" x="632.301364" xlink:href="#m4927427f47" y="285.07875"/>
      </g>
     </g>
     <g id="text_22">
      <!-- 0.50 -->
      <g transform="translate(614.488864 304.23625)scale(0.16 -0.16)">
       <use xlink:href="#DejaVuSans-48"/>
       <use x="63.623047" xlink:href="#DejaVuSans-46"/>
       <use x="95.410156" xlink:href="#DejaVuSans-53"/>
       <use x="159.033203" xlink:href="#DejaVuSans-48"/>
      </g>
     </g>
    </g>
    <g id="xtick_10">
     <g id="line2d_24">
      <g>
       <use style="stroke:#000000;stroke-width:0.8;" x="683.028636" xlink:href="#m4927427f47" y="285.07875"/>
      </g>
     </g>
     <g id="text_23">
      <!-- 0.75 -->
      <g transform="translate(665.216136 304.23625)scale(0.16 -0.16)">
       <use xlink:href="#DejaVuSans-48"/>
       <use x="63.623047" xlink:href="#DejaVuSans-46"/>
       <use x="95.410156" xlink:href="#DejaVuSans-55"/>
       <use x="159.033203" xlink:href="#DejaVuSans-53"/>
      </g>
     </g>
    </g>
    <g id="xtick_11">
     <g id="line2d_25">
      <g>
       <use style="stroke:#000000;stroke-width:0.8;" x="733.755909" xlink:href="#m4927427f47" y="285.07875"/>
      </g>
     </g>
     <g id="text_24">
      <!-- 1.00 -->
      <g transform="translate(715.943409 304.23625)scale(0.16 -0.16)">
       <use xlink:href="#DejaVuSans-49"/>
       <use x="63.623047" xlink:href="#DejaVuSans-46"/>
       <use x="95.410156" xlink:href="#DejaVuSans-48"/>
       <use x="159.033203" xlink:href="#DejaVuSans-48"/>
      </g>
     </g>
    </g>
    <g id="xtick_12">
     <g id="line2d_26">
      <g>
       <use style="stroke:#000000;stroke-width:0.8;" x="784.483182" xlink:href="#m4927427f47" y="285.07875"/>
      </g>
     </g>
     <g id="text_25">
      <!-- 1.25 -->
      <g transform="translate(766.670682 304.23625)scale(0.16 -0.16)">
       <use xlink:href="#DejaVuSans-49"/>
       <use x="63.623047" xlink:href="#DejaVuSans-46"/>
       <use x="95.410156" xlink:href="#DejaVuSans-50"/>
       <use x="159.033203" xlink:href="#DejaVuSans-53"/>
      </g>
     </g>
    </g>
    <g id="xtick_13">
     <g id="line2d_27">
      <g>
       <use style="stroke:#000000;stroke-width:0.8;" x="835.210455" xlink:href="#m4927427f47" y="285.07875"/>
      </g>
     </g>
     <g id="text_26">
      <!-- 1.50 -->
      <g transform="translate(817.397955 304.23625)scale(0.16 -0.16)">
       <use xlink:href="#DejaVuSans-49"/>
       <use x="63.623047" xlink:href="#DejaVuSans-46"/>
       <use x="95.410156" xlink:href="#DejaVuSans-53"/>
       <use x="159.033203" xlink:href="#DejaVuSans-48"/>
      </g>
     </g>
    </g>
    <g id="xtick_14">
     <g id="line2d_28">
      <g>
       <use style="stroke:#000000;stroke-width:0.8;" x="885.937727" xlink:href="#m4927427f47" y="285.07875"/>
      </g>
     </g>
     <g id="text_27">
      <!-- 1.75 -->
      <g transform="translate(868.125227 304.23625)scale(0.16 -0.16)">
       <use xlink:href="#DejaVuSans-49"/>
       <use x="63.623047" xlink:href="#DejaVuSans-46"/>
       <use x="95.410156" xlink:href="#DejaVuSans-55"/>
       <use x="159.033203" xlink:href="#DejaVuSans-53"/>
      </g>
     </g>
    </g>
    <g id="xtick_15">
     <g id="line2d_29">
      <g>
       <use style="stroke:#000000;stroke-width:0.8;" x="936.665" xlink:href="#m4927427f47" y="285.07875"/>
      </g>
     </g>
     <g id="text_28">
      <!-- 2.00 -->
      <g transform="translate(918.8525 304.23625)scale(0.16 -0.16)">
       <use xlink:href="#DejaVuSans-50"/>
       <use x="63.623047" xlink:href="#DejaVuSans-46"/>
       <use x="95.410156" xlink:href="#DejaVuSans-48"/>
       <use x="159.033203" xlink:href="#DejaVuSans-48"/>
      </g>
     </g>
    </g>
    <g id="text_29">
     <!-- $AE_T$ ($^\circ$C) -->
     <defs>
      <path d="M 36.8125 72.90625 
L 48 72.90625 
L 61.53125 0 
L 51.21875 0 
L 48.1875 18.703125 
L 15.375 18.703125 
L 5.078125 0 
L -5.328125 0 
z
M 40.375 63.1875 
L 19.921875 26.90625 
L 46.6875 26.90625 
z
" id="DejaVuSans-Oblique-65"/>
      <path d="M 16.890625 72.90625 
L 62.984375 72.90625 
L 61.375 64.59375 
L 25.09375 64.59375 
L 20.90625 43.015625 
L 55.71875 43.015625 
L 54.109375 34.71875 
L 19.28125 34.71875 
L 14.203125 8.296875 
L 51.3125 8.296875 
L 49.703125 0 
L 2.6875 0 
z
" id="DejaVuSans-Oblique-69"/>
      <path d="M 31.25 40.921875 
Q 27.34375 40.921875 24.65625 38.203125 
Q 21.96875 35.5 21.96875 31.59375 
Q 21.96875 27.734375 24.65625 25.078125 
Q 27.34375 22.421875 31.25 22.421875 
Q 35.15625 22.421875 37.84375 25.078125 
Q 40.53125 27.734375 40.53125 31.59375 
Q 40.53125 35.453125 37.8125 38.1875 
Q 35.109375 40.921875 31.25 40.921875 
z
M 31.25 47.21875 
Q 34.375 47.21875 37.25 46.015625 
Q 40.140625 44.828125 42.234375 42.578125 
Q 44.484375 40.390625 45.609375 37.59375 
Q 46.734375 34.8125 46.734375 31.59375 
Q 46.734375 25.15625 42.21875 20.6875 
Q 37.703125 16.21875 31.15625 16.21875 
Q 24.5625 16.21875 20.15625 20.609375 
Q 15.765625 25 15.765625 31.59375 
Q 15.765625 38.140625 20.25 42.671875 
Q 24.75 47.21875 31.25 47.21875 
z
" id="DejaVuSans-8728"/>
      <path d="M 64.40625 67.28125 
L 64.40625 56.890625 
Q 59.421875 61.53125 53.78125 63.8125 
Q 48.140625 66.109375 41.796875 66.109375 
Q 29.296875 66.109375 22.65625 58.46875 
Q 16.015625 50.828125 16.015625 36.375 
Q 16.015625 21.96875 22.65625 14.328125 
Q 29.296875 6.6875 41.796875 6.6875 
Q 48.140625 6.6875 53.78125 8.984375 
Q 59.421875 11.28125 64.40625 15.921875 
L 64.40625 5.609375 
Q 59.234375 2.09375 53.4375 0.328125 
Q 47.65625 -1.421875 41.21875 -1.421875 
Q 24.65625 -1.421875 15.125 8.703125 
Q 5.609375 18.84375 5.609375 36.375 
Q 5.609375 53.953125 15.125 64.078125 
Q 24.65625 74.21875 41.21875 74.21875 
Q 47.75 74.21875 53.53125 72.484375 
Q 59.328125 70.75 64.40625 67.28125 
z
" id="DejaVuSans-67"/>
     </defs>
     <g transform="translate(699.195909 323.72125)scale(0.16 -0.16)">
      <use transform="translate(0 0.125)" xlink:href="#DejaVuSans-Oblique-65"/>
      <use transform="translate(68.408203 0.125)" xlink:href="#DejaVuSans-Oblique-69"/>
      <use transform="translate(131.591797 -16.28125)scale(0.7)" xlink:href="#DejaVuSans-Oblique-84"/>
      <use transform="translate(177.084961 0.125)" xlink:href="#DejaVuSans-32"/>
      <use transform="translate(208.87207 0.125)" xlink:href="#DejaVuSans-40"/>
      <use transform="translate(262.480469 38.40625)scale(0.7)" xlink:href="#DejaVuSans-8728"/>
      <use transform="translate(322.670898 0.125)" xlink:href="#DejaVuSans-67"/>
      <use transform="translate(392.495117 0.125)" xlink:href="#DejaVuSans-41"/>
     </g>
    </g>
   </g>
   <g id="matplotlib.axis_4">
    <g id="ytick_9">
     <g id="line2d_30">
      <g>
       <use style="stroke:#000000;stroke-width:0.8;" x="530.846818" xlink:href="#ma46667da0c" y="285.07875"/>
      </g>
     </g>
     <g id="text_30">
      <!-- 0.0 -->
      <g transform="translate(498.401818 291.1575)scale(0.16 -0.16)">
       <use xlink:href="#DejaVuSans-48"/>
       <use x="63.623047" xlink:href="#DejaVuSans-46"/>
       <use x="95.410156" xlink:href="#DejaVuSans-48"/>
      </g>
     </g>
    </g>
    <g id="ytick_10">
     <g id="line2d_31">
      <g>
       <use style="stroke:#000000;stroke-width:0.8;" x="530.846818" xlink:href="#ma46667da0c" y="251.10375"/>
      </g>
     </g>
     <g id="text_31">
      <!-- 0.5 -->
      <g transform="translate(498.401818 257.1825)scale(0.16 -0.16)">
       <use xlink:href="#DejaVuSans-48"/>
       <use x="63.623047" xlink:href="#DejaVuSans-46"/>
       <use x="95.410156" xlink:href="#DejaVuSans-53"/>
      </g>
     </g>
    </g>
    <g id="ytick_11">
     <g id="line2d_32">
      <g>
       <use style="stroke:#000000;stroke-width:0.8;" x="530.846818" xlink:href="#ma46667da0c" y="217.12875"/>
      </g>
     </g>
     <g id="text_32">
      <!-- 1.0 -->
      <g transform="translate(498.401818 223.2075)scale(0.16 -0.16)">
       <use xlink:href="#DejaVuSans-49"/>
       <use x="63.623047" xlink:href="#DejaVuSans-46"/>
       <use x="95.410156" xlink:href="#DejaVuSans-48"/>
      </g>
     </g>
    </g>
    <g id="ytick_12">
     <g id="line2d_33">
      <g>
       <use style="stroke:#000000;stroke-width:0.8;" x="530.846818" xlink:href="#ma46667da0c" y="183.15375"/>
      </g>
     </g>
     <g id="text_33">
      <!-- 1.5 -->
      <g transform="translate(498.401818 189.2325)scale(0.16 -0.16)">
       <use xlink:href="#DejaVuSans-49"/>
       <use x="63.623047" xlink:href="#DejaVuSans-46"/>
       <use x="95.410156" xlink:href="#DejaVuSans-53"/>
      </g>
     </g>
    </g>
    <g id="ytick_13">
     <g id="line2d_34">
      <g>
       <use style="stroke:#000000;stroke-width:0.8;" x="530.846818" xlink:href="#ma46667da0c" y="149.17875"/>
      </g>
     </g>
     <g id="text_34">
      <!-- 2.0 -->
      <g transform="translate(498.401818 155.2575)scale(0.16 -0.16)">
       <use xlink:href="#DejaVuSans-50"/>
       <use x="63.623047" xlink:href="#DejaVuSans-46"/>
       <use x="95.410156" xlink:href="#DejaVuSans-48"/>
      </g>
     </g>
    </g>
    <g id="ytick_14">
     <g id="line2d_35">
      <g>
       <use style="stroke:#000000;stroke-width:0.8;" x="530.846818" xlink:href="#ma46667da0c" y="115.20375"/>
      </g>
     </g>
     <g id="text_35">
      <!-- 2.5 -->
      <g transform="translate(498.401818 121.2825)scale(0.16 -0.16)">
       <use xlink:href="#DejaVuSans-50"/>
       <use x="63.623047" xlink:href="#DejaVuSans-46"/>
       <use x="95.410156" xlink:href="#DejaVuSans-53"/>
      </g>
     </g>
    </g>
    <g id="ytick_15">
     <g id="line2d_36">
      <g>
       <use style="stroke:#000000;stroke-width:0.8;" x="530.846818" xlink:href="#ma46667da0c" y="81.22875"/>
      </g>
     </g>
     <g id="text_36">
      <!-- 3.0 -->
      <g transform="translate(498.401818 87.3075)scale(0.16 -0.16)">
       <use xlink:href="#DejaVuSans-51"/>
       <use x="63.623047" xlink:href="#DejaVuSans-46"/>
       <use x="95.410156" xlink:href="#DejaVuSans-48"/>
      </g>
     </g>
    </g>
    <g id="ytick_16">
     <g id="line2d_37">
      <g>
       <use style="stroke:#000000;stroke-width:0.8;" x="530.846818" xlink:href="#ma46667da0c" y="47.25375"/>
      </g>
     </g>
     <g id="text_37">
      <!-- 3.5 -->
      <g transform="translate(498.401818 53.3325)scale(0.16 -0.16)">
       <use xlink:href="#DejaVuSans-51"/>
       <use x="63.623047" xlink:href="#DejaVuSans-46"/>
       <use x="95.410156" xlink:href="#DejaVuSans-53"/>
      </g>
     </g>
    </g>
    <g id="ytick_17">
     <g id="line2d_38">
      <g>
       <use style="stroke:#000000;stroke-width:0.8;" x="530.846818" xlink:href="#ma46667da0c" y="13.27875"/>
      </g>
     </g>
     <g id="text_38">
      <!-- 4.0 -->
      <g transform="translate(498.401818 19.3575)scale(0.16 -0.16)">
       <use xlink:href="#DejaVuSans-52"/>
       <use x="63.623047" xlink:href="#DejaVuSans-46"/>
       <use x="95.410156" xlink:href="#DejaVuSans-48"/>
      </g>
     </g>
    </g>
    <g id="text_39">
     <!-- Prediction distribution -->
     <g transform="translate(491.074318 237.365)rotate(-90)scale(0.16 -0.16)">
      <use xlink:href="#DejaVuSans-80"/>
      <use x="60.287109" xlink:href="#DejaVuSans-114"/>
      <use x="101.369141" xlink:href="#DejaVuSans-101"/>
      <use x="162.892578" xlink:href="#DejaVuSans-100"/>
      <use x="226.369141" xlink:href="#DejaVuSans-105"/>
      <use x="254.152344" xlink:href="#DejaVuSans-99"/>
      <use x="309.132812" xlink:href="#DejaVuSans-116"/>
      <use x="348.341797" xlink:href="#DejaVuSans-105"/>
      <use x="376.125" xlink:href="#DejaVuSans-111"/>
      <use x="437.306641" xlink:href="#DejaVuSans-110"/>
      <use x="500.685547" xlink:href="#DejaVuSans-32"/>
      <use x="532.472656" xlink:href="#DejaVuSans-100"/>
      <use x="595.949219" xlink:href="#DejaVuSans-105"/>
      <use x="623.732422" xlink:href="#DejaVuSans-115"/>
      <use x="675.832031" xlink:href="#DejaVuSans-116"/>
      <use x="715.041016" xlink:href="#DejaVuSans-114"/>
      <use x="756.154297" xlink:href="#DejaVuSans-105"/>
      <use x="783.9375" xlink:href="#DejaVuSans-98"/>
      <use x="847.414062" xlink:href="#DejaVuSans-117"/>
      <use x="910.792969" xlink:href="#DejaVuSans-116"/>
      <use x="950.001953" xlink:href="#DejaVuSans-105"/>
      <use x="977.785156" xlink:href="#DejaVuSans-111"/>
      <use x="1038.966797" xlink:href="#DejaVuSans-110"/>
     </g>
    </g>
   </g>
   <g id="line2d_39">
    <path clip-path="url(#p65ff91d423)" d="M 491.978991 284.741765 
L 496.175937 284.157715 
L 500.372883 282.789085 
L 504.569829 279.894512 
L 508.766774 274.371296 
L 512.96372 264.869789 
L 517.160666 250.153391 
L 521.357611 229.679996 
L 525.554557 204.202141 
L 529.751503 176.048835 
L 533.948449 148.803106 
L 538.145394 126.365656 
L 542.34234 111.754729 
L 546.539286 106.18758 
L 550.736232 108.862638 
L 554.933177 117.489195 
L 559.130123 129.243863 
L 563.327069 141.691632 
L 567.524015 153.328386 
L 571.72096 163.647063 
L 575.917906 172.84024 
L 580.114852 181.351167 
L 584.311797 189.483181 
L 588.508743 197.210993 
L 592.705689 204.233456 
L 596.902635 210.195534 
L 601.09958 214.93373 
L 605.296526 218.606068 
L 609.493472 221.650261 
L 613.690418 224.614719 
L 617.887363 227.96174 
L 622.084309 231.929776 
L 626.281255 236.491655 
L 630.478201 241.399779 
L 634.675146 246.286351 
L 638.872092 250.780953 
L 643.069038 254.610248 
L 647.265983 257.653733 
L 651.462929 259.946123 
L 655.659875 261.636561 
L 659.856821 262.929178 
L 664.053766 264.031601 
L 668.250712 265.126293 
L 672.447658 266.360681 
L 676.644604 267.839674 
L 680.841549 269.609111 
L 685.038495 271.636531 
L 689.235441 273.808468 
L 693.432386 275.957315 
L 697.629332 277.910887 
L 701.826278 279.542127 
L 706.023224 280.797197 
L 710.220169 281.693971 
L 714.417115 282.297959 
L 718.614061 282.690646 
L 722.811007 282.945095 
L 727.007952 283.116923 
L 731.204898 283.248624 
L 735.401844 283.377055 
L 739.59879 283.533948 
L 743.795735 283.737902 
L 747.992681 283.985842 
L 752.189627 284.253346 
L 756.386572 284.505648 
L 760.583518 284.712222 
L 764.780464 284.855698 
L 768.97741 284.931171 
L 773.174355 284.938954 
L 777.371301 284.877425 
L 781.568247 284.741426 
L 785.765193 284.52783 
L 789.962138 284.245396 
L 794.159084 283.922682 
L 798.35603 283.607426 
L 802.552976 283.35479 
L 806.749921 283.208748 
L 810.946867 283.186092 
L 815.143813 283.271527 
L 819.340758 283.425307 
L 823.537704 283.597594 
L 827.73465 283.741954 
L 831.931596 283.824292 
L 836.128541 283.827741 
L 840.325487 283.754682 
L 844.522433 283.625292 
L 848.719379 283.472071 
L 852.916324 283.332204 
L 857.11327 283.24097 
L 861.310216 283.227259 
L 865.507161 283.309265 
L 869.704107 283.488893 
L 873.901053 283.747517 
L 878.097999 284.048161 
L 882.294944 284.346003 
L 886.49189 284.602788 
L 890.688836 284.797418 
L 894.885782 284.927867 
L 899.082727 285.005478 
L 903.279673 285.046578 
L 907.476619 285.065991 
" style="fill:none;stroke:#000000;stroke-linecap:square;stroke-width:3;"/>
   </g>
   <g id="line2d_40">
    <path clip-path="url(#p65ff91d423)" d="M 579.313845 285.07875 
L 579.313845 195.38475 
" style="fill:none;stroke:#000000;stroke-dasharray:11.1,4.8;stroke-dashoffset:0;stroke-width:3;"/>
   </g>
   <g id="patch_63">
    <path d="M 530.846818 285.07875 
L 530.846818 13.27875 
" style="fill:none;stroke:#000000;stroke-linecap:square;stroke-linejoin:miter;stroke-width:0.8;"/>
   </g>
   <g id="patch_64">
    <path d="M 936.665 285.07875 
L 936.665 13.27875 
" style="fill:none;stroke:#000000;stroke-linecap:square;stroke-linejoin:miter;stroke-width:0.8;"/>
   </g>
   <g id="patch_65">
    <path d="M 530.846818 285.07875 
L 936.665 285.07875 
" style="fill:none;stroke:#000000;stroke-linecap:square;stroke-linejoin:miter;stroke-width:0.8;"/>
   </g>
   <g id="patch_66">
    <path d="M 530.846818 13.27875 
L 936.665 13.27875 
" style="fill:none;stroke:#000000;stroke-linecap:square;stroke-linejoin:miter;stroke-width:0.8;"/>
   </g>
   <g id="legend_2">
    <g id="patch_67">
     <path d="M 777.785 96.53375 
L 925.465 96.53375 
Q 928.665 96.53375 928.665 93.33375 
L 928.665 24.47875 
Q 928.665 21.27875 925.465 21.27875 
L 777.785 21.27875 
Q 774.585 21.27875 774.585 24.47875 
L 774.585 93.33375 
Q 774.585 96.53375 777.785 96.53375 
z
" style="fill:#ffffff;opacity:0.8;stroke:#cccccc;stroke-linejoin:miter;"/>
    </g>
    <g id="patch_68">
     <path d="M 780.985 39.83625 
L 812.985 39.83625 
L 812.985 28.63625 
L 780.985 28.63625 
z
" style="fill:#808080;stroke:#808080;stroke-linejoin:miter;"/>
    </g>
    <g id="text_40">
     <!-- AE$_{T}$ MB -->
     <g transform="translate(825.785 39.83625)scale(0.16 -0.16)">
      <use transform="translate(0 0.09375)" xlink:href="#DejaVuSans-65"/>
      <use transform="translate(68.408203 0.09375)" xlink:href="#DejaVuSans-69"/>
      <use transform="translate(132.548828 -16.3125)scale(0.7)" xlink:href="#DejaVuSans-Oblique-84"/>
      <use transform="translate(178.041992 0.09375)" xlink:href="#DejaVuSans-32"/>
      <use transform="translate(209.829102 0.09375)" xlink:href="#DejaVuSans-77"/>
      <use transform="translate(296.108398 0.09375)" xlink:href="#DejaVuSans-66"/>
     </g>
    </g>
    <g id="line2d_41">
     <path d="M 780.985 57.72125 
L 812.985 57.72125 
" style="fill:none;stroke:#000000;stroke-linecap:square;stroke-width:3;"/>
    </g>
    <g id="line2d_42"/>
    <g id="text_41">
     <!-- AE$_{T}$ MB KDE -->
     <g transform="translate(825.785 63.32125)scale(0.16 -0.16)">
      <use transform="translate(0 0.09375)" xlink:href="#DejaVuSans-65"/>
      <use transform="translate(68.408203 0.09375)" xlink:href="#DejaVuSans-69"/>
      <use transform="translate(132.548828 -16.3125)scale(0.7)" xlink:href="#DejaVuSans-Oblique-84"/>
      <use transform="translate(178.041992 0.09375)" xlink:href="#DejaVuSans-32"/>
      <use transform="translate(209.829102 0.09375)" xlink:href="#DejaVuSans-77"/>
      <use transform="translate(296.108398 0.09375)" xlink:href="#DejaVuSans-66"/>
      <use transform="translate(364.711914 0.09375)" xlink:href="#DejaVuSans-32"/>
      <use transform="translate(396.499023 0.09375)" xlink:href="#DejaVuSans-75"/>
      <use transform="translate(462.075195 0.09375)" xlink:href="#DejaVuSans-68"/>
      <use transform="translate(539.077148 0.09375)" xlink:href="#DejaVuSans-69"/>
     </g>
    </g>
    <g id="line2d_43">
     <path d="M 780.985 81.20625 
L 812.985 81.20625 
" style="fill:none;stroke:#000000;stroke-dasharray:11.1,4.8;stroke-dashoffset:0;stroke-width:3;"/>
    </g>
    <g id="line2d_44"/>
    <g id="text_42">
     <!-- MAE$_{T}$ MB -->
     <g transform="translate(825.785 86.80625)scale(0.16 -0.16)">
      <use transform="translate(0 0.09375)" xlink:href="#DejaVuSans-77"/>
      <use transform="translate(86.279297 0.09375)" xlink:href="#DejaVuSans-65"/>
      <use transform="translate(154.6875 0.09375)" xlink:href="#DejaVuSans-69"/>
      <use transform="translate(218.828125 -16.3125)scale(0.7)" xlink:href="#DejaVuSans-Oblique-84"/>
      <use transform="translate(264.321289 0.09375)" xlink:href="#DejaVuSans-32"/>
      <use transform="translate(296.108398 0.09375)" xlink:href="#DejaVuSans-77"/>
      <use transform="translate(382.387695 0.09375)" xlink:href="#DejaVuSans-66"/>
     </g>
    </g>
   </g>
  </g>
 </g>
 <defs>
  <clipPath id="pb2a7559320">
   <rect height="271.8" width="405.818182" x="43.865" y="13.27875"/>
  </clipPath>
  <clipPath id="p65ff91d423">
   <rect height="271.8" width="405.818182" x="530.846818" y="13.27875"/>
  </clipPath>
 </defs>
</svg>
